<svg xmlns="http://www.w3.org/2000/svg" viewBox="0 0 900 600"><path fill="#007a3d" d="M0 0h900v600H0z"/><path fill="#fff" d="M653.5 291.7a102.6 102.6 0 0 1-21.6 16.8 170 170 0 0 1-33.8 15.2 315.4 315.4 0 0 1-47 11.6 446 446 0 0 1-61.1 5.9 415.2 415.2 0 0 0-13.2 42.2h-1.5c-1-1-1.8-2.2-2.4-3.7-.7-1.5-1.4-3.6-2-6.3a390.8 390.8 0 0 1 7-32.2c-9.9 0-19.3-1.3-28-3.8-.6 37.8-9.7 72.6-27.3 104.3-19.1 34.5-59 51.8-119.8 51.8a84.6 84.6 0 0 1-59.8-21.4 70.8 70.8 0 0 1-23.4-54.2c0-22.8 10.7-50.9 32.2-84l5.6 2c-14.5 26.7-21.7 48.3-21.7 64.7 0 8.6 2 16.3 6.3 23a54.2 54.2 0 0 0 17.9 17.3 92.3 92.3 0 0 0 28.4 11c11.2 2.5 23.9 3.8 38 3.8a158 158 0 0 0 59.7-11.1c18.3-7.2 30.8-16.5 37.5-27.9 6-10.9 9-27 9-48.3a113.6 113.6 0 0 0-20.1-64.7l16-34.6a156 156 0 0 1 16.1 29.6 71 71 0 0 0 17 5.3 105 105 0 0 0 24.7 1.4c2.3 0 4.8-.2 7.3-.6 10.7-17.7 22.3-34 34.7-48.6a293 293 0 0 1 38.8-38.4 177.8 177.8 0 0 1 33.4-22 65.4 65.4 0 0 1 26.4-7.9c7 0 13.8 1.4 20.2 4a74.5 74.5 0 0 1 17.2 9.7c5 3.8 8.9 7.8 11.8 12 3 4.2 4.4 8 4.4 11.3a96 96 0 0 1-8.5 40 89 89 0 0 1-8.6 14.6 180 180 0 0 1-9.8 12.2zm-37.2-64.8a56 56 0 0 0-20.7 5.3c-8.3 3.5-17.3 8.5-27 15a259.9 259.9 0 0 0-58.7 57.3 148 148 0 0 0 20.2-1.1c14-1 28-3.1 41.5-6.3 13.6-3.3 28.2-7.9 43.8-14 12.3-4.6 22.2-9.6 29.9-14.7a51.9 51.9 0 0 0 14.6-13 85 85 0 0 0-19.3-19.4c-4-2.7-8-5-12.2-6.6a33 33 0 0 0-12.1-2.5zm-52.5-97.6L543 160.1l-27.8-23.4 20.5-30.2z"/></svg>