<svg xmlns="http://www.w3.org/2000/svg" viewBox="0 0 2500 2500" style="enable-background:new 0 0 2500 2500" xml:space="preserve"><path d="M1921.4 2500H1177l296.4-420c62.1-88 71.3-184.2 22.3-263.7l-388.8-566.2 370.2-522.8c57.3-86.3 75.2-199.4 12.6-287L1174.7 0h746.7C2239.6 0 2500 260.4 2500 578.6v1342.8c0 318.2-260.4 578.6-578.6 578.6zm73.9-1160.3-364.2 516.6c-45.4-190.1-52.7-191.7-153.1-319.5l212.1-286.6L1478 969.5c99.8-121.9 116-155.7 153.3-330.8 117.2 166.3 323.6 453.1 363.1 508.4 53.2 74.5 50.3 122.6.9 192.6zM893.4 2500H578.6C260.4 2500 0 2239.6 0 1921.4V578.6C0 260.4 260.4 0 578.6 0h314.5l271.5 375.3c78.2 108.3 38.8 210.2-122.7 436.4-116.9 172.5-196 283.7-237.9 362.9-31.2 59.1-31.6 131.7 22.5 211.6l326.9 482.7c63.2 93.2 65.8 174.3-5.4 274L893.4 2500z" style="fill-rule:evenodd;clip-rule:evenodd;fill:#f34718"/></svg>