<?xml version="1.0" encoding="UTF-8"?>
<svg version="1.1" xmlns="http://www.w3.org/2000/svg" width="611" height="611" viewBox="0 -76.5 611 611">
<path d="M0 0 C26.78995495 20.1627661 38.59075144 53.40449606 52.17822266 82.89355469 C57.34174388 94.06281782 62.71811674 105.12611523 68.125 116.17919922 C68.45851471 116.86249802 68.79202942 117.54579681 69.13565063 118.24980164 C69.76203253 119.53270224 70.39001389 120.81482358 71.01986694 122.09602356 C72.25650443 124.62948886 73.34758799 127.07303741 74.24072266 129.75244141 C83.80097396 110.89188521 92.92710864 91.81857074 101.80322266 72.62744141 C103.41800969 69.14579947 105.03362406 65.66454365 106.64990234 62.18359375 C107.70803785 59.90135981 108.76339076 57.61783362 109.81591797 55.33300781 C118.26803502 37.02715306 126.93909722 21.07576885 141.24072266 6.75244141 C142.22105469 5.75470703 142.22105469 5.75470703 143.22119141 4.73681641 C158.85838775 -10.06684068 178.14737846 -13.78012259 198.91650391 -13.51708984 C219.01364998 -12.91544987 238.00773881 -2.60837156 251.98681641 11.52978516 C256.43318991 16.57171554 260.01290896 21.75314793 263.1418457 27.69677734 C263.48576449 28.34746563 263.82968328 28.99815392 264.18402386 29.66856003 C267.76682868 36.57579563 270.67462113 43.71610933 273.51025391 50.95556641 C274.09669167 52.43255532 274.68397651 53.90920812 275.27201843 55.38555908 C276.53945699 58.5720904 277.8016006 61.76064662 279.05957031 64.95092773 C281.10819662 70.14557515 283.16937792 75.33518447 285.23291016 80.52392578 C285.96170343 82.35668826 286.69049367 84.18945195 287.41928101 86.0222168 C287.9718413 87.41170029 287.9718413 87.41170029 288.53556442 88.82925415 C289.68125998 91.71143772 290.82581072 94.59407374 291.97012329 97.47680664 C300.57485744 119.14711293 309.28184429 140.77619685 317.98638916 162.40655518 C322.55582339 173.76235456 327.11849045 185.12087445 331.68212891 196.47900391 C333.46737432 200.92206734 335.25268751 205.36510352 337.03808594 209.80810547 C337.47302368 210.89045786 337.90796143 211.97281025 338.3560791 213.0879612 C341.30656205 220.42964049 344.25922072 227.77044221 347.21289062 235.11083984 C350.65420475 243.66322283 354.09192239 252.21704021 357.52486992 260.77278519 C359.25507863 265.08456556 360.98700152 269.39563591 362.72363281 273.70483398 C364.31608619 277.65634018 365.90363067 281.60978218 367.48739815 285.56477737 C368.05641023 286.98327687 368.62716451 288.40107916 369.19993401 289.81806564 C381.22876178 319.58808074 385.03205467 349.47200843 372.24072266 379.75244141 C360.40469106 406.21566962 340.09827368 426.61233526 313.24072266 437.75244141 C285.64406519 448.23259293 253.97726645 448.20590984 226.76806641 436.44775391 C216.70791517 431.61264246 207.73842999 426.055392 199.24072266 418.75244141 C198.57943359 418.23552734 197.91814453 417.71861328 197.23681641 417.18603516 C175.17370827 399.40183284 164.9843589 370.00513798 154.74072266 344.62744141 C153.8587685 342.45290882 152.97627303 340.27859571 152.09326172 338.10449219 C150.31464084 333.7247689 148.5378208 329.34432211 146.76220703 324.96337891 C143.19720675 316.17426387 139.59552462 307.40028766 135.99072266 298.62744141 C135.34027162 297.04331907 134.68988092 295.45917197 134.03955078 293.875 C132.75200188 290.73868263 131.46422792 287.60245783 130.17626953 284.46630859 C127.19716388 277.21166957 124.22111339 269.95577701 121.24475098 262.70001221 C119.57685893 258.63410711 117.90878169 254.568278 116.24072266 250.50244141 C115.5740551 248.87744177 114.90738843 247.25244177 114.24072266 245.62744141 C113.91072266 244.82306641 113.58072266 244.01869141 113.24072266 243.18994141 C112.24072266 240.75244141 111.24072266 238.31494141 110.24072266 235.87744141 C109.91077301 235.07319229 109.58082336 234.26894318 109.24087524 233.44032288 C108.57369102 231.81405497 107.90651574 230.1877834 107.23934937 228.56150818 C105.58067429 224.51837708 103.92184782 220.47530824 102.26269531 216.43237305 C99.16735615 208.88936161 96.07349116 201.34575576 92.98480225 193.80001831 C91.54252623 190.27676241 90.09941768 186.75384778 88.65625 183.23095703 C87.97549775 181.56852873 87.29514314 179.90593752 86.61523438 178.24316406 C82.57931642 168.37330745 78.47854366 158.53754456 74.24072266 148.75244141 C73.87011719 149.66904541 73.49951172 150.58564941 73.11767578 151.5300293 C63.8970456 174.32917481 54.60488772 197.09804388 45.25683594 219.84521484 C42.24789537 227.16780143 39.24399589 234.4924561 36.23971558 241.81695557 C34.57359107 245.87886888 32.90714036 249.94064837 31.24072266 254.00244141 C30.57405443 255.62744077 29.90738776 257.25244077 29.24072266 258.87744141 C25.24072264 268.62744143 25.24072264 268.62744143 24.24073792 271.06489563 C23.57401235 272.69004492 22.90729482 274.31519751 22.24058533 275.94035339 C20.57488569 280.00059631 18.90904684 284.06078201 17.24291992 288.12084961 C13.89403764 296.28193757 10.54752596 304.44398471 7.20556641 312.60791016 C4.21575866 319.91117658 1.2197532 327.2118706 -1.78262329 334.50997925 C-3.45597952 338.5781823 -5.12618076 342.64762868 -6.79003906 346.71972656 C-8.45497759 350.79409891 -10.12770553 354.86519532 -11.80563354 358.93423462 C-12.42697224 360.44464299 -13.04569632 361.95613041 -13.66140747 363.46884155 C-16.7746172 371.11290171 -20.05012424 378.59342241 -23.91943359 385.88916016 C-24.23674438 386.48825195 -24.55405518 387.08734375 -24.88098145 387.70458984 C-38.17655377 412.15023027 -61.23879214 432.14225228 -87.91308594 440.42089844 C-108.08512311 446.15257064 -131.44645447 447.72821848 -151.75927734 441.75244141 C-152.98001953 441.41212891 -154.20076172 441.07181641 -155.45849609 440.72119141 C-179.20428713 433.49739475 -202.05430988 417.39011758 -214.75927734 395.75244141 C-215.11328613 395.15093262 -215.46729492 394.54942383 -215.83203125 393.9296875 C-221.64246017 383.91296567 -225.9377153 374.00469487 -228.75927734 362.75244141 C-228.94329102 362.01944824 -229.12730469 361.28645508 -229.31689453 360.53125 C-230.93066317 353.43901011 -231.12628885 346.50599252 -231.13427734 339.25244141 C-231.15876953 338.11291016 -231.18326172 336.97337891 -231.20849609 335.79931641 C-231.2665179 318.3927759 -225.64503651 302.80178664 -219.13037109 286.88134766 C-218.35621615 284.95954903 -217.58332551 283.0372407 -216.81158447 281.11447144 C-214.72512428 275.92582007 -212.62182354 270.74414978 -210.5154686 265.56354904 C-208.2781912 260.05199627 -206.05717585 254.53389814 -203.8347168 249.01635742 C-200.07668617 239.69135306 -196.31012178 230.36983772 -192.53857422 221.05029297 C-186.83266014 206.94771754 -181.15906781 192.83226443 -175.49365234 178.71337891 C-173.64178222 174.09870701 -171.78989048 169.48404379 -169.93798828 164.86938477 C-169.48315189 163.73593219 -169.02831551 162.60247961 -168.5596962 161.43467999 C-163.18097955 148.03276488 -157.78880536 134.63626571 -152.39781952 121.23928261 C-147.00170646 107.82842709 -141.61852147 94.4125128 -136.25244713 80.98961067 C-134.35589755 76.24759023 -132.45583967 71.50697465 -130.55541706 66.76650524 C-128.85968286 62.53554143 -127.16954304 58.30240703 -125.48411369 54.06732845 C-124.24140457 50.94977403 -122.98990677 47.83576487 -121.73974609 44.72119141 C-121.31681274 43.65256363 -120.89387939 42.58393585 -120.45812988 41.48292542 C-115.99765883 30.4215077 -110.63136984 20.73624162 -102.75927734 11.75244141 C-102.16630859 11.06408203 -101.57333984 10.37572266 -100.96240234 9.66650391 C-75.45014953 -17.91725661 -30.17056408 -21.39489071 0 0 Z " fill="#0056FF" transform="translate(230.75927734375,13.24755859375)"/>
</svg>
