<svg xmlns="http://www.w3.org/2000/svg" xml:space="preserve" id="Layer_1" x="0" y="0" version="1.1" viewBox="0 0 2500 2500"><style>.st1{fill:#ff007a}</style><g id="Layer_x0020_1"><path fill="none" d="M0 0h2500v2500H0z"/><g id="_1332663678928"><path d="M1016 569c-27-4-29-6-16-7 25-4 81 2 121 11 93 21 177 78 266 177l23 27 34-5c143-23 290-5 412 52 34 15 87 46 93 54 3 3 7 19 9 36 9 61 5 106-14 141-10 19-10 24-4 41 5 13 21 22 35 22 31 0 63-49 78-117l7-27 11 12c66 74 118 176 126 248l2 19-12-17c-19-29-37-48-61-65-44-30-91-39-213-45-111-7-174-16-236-36-106-35-160-80-285-247-55-73-90-113-125-147a437 437 0 0 0-251-127z" class="st1"/><path d="M1976 732a279 279 0 0 1 35-132 247 247 0 0 0-10 133c9 57 13 65 74 128 29 30 62 67 75 83l22 28-22-21c-27-25-89-74-103-81-9-5-10-5-17 2-5 5-6 12-6 50-1 58-9 94-28 131-11 20-12 16-3-6 6-17 8-25 8-80 0-112-13-139-92-184a955 955 0 0 0-107-55c3-2 79 20 109 33 45 18 52 19 58 18 3-4 6-14 7-47zm-907 193c-55-75-89-191-82-278l3-27 13 3c23 4 63 19 82 31 52 31 75 73 97 179 6 31 16 67 19 79 7 19 31 64 52 93 14 20 5 30-27 28-49-5-115-50-157-108zm842 560c-256-103-346-192-346-343l1-40c2 0 11 8 22 17 52 41 110 59 271 83 94 14 148 24 197 41 156 51 253 157 276 300 7 42 3 120-7 161-9 33-35 92-42 93-1 0-4-6-4-17-2-54-29-105-74-145-55-46-124-81-294-150zm-181 43c-3-20-9-44-13-54l-6-20 11 14c17 20 30 43 42 75 9 25 9 32 9 72 0 39-2 48-9 70-13 35-29 59-55 86-46 48-107 74-193 86l-98 7a759 759 0 0 0-236 40c-3-2 37-26 70-41 45-22 91-33 193-52 50-7 102-18 115-23 128-40 191-139 170-260z" class="st1"/><path d="M1847 1735c-33-73-41-143-23-208 3-7 5-13 8-13s10 3 18 9c15 10 48 28 130 73a659 659 0 0 1 205 151c36 44 58 94 68 156 7 35 3 118-6 153a380 380 0 0 1-214 261c-1 0 4-13 12-29 30-65 34-129 11-200-14-43-44-96-103-185-71-103-88-130-106-168zm-960 395c95-80 212-137 321-155 46-7 124-5 166 7 68 18 130 56 163 104 30 46 45 86 59 175l13 79c10 46 31 83 56 102 41 30 110 31 178 5 12-4 22-8 22-6 3 2-32 25-55 37-32 17-58 22-93 22-62 0-115-32-157-97-9-13-27-50-43-85-45-104-68-135-121-170-46-30-106-36-151-14a97 97 0 0 0-33 151c17 19 47 35 73 38 48 7 89-30 89-78 0-31-11-49-42-63-42-18-87 2-85 42 0 17 7 27 24 35 10 5 10 5 3 4-38-8-47-54-17-84 36-36 112-21 138 30 10 20 11 62 2 87-21 57-83 87-147 70-42-12-60-23-112-76-90-93-125-111-254-130l-24-4 27-26z" class="st1"/><path fill="#ff007a" fill-rule="evenodd" d="M209 55c300 365 763 933 786 964 19 25 12 50-20 68-18 10-56 21-74 21-21 0-45-11-62-28-11-11-62-85-175-261L503 570c-6-3-6-3 152 278 99 177 131 240 131 248 0 17-5 26-26 49-34 39-50 83-62 174-12 102-47 174-146 297-58 72-67 85-82 114-18 36-23 57-25 104-3 49 2 79 16 126 13 41 27 68 62 121 30 46 48 81 48 94 0 10 3 10 49 0 111-26 202-69 253-124 31-33 38-51 38-98 0-29-1-36-9-54-13-28-37-51-90-88-69-47-99-86-107-138-6-43 1-73 40-154 40-84 50-119 57-204 4-54 10-76 26-93 16-18 31-24 71-29 65-9 108-26 141-58 30-28 43-55 44-95l1-29-16-18C1008 923 169 0 165 0l44 55zm395 1834c15-25 7-55-16-71-22-14-56-8-56 12 0 5 3 10 11 12 11 7 12 13 3 28-9 14-9 27 3 36 18 14 43 6 55-17zm523-678c-31 9-61 42-70 76-5 20-3 58 6 69 15 18 28 24 64 24 71 0 131-31 138-69 6-31-21-73-58-93-20-10-60-14-80-7zm82 64c10-15 6-32-13-44-35-22-88-4-88 30 0 17 28 35 53 35 17 0 40-10 48-21z" clip-rule="evenodd"/></g></g></svg>