<svg xmlns="http://www.w3.org/2000/svg" viewBox="0 0 156 37"><g fill="#fff" fill-rule="evenodd"><path fill-rule="nonzero" d="m28 18.5-9 9h18zm-18 0-9-9v18zm18 0 9-9H19zm-9-9 9-9H10zm9 27 9-9H19zm-18 0 9-9H1z"/><path fill-rule="nonzero" d="m28 .5-9 9h18zm-27 9h18l-9-9zm18 18-9 9h18zm-9-9-9 9h18zm9-9H1l9 9z"/><path d="M47.5 21.8c.5 0 .8-.1 1-.4.3-.2.4-.6.4-1.1h3.3a4 4 0 0 1-1.3 3.1 5 5 0 0 1-3.4 1.2c-1.8 0-3.1-.6-4-1.6a6.2 6.2 0 0 1-1.5-4.3v-.2c0-1.7.5-3.1 1.4-4.2a5 5 0 0 1 4-1.7A5 5 0 0 1 51 14c1 .8 1.4 2 1.3 3.3H49c0-.4-.1-.9-.4-1.3-.2-.3-.6-.5-1-.5-.7 0-1.2.3-1.5.8-.3.8-.4 1.5-.4 2.3v.2c0 1 .1 1.8.4 2.3.3.5.8.8 1.5.8ZM60.2 16H59c-.4 0-.8 0-1 .2-.3.2-.5.3-.6.6v7.6h-3.6V12.9h3.4l.1 1.6c.2-.5.5-1 1-1.4a2.4 2.4 0 0 1 2.4-.3l-.4 3.2Zm6.8 3.3h.1l2-6.4h3.8L68.3 26a6 6 0 0 1-1.4 2c-.6.6-1.5.9-2.7.9h-.7l-1-.3.5-2.5h.4c.5 0 1 0 1.2-.2.3-.2.5-.4.6-.8l.3-.7-4-11.6h3.8l1.7 6.4Zm13.9-.7c0-1-.2-1.7-.4-2.3-.3-.6-.8-.9-1.4-.9-.4 0-.8 0-1 .2l-.7.7V21l.7.5c.3.2.7.2 1 .2.6 0 1.1-.3 1.4-.8.3-.7.4-1.4.4-2.2v-.2Zm3.6.2c0 1.8-.4 3.2-1.2 4.2-.8 1-2 1.6-3.3 1.6-1 0-2-.5-2.6-1.3v5.5h-3.6v-16h3.4l.1 1.3a3 3 0 0 1 2.7-1.5c1.4 0 2.5.6 3.3 1.7a7.3 7.3 0 0 1 1.2 4.3v.2Zm5.8-8.8v2.9h2v2.4h-2v5.3c0 .4.1.7.3.9.1.2.4.3.6.3l1.1-.1.2 2.6c-.7.2-1.4.3-2.2.3-1.1 0-2-.3-2.7-1-.6-.6-.9-1.6-.9-3v-5.3h-1.6V13h1.6v-3h3.6Zm6.5 8.7c0 1 .1 1.7.4 2.3.3.5.8.8 1.6.8.7 0 1.2-.3 1.5-.8a5 5 0 0 0 .4-2.3v-.2c0-.8 0-1.5-.4-2.2-.3-.6-.8-.9-1.6-.9-.7 0-1.2.3-1.5.9-.3.5-.4 1.3-.4 2.2v.2Zm-3.6-.2a6 6 0 0 1 1.4-4.2c1-1.1 2.4-1.7 4.1-1.7 1.8 0 3.2.6 4.1 1.7a6 6 0 0 1 1.5 4.2v.2a6 6 0 0 1-1.5 4.3c-1 1-2.3 1.6-4 1.6-1.8 0-3.2-.6-4.2-1.6a6 6 0 0 1-1.4-4.3v-.2Zm16-5.6.2 1.6a3.8 3.8 0 0 1 5.9-.8c.6.8 1 2 1 3.5v7.2h-3.7v-7.2c0-.6-.1-1.1-.4-1.4-.3-.2-.7-.4-1.2-.4a2 2 0 0 0-1.6.7v8.3H106V12.9h3.3Zm14 2.5c-.5 0-1 .2-1.2.6a3 3 0 0 0-.5 1.4h3.2v-.2c0-.6-.2-1-.4-1.3-.2-.3-.6-.5-1.1-.5Zm.2 9.2A5.3 5.3 0 0 1 118 19v-.4c0-1.8.4-3.2 1.3-4.3 1-1.1 2.3-1.7 4-1.7 1.5 0 2.8.5 3.7 1.5.9 1 1.4 2.4 1.3 3.7v2h-6.6c0 .6.3 1 .7 1.4.4.4 1 .6 1.6.6 1.1 0 2.2-.2 3.2-.7l.9 2.2-2 1c-.8.2-1.7.3-2.6.3Zm16.2-5 1.3-6.7h3.3l-2.7 11.5h-3l-1.9-6.1-2 6h-3L129 13h3.3l1.3 6.7 2-6.7h2.2l1.9 6.6Zm12 1.5c0-.3-.2-.5-.6-.7-.5-.3-1-.5-1.7-.6a7 7 0 0 1-3-1.3 2.3 2.3 0 0 1-1-2.2c0-1 .4-2 1.2-2.6.9-.7 2-1 3.5-1a6 6 0 0 1 3.6 1 3 3 0 0 1 1.3 2.6h-3.5c0-.4-.1-.7-.3-1-.3-.2-.6-.3-1.1-.3-.4 0-.7.1-1 .3a1 1 0 0 0 0 1.6 5 5 0 0 0 1.9.5c1 .2 2.2.6 3 1.3.8.6 1.1 1.4 1.1 2.3a3 3 0 0 1-1.4 2.6 6 6 0 0 1-3.6 1c-1.6 0-2.8-.4-3.8-1.2a3.5 3.5 0 0 1-1.3-2.7h3.3c0 .5.2 1 .5 1.1.3.3.8.4 1.4.4.4 0 .8 0 1-.3.3-.2.4-.4.4-.8Z"/></g></svg>