<svg xmlns="http://www.w3.org/2000/svg" viewBox="0 0 720 151"><g fill="none" stroke-width="2"><path stroke="#7526ef" d="M40 53q0 5-5 2l-8-6h-1l-1-1v6" vector-effect="non-scaling-stroke"/><path stroke="#591ee0" d="M40 72v-2l-1-1h-1l-12-6v-1q-1-1-1 1 0 1 0 0v-9" vector-effect="non-scaling-stroke"/><path stroke="#4919d7" d="M40 83v-4h-1l-4-1-3-2-6-4-1-2-1-12" vector-effect="non-scaling-stroke"/><path stroke="#280e7e" d="M43 41v13h-1v1" vector-effect="non-scaling-stroke"/><path stroke="#4814d3" d="m40 83-2 1v1l-11 17-1 1-2 1v3" vector-effect="non-scaling-stroke"/><path stroke="#541cdc" d="M57 45v1l-1 1v1l-7 9v1l1 2" vector-effect="non-scaling-stroke"/><path stroke="#872cfa" d="m105 73-1 1-4-3h-1v1q-6 4-10 9" vector-effect="non-scaling-stroke"/><path stroke="#7025ed" d="m77 56-5 5-2 3-2 3-1 2" vector-effect="non-scaling-stroke"/><path stroke="#7927f1" d="M54 90q2 0 3 3v12h3" vector-effect="non-scaling-stroke"/><path stroke="#511ab8" d="m94 86-8-1-9-1-3-1q-2 0-3-2" vector-effect="non-scaling-stroke"/><path stroke="#842bf8" d="M91 109v-1q-2 0-2-2l-5-7 1-1v-1" vector-effect="non-scaling-stroke"/><path stroke="#7927f1" d="M20 56v-6q0-2 0 0l-1 5v1H9v1q-1 1-1-1l-1-7" vector-effect="non-scaling-stroke"/><path stroke="#6d24eb" d="m67 122-3-1-5-7v-3" vector-effect="non-scaling-stroke"/><path stroke="#5e1fe2" d="M20 39v-6 8l-2-3h-1l-8-1-1 3q0 4 0 0v-4" vector-effect="non-scaling-stroke"/><path stroke="#4919d7" d="M20 21v1l-1-1H8v-2" vector-effect="non-scaling-stroke"/><path stroke="#3512cb" d="M38 138v-1l-2-1-5-9" vector-effect="non-scaling-stroke"/></g><path fill="#892cfa" d="m41 36-1 17q0 5-5 2l-8-6h-1l-1-1v6V5l104 62v14L42 30h-1v6Z"/><path fill="#3f15d1" d="M20 21v1l-1-1H8v-3l12-9v12Z"/><path fill="#521cdc" d="M8 19v2h11l1 1v-1 18-6 8l-2-3h-1l-8-1-1 3q0 4 0 0V19Z"/><path fill="#333" d="M182 83v12q0 5 2 7t6 2l34 1v15h-39l-8-1-7-4-5-7-1-11V30l1-1h57q3 0 2 2v14h-41l-1 1v21h29l-1 14-1 2h-27Zm95-37v74l-1 1h-17V46l-1-1h-23l-1-1V30l2-1h65v15l-1 1h-23v1Zm55 62v10q0 3-2 3h-2l-14-1V30l1-1h15q2 0 2 2v37h32l1-1V30l1-1h17v92l-17-1h-1V84h-33v24Zm149-10V38q-1-5-6-6h-6l-1-1v-1l1-1h30q2 0 2 2l-2 1q-9-1-11 6v10l-1 74v1q-2 1-3-1l-59-72q-1-1-1 1v61q1 4 3 5 3 2 8 2l2 1q1 2-2 2h-29l-1-1v-2h6q5-1 6-6l1-11V43l-1-2q-7-9-17-9v-3h23l3 1 53 66 1 2h1Z"/><path fill="#6922e8" d="M20 39v17-6q0-2 0 0l-1 5v1H9v1q-1 1-1-1l-1-7 1-13v4q0 4 0 0l1-3 8 1h1l2 3v-8 6Z"/><path fill="#1f0b65" d="M41 36h1l1 5v13h-1v1h-1l-1-2 1-17Z"/><path fill="#4718d5" d="m42 36 15 9v1l-1 1v1l-7 9v1l1 2-2-2-5-17-1-5Z"/><path fill="#301097" d="m43 41 5 17-6-3v-1h1V41Z"/><path fill="#6020e3" d="m57 45 20 11-5 5-2 3-2 3-1 2-17-9-1-2v-1l7-9v-1l1-1v-1Zm-17 8 1 2-1 17v-2l-1-1h-1l-12-6v-1q-1-1-1 1 0 1 0 0V48l1 1h1l8 6q5 3 5-2Z"/><path fill="#892cfa" d="m20 56-1 53h1l4-2 16-9 14-8q2 0 3 3v12h3L6 134q0 1 0 0l1-85 1 7q0 2 1 1v-1h10v-1l1-5q0-2 0 0v6Z"/><path fill="#521cdc" d="M25 54v9q0 1 0 0 0-2 1-1v1l12 6h1l1 1v13-4h-1l-4-1-3-2-6-4-1-2-1-12 1-4Z"/><path fill="#802af6" d="m77 56 28 17-1 1-4-3h-1v1q-6 4-10 9l-10-5-12-7 1-2 2-3 2-3 5-5Z"/><path fill="#333" d="M708 58q2-2 2 1l1 17-1 1q-1 4-2 1l-1-2-2-5q-4-10-15-10-5 1-8 5-2 2-1 5 0 3 2 5l7 5 11 6q4 1 7 4 4 3 5 6 4 8 0 16-3 5-8 8-6 3-13 2-8 0-12-2-3-1-5 1t-2-1v-21q2 0 2 2l3 8q5 8 15 9 6 1 10-3 2-3 2-7 0-5-4-7l-12-8-7-4-6-4q-4-6-3-12 0-8 6-12 6-5 14-5l9 2q3 2 6-1ZM518 83q-1 13 7 22 4 5 10 7 6 1 12-1l7-5 4-7 1-1q1-1 1 1v1q-1 9-8 17-8 7-18 7-9-1-15-7-11-9-11-22v-7q0-9 4-16 3-6 10-11 9-5 19-3 9 2 14 8t6 16l-1 1h-42Zm3-15q-3 4-4 10l1 1h27l1-1q0-6-3-10-3-5-9-6-7-1-13 6Z"/><path fill="#3f15d1" d="m24 58 1 12 1 2 6 4 3 2 4 1h1v4l-2 1v1l-11 17-1 1-2 1v3-49Z"/><path fill="#333" d="m606 63-3-1h-2q-2-2 0-2l2-1h26l1 1q1 2-1 2-9 0-6 9l13 33q1 2 1 0l12-32 2-6q0-3-2-3l-3-1-1-1v-1l1-1h17l1 1v1l-1 1q-5 2-7 8l-21 52-1 2-2-1-1-1-14-37h-1l-18 38q0 2-2 0h-1l-18-48-3-8q-3-4-8-5v-2l1-1h24l1 1v1l-2 1q-6 1-4 8l14 35q0 2 1 0l12-26v-2l-5-11-2-3Z"/><path fill="#8e2efd" d="m105 73 23 13v2l-37 21v-1q-2 0-2-2l-5-7 1-1v-1l15-8v-1l-5-3-6-4q4-5 10-9v-1h1l4 3 1-1Z"/><path fill="#381288" d="m79 76 10 5 6 4-1 1-8-1-9-1-3-1q-2 0-3-2l8-5Z"/><path fill="#6922e8" d="M71 81q1 2 3 2l3 1 9 1 8 1-34 19h-3V93q-1-3-3-3l17-9Z"/><path fill="#5112d5" d="M40 83v15l-16 9v-3l2-1 1-1 11-17v-1l2-1Z"/><path fill="#7928f2" d="M85 97v1l-1 1 5 7q0 2 2 2v1l-24 13-3-1-5-7v-3l26-14Z"/><path fill="#010101" d="M115 102q-2-1 0-1h1q3-1 0 1h-1Zm5 2v-2l1-1v5h-1v-2Z"/><ellipse fill="#010101" rx="2.1" ry=".8" transform="rotate(104 22 101)"/><ellipse fill="#010101" rx="1.3" ry=".4" transform="rotate(91 7 109)"/><circle cx="123.1" cy="105.8" r=".9" fill="#010101"/><path fill="#010101" d="M126 105v1s0 1 0 0h-1l1-1Z"/><path fill="#6020e3" d="M59 111v3l5 7 3 1-14 8-7-12 13-7Z"/><path fill="#3f15d1" d="m46 118 7 12-15 8v-1l-2-1-5-9 15-9Z"/><path fill="#2a0fc5" d="m31 127 5 9 2 1v1l-13 8h-1l-12-8v-1l19-10Z"/></svg>