<svg xmlns="http://www.w3.org/2000/svg" viewBox="0 0 49 52"><g fill="none" fill-rule="evenodd"><path fill="#0E8977" fill-opacity=".3" fill-rule="nonzero" d="M24.3 0h.4c1 0 2 .3 3 .8 1.6.8 3 2.2 4 3.6a21.6 21.6 0 0 1 2.2 4A33.7 33.7 0 0 1 41 7c1.7 0 3.6.3 5.1 1.2a6 6 0 0 1 2.2 2.3c.9 1.8.7 4 .1 5.8a29.2 29.2 0 0 1-6.3 9.7 34 34 0 0 1 6.1 9.2c.5 1.4.9 3 .6 4.5a5.6 5.6 0 0 1-2 3.6 8.2 8.2 0 0 1-5 1.6c-1.6.1-3.3-.1-4.9-.5a33.7 33.7 0 0 1-3.2-.8c0 .1 0 .3-.2.4-.6 1.4-1.3 2.7-2.2 4a9.9 9.9 0 0 1-4 3.3 7 7 0 0 1-2.7.7h-.4c-1.2 0-2.4-.4-3.4-1s-1.7-1.2-2.4-2a19.4 19.4 0 0 1-3.4-5.4 29 29 0 0 1-8 1.3c-2 0-4-.6-5.4-2A5.7 5.7 0 0 1 0 39v-.5c0-.9.2-1.7.5-2.5.3-1 .7-2.1 1.3-3.1a32.8 32.8 0 0 1 5-6.8c-2-2-3.7-4.4-5-6.8A15.2 15.2 0 0 1 0 13.6V13l.1-1a5.7 5.7 0 0 1 2.4-3.7 8.3 8.3 0 0 1 4-1.3h2.6a28.2 28.2 0 0 1 6 1.3c.7-1.4 1.4-2.8 2.3-4 1.1-1.6 2.6-3 4.4-3.8a7 7 0 0 1 2.5-.6Z"/><path fill="#00F4D0" fill-rule="nonzero" d="M24.3 0h.4c1 0 2 .3 3 .8 1.6.8 3 2.2 4 3.6a21.6 21.6 0 0 1 2.2 4A33.7 33.7 0 0 1 41 7c1.7 0 3.6.3 5.1 1.2a6 6 0 0 1 2.2 2.3c.9 1.8.7 4 .1 5.8a29.2 29.2 0 0 1-6.3 9.7 34 34 0 0 1 6.1 9.2c.5 1.4.9 3 .6 4.5a5.6 5.6 0 0 1-2 3.6 8.2 8.2 0 0 1-5 1.6c-1.6.1-3.3-.1-4.9-.5a33.7 33.7 0 0 1-3.2-.8c0 .1 0 .3-.2.4-.6 1.4-1.3 2.7-2.2 4a9.9 9.9 0 0 1-4 3.3 7 7 0 0 1-2.7.7h-.4c-1.2 0-2.4-.4-3.4-1s-1.7-1.2-2.4-2a19.4 19.4 0 0 1-3.4-5.4 29 29 0 0 1-8 1.3c-2 0-4-.6-5.4-2A5.7 5.7 0 0 1 0 39v-.5c0-.9.2-1.7.5-2.5.3-1 .7-2.1 1.3-3.1a32.8 32.8 0 0 1 5-6.8c-2-2-3.7-4.4-5-6.8A15.2 15.2 0 0 1 0 13.6V13l.1-1a5.7 5.7 0 0 1 2.4-3.7 8.3 8.3 0 0 1 4-1.3h2.6a28.2 28.2 0 0 1 6 1.3c.7-1.4 1.4-2.8 2.3-4 1.1-1.6 2.6-3 4.4-3.8a7 7 0 0 1 2.5-.6Zm.3 4c-2.3-.4-4.2 2-5.2 3.5a19.8 19.8 0 0 0-1.4 2.7 69.8 69.8 0 0 1 6 2.8 69.7 69.7 0 0 1 6-2.9A19.8 19.8 0 0 0 27.3 6a5.4 5.4 0 0 0-2.7-2ZM3 14.3l.8 2.3 1.4 2.3A37.3 37.3 0 0 0 9.5 24a73.6 73.6 0 0 1 2.8-2.4 52.7 52.7 0 0 1 1.7-9.4A31.4 31.4 0 0 0 6.6 11a7 7 0 0 0-2.4.4l-.6.4c-.7.6-.7 1.6-.5 2.4Zm31.9-2a56.2 56.2 0 0 1 1.6 9.5 70 70 0 0 1 2.5 2.3 35.2 35.2 0 0 0 5.4-8.2 8 8 0 0 0 .5-2.6c0-.6-.1-1-.5-1.4l-1-.5c-.5-.2-1.1-.3-1.8-.3l-2.1.1a26.3 26.3 0 0 0-4.6 1.2Zm-18.1 1A47.9 47.9 0 0 0 16 17a108.6 108.6 0 0 1 4-2.6 70.1 70.1 0 0 0-3.1-1.2ZM32 17a46.5 46.5 0 0 0-1-4 70 70 0 0 0-3 1.4 96.9 96.9 0 0 1 4 2.6Zm1.1 12a53 53 0 0 0 0-6.1 76.1 76.1 0 0 0-8.5-5.8 76 76 0 0 0-8.5 5.8 54.3 54.3 0 0 0 0 6.2 76 76 0 0 0 8.5 5.8 76 76 0 0 0 8.5-5.8ZM10 41.7a28.8 28.8 0 0 0 3-.9 55 55 0 0 1-1.6-9.4A69.2 69.2 0 0 1 8.9 29a36.1 36.1 0 0 0-5.2 7.7 11 11 0 0 0-.5 1.8C3 39 3 39.5 3 40s.2 1 .6 1.3c.5.4 1.2.5 1.8.6h2l2.6-.3Zm36-2.4a6 6 0 0 0-.4-2.5 19 19 0 0 0-2.2-4.4 38.4 38.4 0 0 0-3.3-4.3 69.6 69.6 0 0 1-2.5 2.4 55.7 55.7 0 0 1-1.6 9.4 26.5 26.5 0 0 0 6.7 1.2l1.7-.2c.5-.2 1.2-.5 1.4-1l.2-.6ZM31 39a49.6 49.6 0 0 0 1-4 100 100 0 0 1-4 2.6 70.5 70.5 0 0 0 3 1.4Zm-15-3.6a58.5 58.5 0 0 0 1 3.6 71.6 71.6 0 0 0 3-1.4 98.4 98.4 0 0 1-4-2.6v.4ZM23.7 49c1.3.1 2.5-.6 3.4-1.5a13 13 0 0 0 2.2-3 23 23 0 0 0 .8-1.7 72 72 0 0 1-6-2.8 71.7 71.7 0 0 1-6 2.9c.4.8.8 1.7 1.3 2.4.6 1 1.4 2 2.3 2.7.6.5 1.3.9 2 1Z"/><path fill="#0E8977" stroke="#00F4D0" stroke-width="1.8" d="M28 26a3.5 3.5 0 1 1-7 0 3.5 3.5 0 0 1 7 0Z"/></g></svg>