<svg xmlns="http://www.w3.org/2000/svg" width="131" height="136" viewBox="0 0 131 136">
    <g fill="none" fill-rule="evenodd">
        <g>
            <g>
                <g>
                    <path fill="#0B76FF" d="M45.324 0l45.307 78.075H0L45.324 0zm-.004 25.79L22.354 65.238h45.922L45.32 25.79z" transform="translate(-1027 -183) translate(1027 183) translate(20.017 15.896)"/>
                    <path fill="#00E3C2" d="M45.324 25.905l45.307 78.075H0l45.324-78.075zm-.004 25.79L22.354 91.142h45.922L45.32 51.696z" style="mix-blend-mode:lighten" transform="translate(-1027 -183) translate(1027 183) translate(20.017 15.896) rotate(-180 45.315 64.942)"/>
                </g>
                <g>
                    <path fill="#25C0FF" d="M45.324 0l45.307 78.075H0L45.324 0zm-.004 25.79L22.354 65.238h45.922L45.32 25.79z" transform="translate(-1027 -183) translate(1027 183) rotate(-30 85.005 22.7)"/>
                    <path fill="#FF51FF" d="M45.324 25.905l45.307 78.075H0l45.324-78.075zm-.004 25.79L22.354 91.142h45.922L45.32 51.696z" style="mix-blend-mode:lighten" transform="translate(-1027 -183) translate(1027 183) rotate(-30 85.005 22.7) rotate(-180 45.315 64.942)"/>
                </g>
            </g>
        </g>
    </g>
</svg>
