<svg xmlns="http://www.w3.org/2000/svg" viewBox="0 0 57 40"><defs><linearGradient id="a" x1="0%" x2="100%" y1="50%" y2="50%"><stop offset="0%" stop-color="#24C1FF"/><stop offset="49%" stop-color="#24C1FF"/><stop offset="49%" stop-color="#0B76FF"/><stop offset="100%" stop-color="#0B76FF"/></linearGradient><linearGradient id="b" x1="0%" x2="100%" y1="50%" y2="50%"><stop offset="0%" stop-color="#6BFFFA"/><stop offset="50%" stop-color="#6BFFFA"/><stop offset="50%" stop-color="#00E2C2"/><stop offset="100%" stop-color="#00E2C2"/></linearGradient><linearGradient id="c" x1="0%" x2="54.8%" y1="50.2%" y2="50.2%"><stop offset="0%" stop-opacity="0"/><stop offset="100%" stop-color="#FFF"/></linearGradient><linearGradient id="d" x1="99.4%" x2="35.8%" y1="49.8%" y2="49.8%"><stop offset="0%" stop-opacity="0"/><stop offset="100%" stop-color="#FF51FF"/></linearGradient><linearGradient id="e" x1="100.4%" x2="48.9%" y1="50.1%" y2="50.1%"><stop offset="0%" stop-opacity="0"/><stop offset="100%" stop-color="#A18CFF"/></linearGradient><linearGradient id="f" x1="99.9%" x2="41.1%" y1="50.2%" y2="50.2%"><stop offset="0%" stop-opacity="0"/><stop offset="100%" stop-color="#AB38E6"/></linearGradient></defs><g fill="none"><path fill="url(#a)" d="m28 0 24 40H4L28 0Zm0 13L17 33h22L28 13Z"/><path fill="url(#b)" d="m28 18 8 13H21z"/><path fill="url(#c)" d="m0 13 28 13v1L0 21z" class="ray"/><path fill="url(#d)" d="M57 9 28 26l29-12z" class="ray"/><path fill="url(#e)" d="m57 25-29 2 29-7z" class="ray"/><path fill="url(#f)" d="M57 14 28 26v1l29-7z" class="ray"/></g></svg>