<svg xmlns="http://www.w3.org/2000/svg" viewBox="0 0 428 445"><defs><linearGradient id="a" x1="50%" x2="50%" y1="9%" y2="88.5%"><stop offset="0%" stop-color="#0073FF"/><stop offset="32.6%" stop-color="#0073FF" stop-opacity=".1"/><stop offset="100%" stop-color="#0073FF" stop-opacity=".1"/></linearGradient><linearGradient id="b" x1="0%" x2="100%" y1="98.3%" y2="98.3%"><stop offset="0%" stop-color="#0073FF"/><stop offset="18.6%" stop-color="#0073FF" stop-opacity="0"/><stop offset="85.2%" stop-color="#0073FF" stop-opacity="0"/><stop offset="100%" stop-color="#0073FF"/></linearGradient><linearGradient id="c" x1="50%" x2="50%" y1="9.6%" y2="102%"><stop offset="0%" stop-color="#00E8C1" stop-opacity=".5"/><stop offset="26.8%" stop-color="#00E8C1" stop-opacity=".1"/><stop offset="80.3%" stop-color="#00E8C1" stop-opacity=".1"/><stop offset="100%" stop-color="#00E8C1" stop-opacity=".3"/></linearGradient><linearGradient id="d" x1="1.4%" x2="96.8%" y1="97.6%" y2="97.6%"><stop offset="0%" stop-color="#00E8C1" stop-opacity=".7"/><stop offset="19.9%" stop-color="#00E8C1" stop-opacity="0"/><stop offset="80.3%" stop-color="#00E8C1" stop-opacity="0"/><stop offset="100%" stop-color="#00E8C1" stop-opacity=".7"/></linearGradient><linearGradient id="e" x1="79.7%" x2="33.8%" y1="32.4%" y2="98.3%"><stop offset="0%" stop-color="#00C2FF"/><stop offset="12.8%" stop-color="#00C2FF" stop-opacity=".1"/><stop offset="82.3%" stop-color="#00C2FF" stop-opacity=".1"/><stop offset="100%" stop-color="#00C2FF" stop-opacity=".4"/></linearGradient><linearGradient id="f" x1="94.9%" x2="85.3%" y1="85.6%" y2="80.5%"><stop offset="0%" stop-color="#00C2FF" stop-opacity=".7"/><stop offset="100%" stop-color="#00C2FF" stop-opacity="0"/></linearGradient><linearGradient id="g" x1="64.7%" x2="25.1%" y1="28.5%" y2="89.3%"><stop offset="0%" stop-color="#FF39FF" stop-opacity=".7"/><stop offset="30.9%" stop-color="#F0F" stop-opacity=".1"/><stop offset="77%" stop-color="#F0F" stop-opacity=".1"/><stop offset="100%" stop-color="#FF31FF"/></linearGradient><linearGradient id="h" x1="76.3%" x2="86.4%" y1="75.8%" y2="80.8%"><stop offset="0%" stop-color="#F0F" stop-opacity="0"/><stop offset="100%" stop-color="#FF2CFF" stop-opacity=".7"/></linearGradient></defs><g fill="none" fill-rule="evenodd" stroke-width="10" opacity=".5"><path stroke="url(#a)" d="m202 49 140 242H61z" transform="translate(13 13)"/><path stroke="url(#b)" d="m202 49 140 242H61z" transform="translate(13 13)"/><path stroke="url(#c)" d="m202 129 140 242H61z" style="mix-blend-mode:lighten" transform="rotate(-180 208 256)"/><path stroke="url(#d)" d="m202 129 140 242H61z" style="mix-blend-mode:lighten" transform="rotate(-180 208 256)"/><path stroke="url(#e)" d="m182 54 140 242H42z" transform="rotate(-30 212 158)"/><path stroke="url(#f)" d="m182 54 140 242H42z" transform="rotate(-30 212 158)"/><path stroke="url(#g)" d="m221 124 140 242H81z" style="mix-blend-mode:lighten" transform="rotate(150 226 253)"/><path stroke="url(#h)" d="m221 124 140 242H81z" style="mix-blend-mode:lighten" transform="rotate(150 226 253)"/></g></svg>