<svg xmlns="http://www.w3.org/2000/svg" viewBox="0 0 57 40"><defs><linearGradient id="a" x1="0%" x2="54.8%" y1="50.2%" y2="50.2%"><stop offset="0%" stop-opacity="0"/><stop offset="100%" stop-color="#FFF"/></linearGradient><linearGradient id="b" x1="99.4%" x2="35.8%" y1="49.8%" y2="49.8%"><stop offset="0%" stop-opacity="0"/><stop offset="100%" stop-color="#FF51FF"/></linearGradient><linearGradient id="c" x1="100.4%" x2="48.9%" y1="50.1%" y2="50.1%"><stop offset="0%" stop-opacity="0"/><stop offset="100%" stop-color="#A18CFF"/></linearGradient><linearGradient id="d" x1="99.9%" x2="41.1%" y1="50.2%" y2="50.2%"><stop offset="0%" stop-opacity="0"/><stop offset="100%" stop-color="#AB38E6"/></linearGradient></defs><g fill="none"><path fill="#0B76FF" d="M28 33h12L28 13V0l24 40H28z"/><path fill="#24C1FF" d="M28 33H17l11-20V0L5 40h23z"/><path fill="#39FFF2" d="M28 18v13h-7z"/><path fill="#00E2C2" d="M28 18v13h8z"/><path fill="url(#a)" d="m0 13 28 13v1L0 21z"/><path fill="url(#b)" d="M57 9 28 26l29-12z"/><path fill="url(#c)" d="m57 25-29 2 29-7z"/><path fill="url(#d)" d="M57 14 28 26v1l29-7z"/></g></svg>