<svg xmlns="http://www.w3.org/2000/svg" viewBox="0 0 169 29"><path fill="#fff" d="M4 7h4.6c2.1 0 3.6.3 4.6 1 1 .5 1.4 1.5 1.4 2.8 0 .9-.2 1.6-.6 2.2-.4.6-1 1-1.7 1v.1c1 .3 1.7.6 2 1.2.5.6.7 1.4.7 2.3a4 4 0 0 1-1.5 3.3c-1 .7-2.3 1.1-4 1.1H4V7Zm3 6h1.7c.8 0 1.4-.1 1.8-.4.3-.2.5-.6.5-1.2 0-.5-.2-.8-.6-1-.4-.3-1-.4-1.8-.4H7v3Zm0 2v4h2.2c1 0 1.7-.2 2.1-.5.5-.4.7-.9.7-1.6 0-1.3-1-1.9-2.9-1.9H7Zm15-2c-.6 0-1 .2-1.4.5A2 2 0 0 0 20 15h4a2 2 0 0 0-.6-1.5A2 2 0 0 0 22 13Zm.6 9c-1.8 0-3.1-.5-4.1-1.5A6 6 0 0 1 17 16c0-2 .5-3.5 1.4-4.5.9-1 2.1-1.6 3.7-1.6s2.8.5 3.6 1.4c.9 1 1.3 2.2 1.3 3.9v1.5h-7c0 .9.3 1.6.7 2 .5.6 1.2.8 2 .8a7.7 7.7 0 0 0 3.7-.9v2.5c-.5.3-1 .5-1.7.6l-2.1.2ZM40 22h-3v-6.9c0-.8 0-1.5-.4-1.9-.2-.4-.7-.6-1.3-.6a2 2 0 0 0-1.8.9 6 6 0 0 0-.5 3V22h-3V10.2h2.3l.4 1.5h.1c.3-.5.8-1 1.4-1.3.6-.3 1.2-.4 2-.4 1.2 0 2.2.4 2.8 1.1.7.8 1 1.8 1 3.2V22Zm8-2.5c.6 0 1.2 0 2-.3v2.3c-.8.3-1.7.5-2.9.5s-2.2-.3-2.7-1c-.6-.6-.9-1.5-.9-2.8v-5.4H42v-1.4l1.7-1 1-2.4h2v2.4h3.2v2.4h-3.3v5.4c0 .5.2.8.4 1 .3.2.6.3 1 .3ZM63 22h-3v-6.7c0-1.7-.5-2.5-1.7-2.5a2 2 0 0 0-1.8.9c-.4.6-.5 1.6-.5 2.9V22h-3V6h3v3.3l-.1 1.7v1a3.6 3.6 0 0 1 3.2-1.7c1.3 0 2.3.4 3 1 .6.8.9 1.8.9 3.2V22Zm9.9-.2-.6-1.6h-.1c-.5.7-1 1.2-1.6 1.4a5 5 0 0 1-2.1.4c-1.1 0-2-.3-2.6-1-.6-.6-.9-1.5-.9-2.7 0-1.2.4-2 1.2-2.7a7 7 0 0 1 3.8-1h2v-.5c0-1.2-.6-1.8-1.8-1.8-.9 0-2 .3-3.1.9L66 11c1.2-.7 2.7-1 4.2-1s2.7.3 3.5 1c.8.7 1.2 1.7 1.2 3v7.8h-2.1ZM72 17h-1.2c-1 0-1.7.2-2.1.5-.5.3-.7.7-.7 1.3 0 .8.5 1.2 1.6 1.2.7 0 1.3-.2 1.7-.6.5-.4.7-.9.7-1.5V17Zm17 5h-3v-6.9c0-.8-.2-1.5-.4-1.9-.3-.4-.7-.6-1.3-.6-.8 0-1.4.3-1.7.9-.4.6-.5 1.6-.5 3V22H79V10.2h2.3l.4 1.5h.2c.3-.5.7-1 1.3-1.2a4 4 0 0 1 2-.5c1.6 0 2.8.6 3.4 1.7h.2c.3-.5.8-1 1.4-1.2.6-.3 1.2-.5 2-.5 1.2 0 2.2.3 2.8 1 .7.7 1 1.8 1 3.3V22h-3v-6.9c0-.8-.2-1.5-.5-1.9-.2-.4-.7-.6-1.2-.6-.8 0-1.4.3-1.7.8a5 5 0 0 0-.6 2.7V22Zm13-15 .1.2c-.3 1.3-1 3-1.8 4.8H98l1-5h2.9Zm10 11.4c0 1.1-.4 2-1.3 2.7-.8.6-2 .9-3.8.9-.8 0-1.6 0-2.2-.2-.6 0-1.1-.3-1.7-.5v-2.6a11.5 11.5 0 0 0 4 1c1.2 0 1.8-.3 1.8-1 0-.3 0-.5-.2-.6l-.8-.5-1.6-.7-2-1a3 3 0 0 1-1-1.2l-.2-1.5c0-1 .4-1.8 1.2-2.4a6 6 0 0 1 3.5-.8c1.4 0 2.8.3 4.2 1l-1 2.2-1.7-.6c-.5-.2-1-.3-1.6-.3-1 0-1.4.3-1.4.8 0 .3.2.5.5.7l2 1a6 6 0 0 1 3 2c.2.5.3 1 .3 1.6Zm13.2-4.8h5.8v7.6a16.4 16.4 0 0 1-5.2.8c-2.2 0-3.9-.6-5-2-1.2-1.2-1.8-3-1.8-5.5 0-2.4.7-4.2 2-5.5 1.4-1.3 3.2-2 5.6-2 1.5 0 3 .3 4.4.9l-1 2.5a6.8 6.8 0 0 0-3.4-.8 4 4 0 0 0-3.2 1.3c-.8 1-1.2 2.1-1.2 3.6 0 1.6.3 2.8 1 3.7.6.8 1.6 1.2 2.8 1.2.6 0 1.3 0 2-.2v-3h-2.8v-2.6Zm16.7 8.2-.6-1.6h-.1c-.5.7-1 1.2-1.6 1.4a5 5 0 0 1-2.1.4c-1.1 0-2-.3-2.6-1-.6-.6-.9-1.5-.9-2.7 0-1.2.4-2 1.2-2.7a7 7 0 0 1 3.8-1h2v-.5c0-1.2-.6-1.8-1.8-1.8-.9 0-2 .3-3.1.9l-1-2.2c1.2-.7 2.7-1 4.2-1s2.7.3 3.5 1c.8.7 1.2 1.7 1.2 3v7.8h-2.1ZM141 17h-1.2c-1 0-1.7.2-2.1.5-.5.3-.7.7-.7 1.3 0 .8.5 1.2 1.6 1.2.7 0 1.3-.2 1.7-.6.5-.4.7-.9.7-1.5V17Zm14 5h-9v-1.8l5.3-7h-5V11h8.5v2l-5.1 6.7h5.3V22Zm7-9c-.6 0-1 .2-1.4.5a2 2 0 0 0-.6 1.5h4a2 2 0 0 0-.6-1.5 2 2 0 0 0-1.4-.5Zm-.4 9c-1.8 0-3.1-.5-4.1-1.5A6 6 0 0 1 156 16c0-2 .5-3.5 1.4-4.5.9-1 2.1-1.6 3.7-1.6s2.8.5 3.6 1.4c.9 1 1.3 2.2 1.3 3.9v1.5h-7c0 .9.3 1.6.7 2 .5.6 1.2.8 2 .8a7.7 7.7 0 0 0 3.7-.9v2.5c-.5.3-1 .5-1.7.6l-2.1.2Z"/></svg>