<svg xmlns="http://www.w3.org/2000/svg" viewBox="0 0 375 150"><g fill="none" stroke-width="2"><path stroke="#00a472" stroke-opacity=".753" d="m42.25 50.29.06 15.25c0 .67.57 1.2 1.24 1.15q7.61-.53 15.2.1M42.5 83.21l-.24-15.56c-.01-.51-.44-.92-.97-.93l-15.5-.22" vector-effect="non-scaling-stroke"/><path stroke="#00a876" stroke-opacity=".624" d="M42.5 83.21q-.41-.02-.5.25" vector-effect="non-scaling-stroke"/><path stroke="#00a472" stroke-opacity=".753" d="m42 83.46-15.44.1c-.29 0-.53.22-.57.51q-1.08 7.82.01 15.64" vector-effect="non-scaling-stroke"/><path stroke="#00a876" stroke-opacity=".624" d="M25.79 66.5q-.06.23-.29.29" vector-effect="non-scaling-stroke"/><path stroke="#00a472" stroke-opacity=".753" d="m25.5 66.79-.06 16.14c0 .29-.23.52-.5.51l-16.4-.19" vector-effect="non-scaling-stroke"/></g><path fill="#016244" fill-opacity=".506" d="m42.25 50.29.06 15.25c0 .67.57 1.2 1.24 1.15q7.61-.53 15.2.1L58.96 83q-.48.76-1.36.66-1.11-.14-1.22-.13-6.95.27-13.88-.32l-.24-15.56c-.01-.51-.44-.92-.97-.93l-15.5-.22-.04-16.21h16.5Zm-.49 12.68.07-9.4q0-.42.19-.96.2-.61-.21-.76c-.23-.08-.47.15-.47.46l.17 11.19c0 .16.08.3.21.35q.46.17.17-.36-.13-.24-.13-.52Z"/><path fill="#00c58a" d="M58.75 66.79q-7.59-.63-15.2-.1c-.67.05-1.24-.48-1.24-1.15l-.06-15.25 15.05-.21c.82-.01 1.51.66 1.57 1.52q.46 7.14-.12 15.19Z"/><path fill="#013122" fill-opacity=".243" d="m25.75 50.29.04 16.21q-.06.23-.29.29-8.48-.64-16.96-.04l.16-14.87c.01-.9.78-1.63 1.72-1.63l15.33.04Z"/><path fill="#016244" fill-opacity=".506" d="M41.89 63.49q.29.53-.17.36c-.13-.05-.21-.19-.21-.35l-.17-11.19c0-.31.24-.54.47-.46q.41.15.21.76-.19.54-.19.96l-.07 9.4q0 .28.13.52Z"/><path fill="#121721" d="M98.36 75.12q3.39 2.28 3.81 6.39.82 8.09-5.67 11.74-4.33 2.44-10.5 2.36-8.5-.11-17.01-.11c-.51 0-.92-.42-.92-.94l-.01-40.26c0-.3.23-.54.51-.55q8.8-.44 17.68 0 3.91.19 6.72.81 3.76.83 5.84 3.09 3.23 3.49 1.92 8.99-1.17 4.87-5.53 5.92-2 .49-.03 1.09 1.87.57 3.19 1.47ZM87.55 60.31q-4.23-.65-9.49-.18c-.45.04-.8.42-.81.88l-.06 8.81c0 .28.22.51.5.53q4.52.29 9.06.19 4.75-.1 5.5-4.29.45-2.53-1.1-4.27-1.15-1.3-3.6-1.67Zm2.95 17.54c-.95-.58-1.91-.9-2.78-.91l-9.75-.17c-.49-.01-.89.43-.88.97l.16 10.55c.01.53.43.96.94.96h5.86q4.12 0 5.8-.69 4.56-1.89 2.9-8.1-.4-1.48-2.25-2.61Z"/><rect width="9.12" height="8.22" x="-4.56" y="-4.11" fill="#121721" rx=".97" transform="translate(108.94 57.63)"/><rect width="9.12" height="8.22" x="-4.56" y="-4.11" fill="#121721" rx="1.02" transform="translate(206.32 57.63)"/><path fill="#121721" d="M128.51 71.57q-.59 5.93-.13 11.87.01.12.04 2.61.04 4.81 6.1 3.24c.43-.11.86.16.95.59q.88 4.31-1.26 5.46-.92.49-4.46.68-6.16.34-8.92-4.49-1.33-2.32-1.33-6.83V72.19c0-.79-.74-1.37-1.51-1.19q-1.16.28-2.04-.27c-.24-.15-.39-.45-.41-.79q-.09-1.97-.14-3.94-.04-1.75 2.5-1.08c.78.21 1.55-.36 1.56-1.15l.04-6.06c0-.39.31-.71.69-.71h7.07c.63 0 1.14.54 1.13 1.19l-.13 5.7c-.01.49.42.89.97.9l5.83.09c.3.01.55.24.6.55q.43 2.48-.21 4.91c-.08.29-.34.5-.64.51l-5.75.22c-.29.01-.52.22-.55.5Zm24.81 18.57q4.36-.57 4.94-5.57c.04-.33.27-.57.54-.58l7.48-.19c.31-.01.54.29.48.61q-1.28 7.73-8.32 10.78-5.32 2.3-11.76.13-7.43-2.52-9.24-10.51-1.12-4.89-.15-9.16 2.02-8.99 10.98-11.09 3.64-.85 7.22-.33 3.94.58 6.44 2.73 3.07 2.63 4.26 7.28c.2.76-.38 1.51-1.18 1.51h-5.83c-.57 0-1.07-.4-1.19-.95q-.66-2.94-2.8-4.11-2.02-1.1-4.46-.36-3.19.96-4.1 4.75-.67 2.8-.61 5.64.08 3.75.74 5.51.78 2.04 2.71 3.17 1.75 1.02 3.85.74Zm46.387-8.113c-.017 7.813-6.357 14.133-14.165 14.115l-2.74-.004c-7.812-.018-14.132-6.358-14.115-14.165l.006-3.76c.017-7.813 6.357-14.133 14.165-14.115l2.74.004c7.812.018 14.132 6.358 14.115 14.165l-.006 3.76ZM185.53 70.17q-4.97-1.35-6.97 3.89-2.06 5.42-.16 11.45.88 2.78 2.97 4 2.9 1.68 5.55.15 2.72-1.56 3.47-5.46.65-3.4.11-7.45-.34-2.51-1.47-4.21-1.16-1.73-3.5-2.37Zm36.28-2.56q-.44 1.04.43.32 3.69-3 7.04-3.47 8.06-1.13 11.26 4.29 1.7 2.89 1.88 10.32.18 7.35.06 15.31c-.01.6-.47 1.08-1.03 1.07l-7.27-.09c-.28-.01-.5-.25-.51-.55q-.27-8.87-.2-17.75.03-2.94-.87-4.41-1.62-2.66-4.74-1.88-2.05.51-3.58 2.38-1.65 2.03-1.78 4.1-.66 10.53 0 15.5.4 3.04-2.12 2.84-1.16-.09-1.28-.09h-4.89c-.53 0-.96-.43-.96-.95l.24-29.04a.6.6 0 0 1 .5-.59q1.67-.24 3.36-.23.2.01 2.78-.14 3.08-.17 1.68 3.06Zm42.08-1.94q4.98-2.6 10.74-1.37 4.33.92 6.87 3.28 3 2.78 3.49 7.31c.03.32-.2.59-.51.59l-6.73.03c-.29.01-.57-.19-.68-.48q-.6-1.45-1.46-2.74-.9-1.34-2.34-1.84-3.57-1.26-5.91 1.13-1.59 1.62-2.3 4.85-1.27 5.72 1 10.76.69 1.53 2.41 2.43 1.46.78 3.18.62 4.72-.42 5.36-5.81c.05-.39.37-.68.76-.68h7.18c.38 0 .67.35.6.72q-1.46 7.87-8.63 10.56-6.77 2.54-12.98-.22-5.63-2.5-7.48-8.8-2.04-6.97.55-12.9 2.16-4.97 6.88-7.44Zm54.69 16.421c-.04 7.809-6.4 14.109-14.214 14.066l-2.74-.014c-7.806-.043-14.106-6.403-14.066-14.214l.02-3.76c.04-7.809 6.4-14.109 14.214-14.066l2.74.014c7.806.043 14.106 6.403 14.066 14.214l-.02 3.76Zm-21.42-6.961q-1.68 5.03-.21 10.49.94 3.47 4.05 4.38 3.81 1.12 6.05-1.15 1.56-1.58 2.2-4.96.85-4.48-.38-8.87-.76-2.71-2.58-4.05-2.53-1.87-5.25-.64-2.68 1.22-3.88 4.8Zm32.64-7.11q.34-.03.58-.37 1.83-2.67 5.01-3.42 6.97-1.62 11.4 4.97c.21.32.7.29.87-.05q1.77-3.44 4.78-4.46 5.42-1.85 9.55 1.13 1.57 1.14 2.7 3.51.66 1.37 1.24 2.77.57 1.35.58 2.91.08 9.83.17 19.67c.01.29-.2.54-.48.58q-4.32.63-8.64.01a.564.564 0 0 1-.48-.58q.42-13.19-.02-19.75-.3-4.53-3.57-4.22-2.17.2-3.7 2.27-1.58 2.16-1.79 4.76-.34 4.26-.07 16.93c.01.32-.21.57-.49.58l-7.44.15c-.58.01-1.05-.51-1.03-1.15q.3-9.13.1-17.49-.07-3.12-1.21-4.77-2.54-3.67-6.36 1.25-1.56 2.01-1.69 6.75-.16 6.5.25 14.03c.04.78-.56 1.43-1.31 1.43l-7.4-.01a.62.62 0 0 1-.61-.64l.44-29.38c.01-.3.23-.53.51-.54l7.25-.11c.31 0 .55.24.54.52l-.08 2.15c-.02.32.17.59.4.57Z"/><rect width="8.94" height="30.72" x="104.47" y="64.76" fill="#121721" rx=".64"/><rect width="8.9" height="30.72" x="201.89" y="64.76" fill="#121721" rx=".59"/><path fill="#016244" fill-opacity=".506" d="m25.5 66.79-.06 16.14c0 .29-.23.52-.5.51l-16.4-.19q-.65-8.25 0-16.5 8.48-.6 16.96.04Z"/><path fill="#00c58a" d="m25.79 66.5 15.5.22c.53.01.96.42.97.93l.24 15.56q-.41-.02-.5.25l-15.44.1c-.29 0-.53.22-.57.51q-1.08 7.82.01 15.64-8.37.68-16.73.04c-.55-.04-.98-.48-.97-1.01l.24-15.49 16.4.19c.27.01.5-.22.5-.51l.06-16.14q.23-.06.29-.29Z"/><path fill="#013122" fill-opacity=".243" d="M58.96 83 59 98.02q.01 1.92-1.84 1.9l-14.66-.21q-.29-4.73 0-9.46.13-2.07-.5-6.79.09-.27.5-.25 6.93.59 13.88.32.11-.01 1.22.13.88.1 1.36-.66Z"/><path fill="#016244" fill-opacity=".506" d="M42 83.46q.63 4.72.5 6.79-.29 4.73 0 9.46-8.25.71-16.5 0-1.09-7.82-.01-15.64c.04-.29.28-.51.57-.51l15.44-.1Z"/><rect width="9.2" height="8.48" x="244.69" y="87.01" fill="#121721" rx=".73"/></svg>