<svg xmlns="http://www.w3.org/2000/svg" viewBox="0 0 484 148"><g fill="#99ecff"><path d="m0 79.3 7.5-35.7h4.3l1-5h3l-1 5h1.5c.7 0 1.3 0 2 .2l1-5.2h3l-1.2 5.9a7.6 7.6 0 0 1 4.3 7.3c0 2.4-.7 4.4-2.1 6a9.8 9.8 0 0 1-5.4 2.9v.3a7.1 7.1 0 0 1 5.3 7.2c-.1 3-1 5.4-2.7 7.2a12.4 12.4 0 0 1-6.8 3.6l-1 5.2h-3l1-4.9H7.2l-1 4.9h-3l1-4.9H0Zm13.2-20.5a9 9 0 0 0 5.3-1.5c1.5-1.1 2.3-2.7 2.3-5 0-1.5-.5-2.7-1.4-3.5-1-1-2.5-1.3-4.6-1.3h-3.6L8.8 58.8h4.3ZM10 75.5c2.6 0 4.7-.6 6.1-1.9 1.5-1.3 2.2-3 2.2-5.4 0-1.6-.5-3-1.4-4-1-1.1-2.6-1.7-4.9-1.7H8l-2.8 13h4.9Zm21 3.8h-4.5l4.6-26.4h4.4L31 79.3Zm3.6-36a2.5 2.5 0 0 1 2.6 2.5 2.6 2.6 0 0 1-2.6 2.7A2.4 2.4 0 0 1 32 46c0-.8.2-1.4.7-2a3 3 0 0 1 1.9-.7Zm15.2 3.2-1.1 6.4h4.8l-.6 3.5h-4.8l-2.7 16.4V74c0 1.3.7 1.9 2 1.9.5 0 1.3 0 2.2-.2l-.4 3.6c-1 .3-2.1.5-3.2.5-1.8 0-3-.7-4-2-.8-1.2-1.2-3-1-5l2.7-16.4H39l.6-3.5h4.7l1.1-6.4H50Zm15.6 29.6c3.2.1 6-2 6.8-5.1h4.2c-.3 1.6-1 3.2-2 4.5a11 11 0 0 1-4.1 3.2 11.1 11.1 0 0 1-10.7-.6 9.7 9.7 0 0 1-3.3-4.7c-.7-2-1-4.2-.7-6.7v-1.2c.4-2.6 1.1-4.8 2.3-6.9 1.2-2 2.7-3.5 4.6-4.6 1.9-1.1 4-1.7 6.2-1.6 2.8 0 5 1 6.7 2.8A9.6 9.6 0 0 1 78 62h-4.2c0-1.6-.4-3-1.4-4.2a5 5 0 0 0-3.8-1.7 7 7 0 0 0-5.7 2.5 13.5 13.5 0 0 0-2.8 7.4v.7c-.2 1-.2 2-.1 3.2 0 1.6.5 3.2 1.6 4.5 1 1.1 2.4 1.7 4 1.7Zm29.2-23.7c2.2 0 4 .6 5.7 1.8 1.6 1.2 2.8 3 3.5 4.9.7 2 1 4.3.7 6.7v.5a17 17 0 0 1-2.3 7c-1.2 2-2.8 3.7-4.7 4.9-2 1.1-4.2 1.7-6.4 1.6-2 0-4-.6-5.7-1.8a10 10 0 0 1-3.5-4.8 18 18 0 0 1 1.4-14c1.2-2.1 2.8-3.8 4.8-5 2-1.3 4.1-1.9 6.5-1.8Zm-9 14.2a15 15 0 0 0 0 3.2c0 1.6.7 3.2 1.7 4.6a5 5 0 0 0 4 1.7 7 7 0 0 0 4-1c1.3-1 2.4-2.1 3.1-3.5.9-1.6 1.4-3.3 1.7-5.2v-3.8a8 8 0 0 0-1.7-4.7 5.3 5.3 0 0 0-4-1.8c-2.2 0-4.4 1-5.8 2.7a13.3 13.3 0 0 0-3 7.2v.6Zm27 12.7h-4.4l4.6-26.4h4.4l-4.6 26.4Zm3.7-36a2.5 2.5 0 0 1 2.6 2.5 2.6 2.6 0 0 1-2.6 2.7 2.4 2.4 0 0 1-2.6-2.5c0-.8.2-1.4.7-2a3 3 0 0 1 1.9-.7Zm12.3 9.6-.6 3.3a10 10 0 0 1 8-3.8c2.6 0 4.4 1 5.6 2.6 1.2 1.7 1.6 4 1.3 7L140 79.3h-4.4l3-17.4v-2.2c-.3-2.3-1.7-3.4-4-3.5-2.7 0-5 1.4-7 4.3l-3.3 18.8h-4.5l4.6-26.4h4.2Zm41.6 11.4h-13l-1.6 8.4h15.5l-1.2 6.6h-23.8l6.2-35.5h23.8l-1.1 6.6h-15.5l-1.3 7.5h13l-1 6.4Zm39.9 9.2c1 0 2-.3 2.7-1a5 5 0 0 0 1.3-2.6h7.5a10.4 10.4 0 0 1-6 8.8c-1.8.8-3.7 1.2-5.7 1.1a10 10 0 0 1-8.1-3.8 13.2 13.2 0 0 1-2.4-9.6l.1-.5c.2-2.5 1-5 2.3-7.1a12.4 12.4 0 0 1 11.3-6.4c3 0 5.5 1 7.3 3 1.8 1.9 2.6 4.4 2.6 7.6h-7.6c.1-2.8-.9-4.2-3-4.3-2.8 0-4.4 2.3-4.9 7.2l-.2 2.5v.9c0 2.7 1 4.1 2.8 4.2ZM235 55.8c2-2.3 4.3-3.4 6.8-3.4 2.7 0 4.7 1 6 2.9 1.2 1.9 1.7 4.4 1.3 7.6l-2.7 16.4h-8l2.7-16.5v-1.6c0-1.6-1-2.4-2.6-2.4-1.5 0-2.9.5-3.9 1.5l-3.3 19h-8l6.4-37.5h8l-2.7 14Zm31 23.5c-.3-.8-.4-1.6-.4-2.4-1.6 2-4 3-6.5 2.9a8 8 0 0 1-5.7-2.3 6.9 6.9 0 0 1-2.1-5.4c0-2.7 1.3-5.2 3.6-6.6 2.3-1.6 5.5-2.3 9.5-2.3h2.6l.3-1.5.1-1.3c0-1.5-.8-2.2-2.2-2.3-1.8 0-2.8 1-3.2 3h-8c0-1.7.6-3.4 1.6-4.7 1.2-1.3 2.7-2.4 4.4-3 1.9-.7 3.9-1 6-1 2 0 3.7.5 5.2 1.3 1.4.7 2.6 1.8 3.4 3.3.7 1.5 1 3.2.8 4.8l-2 12.5v1.5c-.2 1 0 2 .4 3v.5h-7.9Zm-4.6-5.3c1.6 0 3-.7 4.3-2.2l.8-4.2h-2.1c-1.2 0-2.4.4-3.3 1.1-1 .7-1.5 1.8-1.7 3 0 .6 0 1.2.4 1.6.4.4.9.7 1.6.7Zm27.5-21.1-.5 3.1a9.4 9.4 0 0 1 7.6-3.6c2.5 0 4.3 1 5.5 2.7 1.2 1.8 1.6 4.3 1.3 7.6L300 79.3h-8l2.8-16.7v-1.5c-.1-1.6-1-2.3-2.7-2.3-1.5 0-2.7.6-4 1.8L285 79.3h-8l4.6-26.4h7.4ZM306 66c.4-2.6 1-5 2.3-7.2 1-2 2.4-3.7 4.3-5 1.7-1 3.8-1.6 5.8-1.5a7 7 0 0 1 6 2.8l.9-2.3h7.4l-4.3 25.4c-.4 3.3-2 6.4-4.7 8.5-2.7 2-6 3-10 3-1.7-.1-3.4-.5-5-1.1a11 11 0 0 1-4.3-3l3.8-4.8a7 7 0 0 0 5.6 2.8c3.5 0 5.8-1.9 6.8-5.7l.2-.8a8.3 8.3 0 0 1-10.5 1.3 8.5 8.5 0 0 1-3-3.6 14 14 0 0 1-1.3-5.3V66Zm8 2.6a7 7 0 0 0 .8 3.5c.5.8 1.4 1.3 2.4 1.3 1.5 0 3-.7 4-1.8l2.2-11.2c-.7-1.1-1.8-1.7-3.3-1.8a5 5 0 0 0-4 2 10.7 10.7 0 0 0-2 5.4v2.6Zm32 11.1c-2.2 0-4.4-.6-6.3-1.7a10 10 0 0 1-4.2-4.6c-1-2-1.3-4.2-1.1-6.4v-.7c.5-4.4 2-7.8 4.6-10.3 2.5-2.5 6-3.9 9.5-3.7a9.6 9.6 0 0 1 9.4 6.4c.7 2 1 4.1.7 6.6l-.5 3.3h-15.7c0 1.4.4 2.5 1.2 3.4.8.9 2 1.4 3.2 1.3 2.4 0 4.7-1 6.3-2.7l3.4 4.5a10 10 0 0 1-4.2 3.4 14 14 0 0 1-5.8 1.2h-.5Zm2-21a4 4 0 0 0-3 1 9 9 0 0 0-2.2 3.8h8l.2-.7v-1.7c-.2-1.6-1.3-2.4-3-2.5Zm39.9 15.8a11.3 11.3 0 0 1-5.2 3.9c-2.3.9-4.9 1.3-7.8 1.3-2.3 0-4.4-.6-6-1.6a10.7 10.7 0 0 1-4.2-4.5c-1-2-1.6-4.3-1.7-6.6 0-2.7.2-5.3.7-8 .6-3.2 1.6-6 3.1-8.5a14.6 14.6 0 0 1 13.2-7.4c3.3.1 6 1.1 7.9 3a12 12 0 0 1 3.4 8h-4.6a8 8 0 0 0-2-5.2 7.1 7.1 0 0 0-4.9-1.9c-2.9-.1-5.8 1-7.7 3.3-2 2.3-3.4 5.7-4 10.2l-.5 3.4v1.8c0 3.2.6 5.7 2 7.5a6.7 6.7 0 0 0 5.5 2.6c3.4.1 6.1-.7 8.1-2.5l1.5-8h-8l.7-3.8h12.5l-2 13Zm22.8 2.1c-2 2.1-5 3.3-7.9 3.1-2.5 0-4.4-1-5.6-2.7a10.4 10.4 0 0 1-1.4-7.1l2.9-17.1h4.4l-3 17.2v2.1c0 1.2.4 2.1 1 2.8.7.7 1.7 1 2.6 1a8 8 0 0 0 7.4-3.8l3.3-19.2h4.4l-4.6 26.4H410l.6-2.6Zm15 2.6h-4.4l4.6-26.4h4.4l-4.6 26.4Zm3.6-36a2.5 2.5 0 0 1 2.7 2.5 2.6 2.6 0 0 1-2.6 2.7 2.4 2.4 0 0 1-2.6-2.5c0-.8.2-1.4.7-2 .5-.4 1-.7 1.9-.7Zm4.9 22.8c.3-2.6 1-5 2.2-7.3 1-2 2.5-3.7 4.3-4.9a10 10 0 0 1 5.6-1.5 8 8 0 0 1 6.8 3.2l2.5-13.8h4.4l-6.5 37.5h-4l.5-2.8a9.7 9.7 0 0 1-7.7 3.3c-2.3 0-4.5-1-5.9-2.9a12.5 12.5 0 0 1-2.3-7.4l.1-3.4Zm4.3 2.5c0 2.3.3 4.1 1.2 5.4.9 1.3 2.3 2 3.9 2 2.5.1 4.8-1.2 6.8-3.9l2-12.2a5.5 5.5 0 0 0-5.3-3.7c-1.6 0-3.3.5-4.6 1.6a10.2 10.2 0 0 0-3 4.6c-.7 2-1 4-1 6.2ZM472 79.7a9.5 9.5 0 0 1-7.8-3.6 12.5 12.5 0 0 1-2.3-9.1l.1-1a16 16 0 0 1 7-12.2c1.8-1 3.9-1.6 6-1.5 2.7 0 4.8 1 6.4 2.7 1.5 1.8 2.4 4.1 2.5 7v3.3l-.4 2h-17.2a9 9 0 0 0 1.2 6c1 1.8 2.9 2.7 4.8 2.7 2.6 0 5-1 7.2-3.5l2.6 2.1a11.7 11.7 0 0 1-10.1 5.1Zm2.8-23.7c-1.8 0-3.6.6-4.8 1.9a13.3 13.3 0 0 0-3.3 5.7h12.9v-.4a6 6 0 0 0-1-5 4.6 4.6 0 0 0-3.8-2.2Zm-298.9-3.7 12 27h8l-12-27z"/><path d="M281.4 21.3c-1 9.8-9 19.5-12.4 27h17s7.4-15.5 10-26a18.1 18.1 0 0 0-9.6-20.7C280-1.2 272.1.3 267 1.6a121 121 0 0 0-38.2 20A223 223 0 0 0 164 93a80.6 80.6 0 0 0-11 31c-.2 4.6.5 17.8 11 22 9 3.6 20 0 35.8-7.5a244.2 244.2 0 0 0 40.5-29.1l9.3 12.5 15.9-38.6h-44.3l9.8 14c-10 7.4-25.6 19.2-33.5 24.1-3.3 2-17.7 9.6-26.1 8.5-8.4-1-9.8-10.2-6.5-22.6 3.5-13 23.8-39.8 32-49 17.6-19.6 37.2-33 44-37 10.5-6 22.7-13.2 31.1-12.7 8.4.5 10 7.7 9.4 12.7Z"/></g></svg>