<svg xmlns="http://www.w3.org/2000/svg" viewBox="0 0 99 18" fill="#99ecff"><path d="M6 0h1v1h-1zM5 1h1v1h-1zM5 2h1v1h-1zM5 3h1v1h-1zM5 4h1v1h-1zM5 5h1v1h-1zM5 8h1v1h-1zM5 9h1v1h-1zM5 10h1v1h-1zM5 11h1v1h-1zM5 12h1v1h-1zM5 13h1v1h-1zM4 14h1v1h-1z"/><path d="M7 0h6v1h-6zM6 1h8v1h-8zM6 2h2v1h-2zM12 2h2v1h-2zM6 3h2v1h-2zM6 4h2v1h-2zM6 5h2v1h-2zM3 6h8v1h-8zM3 7h8v1h-8zM6 8h2v1h-2zM6 9h2v1h-2zM6 10h2v1h-2zM6 11h2v1h-2zM6 12h2v1h-2zM6 13h2v1h-2zM12 13h3v1h-3zM5 14h3v1h-3zM12 14h3v1h-3zM4 15h11v1h-11zM4 16h11v1h-11zM4 17h10v1h-10z"/><path d="M4 0h2v1h-2zM3 1h2v1h-2zM3 2h2v1h-2zM10 2h2v1h-2zM3 3h2v1h-2zM3 4h2v1h-2zM3 5h2v1h-2zM0 6h2v1h-2zM0 7h2v1h-2zM3 8h2v1h-2zM3 9h2v1h-2zM3 10h2v1h-2zM3 11h2v1h-2zM3 12h2v1h-2zM3 13h2v1h-2zM10 13h2v1h-2zM2 14h2v1h-2zM10 14h2v1h-2zM1 15h2v1h-2zM1 16h2v1h-2zM1 17h2v1h-2z"/><path d="M2 6h1v1h-1zM2 7h1v1h-1zM3 15h1v1h-1zM3 16h1v1h-1zM3 17h1v1h-1z"/><path d="M18 6h6v1h-6zM27 6h6v1h-6zM36 6h6v1h-6zM45 6h4v1h-4zM52 6h5v1h-5zM59 6h2v1h-2zM64 6h2v1h-2zM68 6h6v1h-6zM77 6h6v1h-6zM84 6h7v1h-7zM92 6h6v1h-6zM18 7h2v1h-2zM23 7h2v1h-2zM29 7h2v1h-2zM38 7h2v1h-2zM44 7h2v1h-2zM48 7h2v1h-2zM51 7h2v1h-2zM56 7h2v1h-2zM59 7h2v1h-2zM64 7h2v1h-2zM68 7h2v1h-2zM73 7h2v1h-2zM79 7h2v1h-2zM84 7h2v1h-2zM92 7h2v1h-2zM97 7h2v1h-2zM18 8h2v1h-2zM23 8h2v1h-2zM29 8h2v1h-2zM38 8h2v1h-2zM43 8h2v1h-2zM51 8h2v1h-2zM56 8h2v1h-2zM59 8h2v1h-2zM64 8h2v1h-2zM68 8h2v1h-2zM73 8h2v1h-2zM79 8h2v1h-2zM84 8h2v1h-2zM92 8h2v1h-2zM97 8h2v1h-2zM18 9h6v1h-6zM29 9h2v1h-2zM38 9h2v1h-2zM43 9h2v1h-2zM51 9h2v1h-2zM56 9h2v1h-2zM59 9h2v1h-2zM64 9h2v1h-2zM68 9h2v1h-2zM72 9h3v1h-3zM79 9h2v1h-2zM84 9h6v1h-6zM92 9h2v1h-2zM96 9h3v1h-3zM18 10h2v1h-2zM23 10h2v1h-2zM29 10h2v1h-2zM38 10h2v1h-2zM43 10h2v1h-2zM51 10h2v1h-2zM56 10h2v1h-2zM59 10h2v1h-2zM64 10h2v1h-2zM68 10h5v1h-5zM79 10h2v1h-2zM84 10h2v1h-2zM92 10h5v1h-5zM18 11h2v1h-2zM23 11h2v1h-2zM29 11h2v1h-2zM38 11h2v1h-2zM44 11h2v1h-2zM48 11h2v1h-2zM51 11h2v1h-2zM56 11h2v1h-2zM59 11h2v1h-2zM64 11h2v1h-2zM68 11h2v1h-2zM71 11h3v1h-3zM79 11h2v1h-2zM84 11h2v1h-2zM92 11h2v1h-2zM95 11h3v1h-3zM18 12h6v1h-6zM27 12h6v1h-6zM38 12h2v1h-2zM45 12h4v1h-4zM52 12h5v1h-5zM60 12h5v1h-5zM68 12h2v1h-2zM72 12h3v1h-3zM77 12h6v1h-6zM84 12h7v1h-7zM92 12h2v1h-2zM96 12h3v1h-3z"/></svg>