<svg xmlns="http://www.w3.org/2000/svg" viewBox="0 0 365 62"><g fill="none" transform="translate(0 .3)"><path fill="#FFF" d="M7.5 46.1c-.7-.2-.9.2-.5 1.1.2.4.2.8 0 1.3-.2.2-.5.4-.8.4H.7a.7.7 0 0 1-.7-.6V4.2c0-.3.2-.7.4-.8l6-3.2c.3-.1.5 0 .5.3V16c0 .3.2.4.5.3 5.9-3.8 11-4.3 15.4-1.4a12 12 0 0 1 5 6.2c.7 1.7 1.2 3.5 1.5 5.3l.4 5.6a21 21 0 0 1-3.8 12.6 10 10 0 0 1-4.6 3.6c-4.9 2.2-9.2 1.7-13-1.6l-.8-.5Zm11-25.7c-3.6-2-7-1.3-10.4 2A4 4 0 0 0 7 25.2v12.5c0 .7.3 1.3.8 1.8 1 .9 2 1.6 3 2.3 1.1.7 2.3 1 3.6 1.1 2.7.3 4.7-.6 6.2-2.5a12 12 0 0 0 2-5.9c.3-2.9.2-5.8-.4-8.7-.5-2.7-1.7-4.5-3.6-5.5l-.1.1ZM38.8 4c0-.4.3-.8.6-1L44.9.1c.3-.2.7 0 .7.4l-.1 47.4c0 .5-.4 1-.8 1l-5.6-.2c-.3 0-.5-.2-.5-.6.1-9.1.1-18.3-.1-27.4-.1-5 0-10.6.3-16.7Zm97.1 24.2c0 1.2.2 1.3.9.3L147 13.9c.2-.2.5-.4.8-.4h6.6c.6 0 .7.2.3.7L146.5 25c-.1.3-.2.6 0 1l10 22.3c.1.2 0 .5-.3.5h-6c-.6 0-1.1-.3-1.4-1l-7-15.8c-.2-.3-.5-.4-.7-.1l-4.8 6.4-.2 1 .1 8.7c0 .5-.4 1-1 1h-5a1 1 0 0 1-1-1l-.1-43.7c0-.4.1-.7.4-.8l6.2-3.3c.2-.1.5 0 .5.3.3 9.5.2 18.7-.3 27.7Zm-6.1-23.8-.2-.1h-.1v43.2l.1.1h.2V4.4ZM274.7 20l-3.9-.1a.5.5 0 0 1-.5-.5v-4.9c0-.8.7-1.4 1.6-1.2 2.5.6 3.6 0 3.5-1.8l-.1-1.6V4.4c0-.3 0-.6.3-.8a22 22 0 0 1 6.1-3.4c.3-.1.5 0 .5.3l-.1 12.1c0 .3.2.6.5.6l7.4.2c.4 0 .8.3.8.7v5.2c0 .4-.4.7-.7.7l-7.4-.1c-.4 0-.6.3-.6.6l.1 19.7c0 1.6.8 2.6 2.3 3 1.8.4 3.7 0 5.8-1.3.3-.2.5-.1.4.3l-.6 5c0 .4-.2.7-.5.8-1.3.8-3 1.3-4.9 1.4-3.5.4-6.1-.5-7.7-2.8-1-1.3-1.5-3.7-1.6-7.1-.2-6.3-.3-12.7-.2-19 0-.3-.2-.5-.5-.5Z"/><circle cx="320.3" cy="4.5" r="4.5" fill="#FFF"/><rect width="1" height="43.4" x="129.5" y="4.3" fill="#FAFCFD" fill-opacity=".9" rx=".1"/><path fill="#FFF" d="M60.1 45.7c-2.4-2.7-4-5.4-5-8.3-.7-2.8-1-6-.6-9.4.5-3.8 1.8-7.1 4-10 2.5-3 6-4.8 10.5-5.1 4.8-.3 8.8 1.2 12 4.6 1.9 2.1 3.2 4.5 4 7.2.6 2.5.8 5.1.7 8-.1 2.5-.7 4.9-1.6 7.2a16 16 0 0 1-4.2 5.9c-5.3 4.7-11.3 5.1-18 1.4a6 6 0 0 1-1.8-1.4v-.1Zm10-2.6c4.8 0 8.7-5.4 8.7-12s-4-11.9-8.8-11.9c-4.9 0-8.8 5.4-8.8 12s4 11.9 8.9 11.9Zm49.5-25.4.6.6c.2.2.2.6 0 .8l-3.6 4.2c-.2.2-.5.2-.8 0a11.6 11.6 0 0 0-4.2-3c-1.6-.7-3.2-1-4.9-.7-3.4.6-5.6 2.8-6.6 6.6-1.1 4.4-.8 8.5 1 12.2 2 4.1 5.3 5.5 10 4 1-.3 2.6-1.4 4.5-3.3.3-.3.6-.3.8 0l3.6 3.5c.2.3.2.6 0 1-2.7 3-5.8 5-9.3 5.7a14 14 0 0 1-10-1.8A16.2 16.2 0 0 1 93 35.7c-1-5-.4-9.6 1.5-13.8 2.8-6.4 7.8-9.4 15-9 3.5.3 6.6 1.6 9.1 4l1 .8Zm42.5 27.8c-.4-.2-.5-.8-.2-1.2l2.3-3.7c.3-.5 1-.7 1.4-.4 3.4 2.4 7 3.4 11 3 1.7-.3 3-.8 4-1.7 1.2-1.1 1.2-2.5 0-4a8.4 8.4 0 0 0-2.8-2l-8.7-4c-4.7-2-6.7-5.4-6.1-10.3.5-4 2.8-6.5 7-7.6 5.7-1.3 11.3-.4 16.6 2.8.2.2.3.5.1.8l-2.5 4.3c-.2.4-.7.5-1 .3a12 12 0 0 0-10.2-2.5c-1.3.3-2.3.9-2.8 1.8-.7 1.3-.2 2.6 1.4 3.8.7.5 2 1.2 4 2l3.4 1.4c2 .7 4 1.8 5.7 3.2a9.9 9.9 0 0 1 3.3 5.3c1 4 0 7.1-2.6 9.4a14.6 14.6 0 0 1-10.1 3.3 25 25 0 0 1-13.2-4ZM204 16c0 .7.2.8.7.4a13 13 0 0 1 10.4-3.4c2.5.4 4.7 1.5 6.6 3.2 1.8 1.8 3 4 3.8 6.8a32.6 32.6 0 0 1 .6 14.9c-.7 2.9-2 5.3-3.9 7.4-1.9 2-4.1 3.3-6.8 4-4 .8-7.7-.3-11-3.3-.3-.2-.4-.1-.4.2v11.1c0 .5-.2 1-.6 1.2l-5.7 2.8c-.3.1-.5 0-.5-.3l-.1-46.7c0-.4.2-.6.4-.6l5.8-.1c.3 0 .6.2.6.5V16h.1Zm-6.2.4-.2-.1h-.1v38.2l.1.1h.2V16.4Zm8.1 24.1c5 3.7 8.8 3.7 11.5 0 1.3-1.9 2.1-4.4 2.3-7.5a21 21 0 0 0-.8-8c-1-3.9-3.4-5.8-6.9-5.8-3 0-5.7 1.4-7.8 4.3-.2.2-.3.5-.3.9l-.1 9.7-.2 1.7a5 5 0 0 0 2.3 4.7Zm33.5 5.2c-2-1.6-3.5-3.8-4.4-6.5-1.3-4-1.7-8-1-12s2.3-7.4 5-10.1c3-3.3 6.9-4.6 11.4-4.1a15 15 0 0 1 11.3 6.6c2.7 3.8 3.7 8.5 3.1 14a21 21 0 0 1-3.5 9.8 14.7 14.7 0 0 1-21.9 2.4v-.1Zm9.9-2.6c4.8 0 8.8-5.4 8.8-12 0-6.5-4-11.8-8.8-11.8-4.8 0-8.8 5.3-8.8 11.8 0 6.6 4 12 8.8 12Zm89.3-26.8a15 15 0 0 1 19.9.6 16 16 0 0 1 4.6 7.6 26 26 0 0 1 .4 12 17 17 0 0 1-3.9 7.8 14 14 0 0 1-7 4.5 14 14 0 0 1-12-1.4c-3.1-2-5.4-5-6.8-8.9-2-6-1.5-12 1.6-18.2.8-1.6 1.9-3 3.2-4Zm9.7 26.8c4.8 0 8.8-5.3 8.8-12 0-6.5-4-11.8-8.8-11.8-4.8 0-8.8 5.3-8.8 11.9 0 6.5 4 11.9 8.8 11.9Z"/><rect width="7" height="35.5" x="316.8" y="13.5" fill="#FFF" rx=".6"/><rect width="1" height="38.4" x="197.5" y="16.3" fill="#FFF" rx=".1"/><circle cx="302.9" cy="44.2" r="5.3" fill="#FFF"/></g></svg>