<svg xmlns="http://www.w3.org/2000/svg" viewBox="0 0 118 24"><g fill="#99ecff"><path d="M11 12.2c0 .6.5 1.1 1.1 1.1.7 0 1.2-.5 1.2-1.1 0-.7-.5-1.2-1.2-1.2-.6 0-1.1.5-1.1 1.1m9.8-1.1c-.7 0-1.2.5-1.2 1.1 0 .7.5 1.2 1.2 1.2.6 0 1.2-.5 1.2-1.1 0-.7-.6-1.2-1.2-1.2m0 8.7c-.7 0-1.2.5-1.2 1.1 0 .7.5 1.2 1.2 1.2.6 0 1.2-.5 1.2-1.2 0-.6-.6-1.1-1.2-1.1"/><path d="M23.3 1.2A3 3 0 0 0 19 .8V1l-.4.2a2.8 2.8 0 0 1-3.9-.2V.9a3.2 3.2 0 0 0-1.3-.8h-2v.1l-.3.1-.2.2h-.1c0 .2-.1.2-.2.2v.1l-.2.2-.3.2c-1.1 1-2.8.9-3.8-.2V.9L6 .7C5.5.4 5 .1 4.5 0H3.2l-.1.2H3a2 2 0 0 0-1 .5v.1l-.3.2-.5 1-.1.2v2.1l.1.3.2.2.3.3.2.2.1.1c1 1.1 1 3 0 4.2l-.5.5-.1.3c0 .2 0 .2-.2.3v.3l-.1.3v1.3a3 3 0 0 0 1 1.5 3 3 0 0 1 0 4.3h-.2l-.1.2-.1.3h-.1l-.1.3h-.1v.2c0 .1-.2 0-.2.2v.1c-.2.3-.2.7-.2 1v.6c0 .2 0 .4.2.5v.2h.1v.3h.2c0 .2 0 .3.2.3v.1h.1v.2H2l.2.2.1.1.2.2h.1l.2.2h.4l.3.1.2.1H5l.2-.1.3-.1.6-.3.2-.2c1.2-1.3 3-1.3 4.1 0a3 3 0 0 0 4.6-.3c.9-1.1.9-2.7 0-3.9a3 3 0 0 0-4.3-.4l-.2.2-.3.2a2.8 2.8 0 0 1-3.9-.2v-.2l-.3-.3c-1-1.1-.9-2.9.2-4a3 3 0 0 0 1-2.2v-.2c0-.7-.4-1.5-1-2v-.1L6 9.4a3 3 0 0 1 .2-4v-.1h.1c1.2-1.3 3-1.3 4.1 0h.1l.2.2h.2l.1.1.1.1h.2l.1.2h.2l.1.1h1.9l.4-.2a3.1 3.1 0 0 0 .7-.6h.1c1.1-1.3 3-1.3 4.1 0a2.8 2.8 0 0 0 4.5-.2 3 3 0 0 0 0-3.8m14.1 8.4c-.4-.4-.7-.6-1.2-.8a3.4 3.4 0 0 0-1.6-.4c-.5 0-1 .2-1.5.4-.4.2-.8.4-1 .8-.3.4-.6.8-.7 1.3a5.1 5.1 0 0 0-.2 1.4c0 .5 0 1 .3 1.5.1.4.4.8.7 1.1.3.4.7.6 1.1.8.4.2 1 .3 1.5.3.6 0 1-.1 1.5-.3.4-.2.8-.5 1.2-1l1.5 1.6a5 5 0 0 1-2 1.3 6.7 6.7 0 0 1-4.7 0 5.5 5.5 0 0 1-1.7-1.2 5.3 5.3 0 0 1-1.2-1.8c-.3-.6-.4-1.5-.4-2.3a5.9 5.9 0 0 1 1.6-4.2A5.5 5.5 0 0 1 32.4 7 6.7 6.7 0 0 1 37 7c.7.3 1.4.7 2 1.3l-1.7 1.4zm4.8 2.6c0 .5 0 1 .3 1.5.1.5.4.9.7 1.2.3.4.7.6 1 .8.5.2 1 .2 1.6.2s1 0 1.6-.2c.4-.2.8-.5 1-.8.4-.3.7-.7.8-1.2l.3-1.5c0-.6-.1-1.1-.3-1.5-.1-.5-.4-1-.7-1.3a2.5 2.5 0 0 0-1.1-.7c-.4-.2-1-.3-1.6-.3s-1 0-1.5.3l-1.1.7c-.3.4-.6.8-.7 1.3l-.3 1.5zm-2.2 0c0-.8 0-1.6.4-2.3.3-.7.7-1.3 1.2-1.8a6.3 6.3 0 0 1 4.2-1.7 5.6 5.6 0 0 1 5.9 5.8 5.5 5.5 0 0 1-1.7 4.1 6.3 6.3 0 0 1-4.2 1.7c-.8 0-1.6-.1-2.3-.5a5.6 5.6 0 0 1-1.9-1.2c-.5-.6-.9-1.1-1.2-1.9-.2-.6-.4-1.4-.4-2.2zM54 17.7h2v-11h-2v11zm-.5-14.9c0-.4.1-.7.4-1 .3-.4.6-.6 1-.6.5 0 .8.2 1.1.5.3.3.4.7.4 1.1a1.5 1.5 0 0 1-1.5 1.6c-.4 0-.7-.2-1-.5-.3-.3-.4-.7-.4-1zm5.5 4h2v1.7h.1c.3-.6.7-1.1 1.4-1.5a4.8 4.8 0 0 1 3.8-.2c.5.1 1 .4 1.3.7l1 1.3c.1.6.3 1.2.3 2v7h-2.1v-6.5l-.2-1.3-.6-1-.8-.5a4.2 4.2 0 0 0-1-.1c-.4 0-.9 0-1.2.2-.4.1-.7.3-1 .7-.3.3-.5.7-.6 1.1-.2.5-.2 1-.2 1.7v5.7H59v-11h-.2zM76.6 16c.6 0 1 0 1.6-.3.5-.2.8-.4 1.2-.8.3-.3.5-.7.7-1.2.1-.5.3-1 .3-1.6l-.3-1.6c-.2-.4-.4-.9-.7-1.2-.4-.3-.7-.6-1.2-.8-.5-.2-1-.3-1.6-.3-.5 0-1 0-1.5.3-.5.2-.8.5-1.2.8-.3.3-.5.8-.7 1.2-.1.5-.3 1-.3 1.6 0 .6.1 1.1.3 1.6.2.5.4.9.7 1.2.3.4.7.6 1.2.8.4.2 1 .3 1.5.3zm5.9 1.7h-2.1V16h-.1c-.4.6-1 1-1.7 1.4a5 5 0 0 1-2.2.4 6 6 0 0 1-2.4-.4c-.7-.3-1.3-.7-1.8-1.2a5 5 0 0 1-1.2-1.9 6 6 0 0 1-.4-2.2c0-.8.2-1.6.4-2.3.3-.7.7-1.3 1.2-1.9.5-.5 1-1 1.8-1.2a6.4 6.4 0 0 1 4.6 0 4 4 0 0 1 1.6 1.4V0h2.2v17.7zm10.7-6.4L93 10c-.2-.4-.4-.8-.7-1a5 5 0 0 0-1-.7C91 8 90.5 8 90 8c-.4 0-1 0-1.4.3a4 4 0 0 0-1 .7c-.4.3-.6.6-.8 1l-.3 1.2h6.8zM86.4 13c0 .5.2.9.4 1.3s.5.8.8 1l1.2.6 1.4.3a3 3 0 0 0 1.8-.5c.5-.3.9-.7 1.3-1.2l1.6 1.2a6 6 0 0 1-5 2.3c-.9 0-1.6-.1-2.3-.4-.7-.3-1.4-.7-1.9-1.2-.4-.6-.9-1.1-1-1.9a6 6 0 0 1-.5-2.2A6 6 0 0 1 85.8 8c.5-.5 1.1-.8 1.8-1.2.7-.3 1.5-.4 2.3-.4 1 0 1.9.1 2.6.5.7.3 1.2.7 1.6 1.3a5.9 5.9 0 0 1 1.3 4v.7h-9zm17.3-3.5-1-.7a2.7 2.7 0 0 0-1.3-.4 3 3 0 0 0-1.3.4c-.3.2-.6.4-.6.8s.2.7.4.8l.8.5.9.3h.8l1.3.5c.4.1.7.3 1 .6l.7 1c.2.3.3.7.3 1.2 0 .6-.1 1.2-.4 1.6a4 4 0 0 1-1 1c-.5.4-1 .6-1.5.7a7 7 0 0 1-4.1-.2c-.7-.3-1.3-.8-1.9-1.5l1.6-1.3 1.1.9c.5.2 1 .4 1.6.4h.8l.7-.4.5-.4c.2-.2.2-.4.2-.6 0-.3 0-.5-.3-.7a2.5 2.5 0 0 0-.7-.5c-.2-.2-.5-.2-.8-.3l-.8-.2-1.3-.3a3.7 3.7 0 0 1-1-.6c-.3-.2-.6-.5-.8-.9-.2-.3-.3-.8-.3-1.3l.3-1.5 1-1c.4-.3.9-.5 1.4-.6a6 6 0 0 1 1.5-.2c.8 0 1.5.1 2.2.4.7.3 1.2.7 1.7 1.3l-1.7 1.2zm4-9.2h2.1v11l4.8-4.6h2.9l-5.1 5 5.6 5.8h-3l-5.2-5.6v5.6h-2V.3z"/></g></svg>