<svg xmlns="http://www.w3.org/2000/svg" xml:space="preserve" viewBox="0 0 1080 286"><style>.st0{fill:#fff}</style><g id="Coin_Gecko_AI"><path id="XMLID_00000109714536317397490150000016779953084460001213_" d="M181 84.8z" class="st0"/><g id="XMLID_00000165210431025918170310000009667589234309158057_"><path id="XMLID_00000094587396510722221950000010418240064250603163_" d="M447.5 113.3c-2.9-11.5-10.3-19.8-24.8-19.8-21.3 0-30.2 18.8-30.2 37.9s9 37.9 30.2 37.9c15.5 0 24-11.6 25.4-26h17a40.8 40.8 0 0 1-42.4 40.2c-29.8 0-47.6-23.7-47.6-52.1 0-28.4 17.8-52.1 47.6-52.1 22.5.1 40.2 12.5 42.3 34h-17.5z" class="st0"/><path id="XMLID_00000163769377714059661400000003120967860727209120_" d="M475.4 145c0-22 13.3-37.9 36.4-37.9 23.1 0 36.4 16 36.4 38s-13.3 38-36.4 38c-23.1 0-36.4-16-36.4-38zm56.9 0c0-12.4-6.3-25.3-20.5-25.3s-20.5 13-20.5 25.3c0 12.6 6.3 25.5 20.5 25.5s20.5-13 20.5-25.5z" class="st0"/><path id="XMLID_00000089561488807806794110000008766464684109980846_" d="M561.8 81.6h16v15h-16v-15zm0 27.5h16v72h-16v-72z" class="st0"/><path id="XMLID_00000098222483093608998150000013599916721803706546_" d="M595 109h15v10.7l.3.2c4.8-7.9 13-12.8 22.5-12.8 15.6 0 25.5 8.4 25.5 24.6V181h-16v-45.3c-.2-11.3-4.7-16.1-14-16.1-10.6 0-17.4 8.3-17.4 19V181H595v-72z" class="st0"/><path id="XMLID_00000086655630273909530280000003062558737360820648_" d="M764 181.1H753l-2.6-11.7a35.9 35.9 0 0 1-30 14.1c-29.8 0-47.7-23.7-47.7-52.1 0-28.5 17.9-52.1 47.7-52.1 21.7 0 40 11.5 42.6 34h-17c-1.6-13.1-13-19.8-25.6-19.8-21.3 0-30.2 18.8-30.2 37.9s8.9 37.9 30.2 37.9c17.8.3 27.6-10.5 27.9-27.3h-26.5v-13.3H764v52.4z" class="st0"/><path id="XMLID_00000178884536388889934700000006008955773576916655_" d="M793.2 149.2c0 11.3 6.1 21.3 19.3 21.3 9.2 0 14.8-4 17.6-12h15c-3.4 15.8-16.8 24.6-32.6 24.6-22.5 0-35.2-15.8-35.2-38 0-20.4 13.4-38 34.8-38 22.7 0 36.7 20.5 34 42.1h-53zm37-10.4c-.5-10-7.3-19.1-18-19.1-11 0-18.6 8.3-19 19h37z" class="st0"/><path id="XMLID_00000165208769281547143380000014724391334763228032_" d="M906.9 133.2c-1.3-8.8-7.7-13.5-16.4-13.5-8.3 0-19.8 4.3-19.8 26.2 0 12 5.3 24.6 19 24.6 9.3 0 15.7-6 17.2-16.4h15.9c-3 18.7-14.5 29-33 29-22.6 0-35-16-35-37.2 0-21.8 11.8-38.8 35.5-38.8 16.7 0 31 8.4 32.5 26h-15.9z" class="st0"/><path id="XMLID_00000040532779282668257870000007019063433760943769_" d="M936.2 81.6H952v56.6l28.7-29.1h19.5l-27.6 26.4 30.2 45.6h-19.3l-22-35-9.5 9.2v25.8h-16V81.6z" class="st0"/><path id="XMLID_00000050633439882319899570000003261110152781964443_" d="M1007.3 145c0-22 13.2-37.9 36.3-37.9 23.2 0 36.4 16 36.4 38s-13.2 38-36.4 38c-23.1 0-36.3-16-36.3-38zm56.8 0c0-12.4-6.3-25.3-20.5-25.3s-20.5 13-20.5 25.3c0 12.6 6.3 25.5 20.5 25.5s20.5-13 20.5-25.5z" class="st0"/></g><g id="XMLID_00000078027483154438176710000012863250752772532919_"><path id="XMLID_00000155833996814241537590000005311418052219229083_" d="M142.8-.5a143.5 143.5 0 1 0 1.3 287 143.5 143.5 0 0 0-1.3-287zM124.8 136a25.7 25.7 0 1 1 0-51.3 25.7 25.7 0 0 1 0 51.3zm20.4 27.7.2-.2.1-.1a46 46 0 0 0 24 6.6 113 113 0 0 0 49.8-9.7c4.5-1.8 9-3.8 13.2-6.2a163.9 163.9 0 0 0 9.4-6.2l.3.3a93.4 93.4 0 0 1-22 14c-7.9 3.8-16.1 6.8-24.6 9a77.2 77.2 0 0 1-26.3 3 36.3 36.3 0 0 1-24-10.5zM211 136a5.6 5.6 0 0 1 11.1-.1 5.6 5.6 0 0 1-11.1 0zm-44 137.6c-5.5-38.8 28.4-76.9 47.5-96.3 4.4-4.4 11-10.5 17.3-17 24.8-23.2 29.8-51-21-64.8-9.7-2.8-19.6-6.7-29.8-10.7l-1-2.7c-1.2-2-3.2-4.3-6.3-6.9-6.6-5.7-19-5.5-29.7-3a74.8 74.8 0 0 0-34.8-1c-49.1 13.4-57 37.4-59 66.3-2.5 31.2-4 54.4-15.8 81A132.7 132.7 0 1 1 167 273.6z" class="st0"/><path id="XMLID_00000036209898089073278220000000037352250193229441_" d="M142.7 110.5a18 18 0 1 1-36 0 18 18 0 0 1 36 0z" class="st0"/></g></g></svg>