<svg xmlns="http://www.w3.org/2000/svg" viewBox="0 0 478 94" fill="#99ecff"><path d="M0 61V32l10-10h28l10 10v9H35v-5l-4-3H17l-4 3v21l4 3h14l4-3v-5h13v9L38 71H10Zm57-39h12v8l8-8h14v11H80L70 43v28H57Zm88 0v61l-11 11h-26l-9-10v-6h13v3l2 2h14l4-4V64l-8 7h-16L97 61V22h13v35l4 3h9l9-10V22Zm12 0h12v7l7-7h20l10 10v29l-10 10h-19l-7-5v27h-13Zm33 38 3-3V36l-3-3h-12l-8 8v12l8 7Zm30 1V33h-9V22h9V5h13v17h16v11h-16v24l4 3h12v11h-18Zm33-39h13l6 31h1l9-31h12l8 31 7-31h13l-13 49h-12l-9-33h-1l-10 33h-12Zm75 39V32l10-10h28l11 10v19h-36v6l3 4h17l3-4v-2h13v6l-10 10h-29Zm36-19v-6l-4-4h-15l-4 4v6Zm23-20h12v8l8-8h15v11h-12l-10 10v28h-13Zm41-22h13v40h9l13-18h14l-16 24 17 25h-14l-14-20h-9v20h-13Z"/></svg>