<svg xmlns="http://www.w3.org/2000/svg" viewBox="0 0 184 54"><path fill="#99ecff" d="M0 49.7c0-2 1.4-3.7 3.4-3.7 1.2 0 1.9.5 2.5 1l-.7 1c-.5-.5-1-.8-1.8-.8-1.3 0-2.2 1-2.2 2.5 0 1.4 1 2.6 2.2 2.6.8 0 1.3-.4 1.9-1l.6.8c-.6.8-1.4 1.2-2.6 1.2-1.9 0-3.3-1.6-3.3-3.6ZM18.5 46h3c1.5 0 2.4.8 2.4 2.2 0 1.2-.6 1.9-1.5 2.2l1.8 2.6h-1.4l-1.7-2.4h-1.4v2.5h-1.2V46Zm2.8 3.5c.8 0 1.4-.5 1.4-1.2s-.5-1.2-1.4-1.2h-1.6v2.4h1.6Zm17 .8L35.8 46h1.3l1.8 3 1.9-3h1.3l-2.6 4.2V53h-1.2v-2.7ZM54.5 46H57c1.6 0 2.5.9 2.5 2.4 0 1.6-1.2 2.4-2.6 2.4h-1.3V53h-1.2v-7h.1Zm2.5 3.7c.8 0 1.4-.5 1.4-1.3s-.6-1.1-1.4-1.1h-1.4v2.5H57v-.1Zm16.7-2.5h-2.1V46h5.3v1h-2.1v6h-1.1v-5.8Zm15.2 2.4c0-2 1.4-3.7 3.4-3.7s3.4 1.7 3.4 3.7-1.4 3.6-3.5 3.6c-2 0-3.3-1.6-3.3-3.6Zm5.6 0c0-1.4-1-2.6-2.3-2.6-1.2 0-2.2 1.2-2.2 2.6 0 1.4 1 2.5 2.2 2.5 1.4 0 2.3-1.1 2.3-2.5Zm13.6 0c0-2 1.4-3.7 3.4-3.7 1.2 0 2 .5 2.6 1l-.8 1c-.5-.5-1-.8-1.8-.8-1.2 0-2.1 1-2.1 2.5 0 1.4.9 2.6 2.1 2.6.8 0 1.3-.4 2-1l.6.8a3 3 0 0 1-2.6 1.3c-1.9 0-3.4-1.7-3.4-3.7Zm18.1 0c0-2 1.4-3.7 3.5-3.7 2 0 3.3 1.7 3.3 3.7s-1.4 3.6-3.4 3.6-3.4-1.6-3.4-3.6Zm5.7 0c0-1.4-1-2.6-2.2-2.6-1.3 0-2.2 1.2-2.2 2.6 0 1.4.9 2.5 2.2 2.5 1.2 0 2.2-1.1 2.2-2.5Zm13.9-3.6h2.6c1.5 0 2.4.9 2.4 2.4 0 1.6-1.1 2.4-2.6 2.4h-1.3V53h-1.2v-7h.1Zm2.5 3.7c.9 0 1.4-.5 1.4-1.3s-.5-1.2-1.4-1.2H147v2.5h1.3Zm15.2-3.7h1.2v7h-1.2v-7Zm16.5 0h1.1l2.9 7h-1.2l-.7-1.6h-3l-.7 1.7h-1.2l2.9-7.1h-.1Zm1.7 4.3-1-3-1.2 3h2.2ZM108 1c-7 0-12.5 4.4-16 8.3-3.5-4-9-8.3-16-8.3-10 0-18 7.6-18 17 0 9.3 8 17 18 17 7 0 12.5-4.4 16-8.4 3.5 4 9 8.4 16 8.4 10 0 18-7.7 18-17 0-9.4-8-17-18-17ZM76 24.8c-4.3 0-7.8-3-7.8-6.8s3.5-6.8 7.7-6.8c4.1 0 7.8 3.8 10 6.8-2.1 3-6 6.8-10 6.8Zm32 0c-4 0-7.7-3.9-10-6.8 2.2-3 6-6.8 10-6.8 4.3 0 7.8 3 7.8 6.8 0 3.7-3.5 6.8-7.7 6.8Z"/></svg>