<svg xmlns="http://www.w3.org/2000/svg" viewBox="0 0 52 13.6" fill="#99ecff"><path d="M5 1.3h1.1a3.8 3.8 0 0 1 2.1.2 3.6 3.6 0 0 1 1.6 2.2c.2.5.2.5.6.3h.3V.2H0V1h.5a1.3 1.3 0 0 1 1 .5c.4.6.4 1.4.4 5.2 0 4.1 0 5.1-.4 5.6a1 1 0 0 1-.9.5c-.6 0-.6 0-.6.3a.4.4 0 0 0 0 .3h6.8a.6.6 0 0 0 0-.6 3.5 3.5 0 0 0-.5 0 3.3 3.3 0 0 1-.6-.2A1.8 1.8 0 0 1 5 11V7.2h.4a5.4 5.4 0 0 1 1.4.2 1.9 1.9 0 0 1 .9 1.3V9h.7V4.6h-.6V5a1.8 1.8 0 0 1-1 1.4 1.7 1.7 0 0 1-.7 0H5v-5Zm46.8 7.9a3.6 3.6 0 0 0-2-1.6 5 5 0 0 1-1.9-1 1 1 0 0 1-.2-.9A1.2 1.2 0 0 1 48 5a1.2 1.2 0 0 1 1.2-.3A2.5 2.5 0 0 1 51 6.5c.1.4.2.4.5.3h.1V4.1h-.1a7.7 7.7 0 0 0-3-.5 3.6 3.6 0 0 0-2.5 1 2.8 2.8 0 0 0-.8 2.2 2.4 2.4 0 0 0 .6 1.6 4 4 0 0 0 1.7 1c1.6.7 2 1 2 1.8a1.3 1.3 0 0 1-1 1.3 2.5 2.5 0 0 1-1 0 3 3 0 0 1-1.9-2.1l-.1-.4h-.2a.8.8 0 0 0-.3 0v3h.1a10.3 10.3 0 0 0 2.1.4h1a4 4 0 0 0 1.3-.1 3.1 3.1 0 0 0 2.3-2 2.3 2.3 0 0 0 .2-1 2.5 2.5 0 0 0-.2-1.2ZM42.4 4a4.6 4.6 0 0 0-3.8.1A4.4 4.4 0 0 0 36.3 7a5.3 5.3 0 0 0-.2 2 5.5 5.5 0 0 0 0 1 4.4 4.4 0 0 0 3.6 3.6 7 7 0 0 0 1.8 0 4.8 4.8 0 0 0 1.7-.6 3 3 0 0 0 1-1 .5.5 0 0 0-.2-.3 1.3 1.3 0 0 0-.3.1 2.9 2.9 0 0 1-1.7.5 2.7 2.7 0 0 1-2.1-.8 2.4 2.4 0 0 1-.5-.7 4.7 4.7 0 0 1-.5-2v-.4h5.5v-.2a5 5 0 0 0 0-.6 4 4 0 0 0-2-3.5Zm-2.8 3.5h-.7v-.6c.2-1.5.8-2.4 1.5-2.4s1 .9 1.1 2.5v.5H41ZM25.2 3.7a2.1 2.1 0 0 0-1 .2 3.4 3.4 0 0 0-1.5 1.6l-.2.2v-2l-4 .8c-.1 0 0 0 0 .2V5h.4a.7.7 0 0 1 .6.3c.3.4.3 1 .3 3.4a19.3 19.3 0 0 1-.1 3.3.8.8 0 0 1-.7.7h-.5v.3a.4.4 0 0 0 0 .3h5.6V13a.7.7 0 0 0 0-.3 5.6 5.6 0 0 1-1 0 1 1 0 0 1-.5-1c-.1-.7-.2-2.4-.1-3.7V6.6a1.8 1.8 0 0 1 1.2-.4 2.6 2.6 0 0 1 1.2.3 1.5 1.5 0 0 0 .4.1s1-2.4 1-2.5a1.2 1.2 0 0 0-1-.4Zm-6.7 4.2a4.5 4.5 0 0 0-2-3.6 5.2 5.2 0 0 0-4.8 0 4.5 4.5 0 0 0-2.1 2.5 6.7 6.7 0 0 0 0 3.9 4.2 4.2 0 0 0 1 1.8 4 4 0 0 0 2.3 1 10 10 0 0 0 1.7 0 5.3 5.3 0 0 0 .6 0 4.5 4.5 0 0 0 3.2-3.6 8.7 8.7 0 0 0 0-2Zm-4.2 5c-1 .3-1.7-.7-2-2.7a18.7 18.7 0 0 1 0-3.2c.2-1.7.7-2.5 1.5-2.5a1 1 0 0 1 .9.4c.6.7 1 2 1 4a7.4 7.4 0 0 1-.6 3.3 1.5 1.5 0 0 1-.8.7Zm18-9a3.3 3.3 0 0 0-.8 0 3.8 3.8 0 0 0-1.6.3l-.3.2V2.2a15 15 0 0 0 0-2.2l-4 .8a.3.3 0 0 0 0 .2c0 .2 0 .2.4.3a1.3 1.3 0 0 1 .4.1 1.2 1.2 0 0 1 .4.7 11.4 11.4 0 0 1 0 2.3v8.8h.4c.4.2 1.5.3 1.9.4a14 14 0 0 0 2.2 0 4.5 4.5 0 0 0 3.7-2.8 6.9 6.9 0 0 0 .4-1.6 9 9 0 0 0 0-2 3.9 3.9 0 0 0-3-3.3Zm-2.6 8.8V5.1h.2a2 2 0 0 1 .6 0 1 1 0 0 1 .6 0 3 3 0 0 1 1.3 2.4 11 11 0 0 1 0 2.1 4.8 4.8 0 0 1-1.2 3 1.4 1.4 0 0 1-.7.3 1.8 1.8 0 0 1-.6 0c-.2 0-.2 0-.2-.2Z"/></svg>