<svg xmlns="http://www.w3.org/2000/svg" viewBox="0 0 151 33"><path fill="#99ecff" d="M94.4 11.5a6 6 0 0 0-7.9 0c-1 1-1.5 2.4-1.5 4.2V23h2.9v-3.4H93V23h3v-7.3c0-1.8-.5-3.2-1.6-4.2ZM88 16.7v-.9c0-.8.2-1.7.7-2.4.4-.6 1.2-.9 1.9-.9s1.5.3 2 1c.4.6.7 1.5.6 2.3v1H88ZM14.4 6.4c-.5-.6-1.2-.9-2-.9a2 2 0 0 0-1.8 1c-.5.6-.8 1.5-.7 2.3V16H7V8.7c0-1.8.5-3.2 1.5-4.2S11 3 12.5 3a6 6 0 0 1 4 1.5c1 1 1.5 2.4 1.5 4.2V16h-2.9V8.8c0-.8-.2-1.7-.7-2.4ZM6.6 26.6c.4.6 1.2.9 2 .9a2 2 0 0 0 1.8-1c.5-.6.8-1.5.7-2.3V17H14v7.3c0 1.8-.5 3.2-1.5 4.2-1.1 1-2.5 1.5-4 1.5s-2.9-.5-4-1.5c-1-1-1.5-2.4-1.5-4.2V17h2.9v7.2c0 .8.2 1.7.7 2.4Zm39.8-13.2c-.4-.6-1.2-.9-2-.9a2 2 0 0 0-1.8 1c-.5.6-.8 1.5-.7 2.3V23H39v-7.3c0-1.8.5-3.2 1.5-4.2a6 6 0 0 1 8 0c1 1 1.5 2.4 1.5 4.2V23h-2.9v-7.2c0-.8-.2-1.7-.7-2.4Zm-17.8 6.2c.4.6 1.2.9 2 .9a2 2 0 0 0 1.8-1c.5-.6.8-1.5.7-2.3V10H36v7.3c0 1.8-.5 3.2-1.5 4.2-1.1 1-2.5 1.5-4 1.5s-2.9-.5-4-1.5c-1-1-1.5-2.4-1.5-4.2V10h2.9v7.2c0 .8.2 1.7.7 2.4ZM100 10h3v13h-3zm31.8 0v2.6H125v2.7h6.1v2.4H125v2.7h7V23h-10V10zm14.3 1.7a8 8 0 0 0-5.4-1.7H136v13h4.5c2.5 0 4.4-.6 5.7-1.8a6.3 6.3 0 0 0 1.8-4.8 6 6 0 0 0-1.9-4.7Zm-2.2 7.7c-.7.7-1.7 1-3 1h-2v-7.9h1.7c1.5 0 2.6.4 3.4 1 .7.7 1 1.7 1 3s-.3 2.3-1 3ZM78 23v-5.1h-6V23h-3V10h3v5.4h6V10h3v13zm36.4-9.6c-.4-.6-1.2-.9-2-.9a2 2 0 0 0-1.8 1c-.5.6-.8 1.5-.7 2.3V23H107v-7.3c0-1.8.5-3.2 1.5-4.2a6 6 0 0 1 8 0c1 1 1.5 2.4 1.5 4.2V23h-2.9v-7.2c0-.8-.2-1.7-.7-2.4ZM60 28c-.5 0-1.1 0-1.7-.3-.6-.1-1.2-.4-1.7-.8l-1.1-1.6c-.4-.8-.5-1.7-.5-2.5V10c0-.7.1-1.4.4-2A4.8 4.8 0 0 1 60 5a5 5 0 0 1 3.6 1.5 6 6 0 0 1 1.4 3.8v.8L62.1 13v-2.4a3 3 0 0 0-.5-1.8A2 2 0 0 0 60 8c-.9 0-1.5.3-1.8.9-.3.6-.4 1.3-.4 2v11.7c0 .7.1 1.3.5 1.8.3.5.8.8 1.6.8l.8-.1.7-.4.5-.8c.2-.4.3-.8.2-1.2v-1l2.9-1.9V23a5 5 0 0 1-1.5 3.5 5 5 0 0 1-1.5 1.2c-.6.3-1.3.4-2 .4Z"/></svg>

