<svg xmlns="http://www.w3.org/2000/svg" viewBox="0 0 32 32"><path fill="currentColor" d="M31.2 2c0-.7-.5-1.2-1.1-1.2-6.3-.3-11.8 2.3-16.7 8H4c-.6 0-1 .3-1.2.9l-2 8v.3c0 .7.5 1.3 1.2 1.3h4.5l-.6 1.2-.2.5c0 .3.2.7.4.9l4 4a1.2 1.2 0 0 0 1.5.2l1.1-.6v4.7c0 .6.6 1.2 1.3 1.2h.3l8-2c.6-.2 1-.7 1-1.2v-9.4c5-4.3 8.5-9.6 8-16.9zM3.6 16.7 5 11.2h6.3A50.6 50.6 0 0 0 8 16.6l-.2.3zm17.1 10.4-5.4 1.4v-4.4c2.1-1.2 4-2.4 5.6-3.6l-.1.1zm-9.5-3.7-2.7-2.8C14.3 9.3 21 3.4 28.8 3.3c0 9.2-7 14.8-17.6 20.3zM23 5.7A3.2 3.2 0 1 0 26.3 9c0-1.8-1.5-3.2-3.3-3.3zm0 4a.8.8 0 1 1 .8-.7c0 .4-.4.8-.8.8z"/></svg>