<svg xmlns="http://www.w3.org/2000/svg" viewBox="0 0 56 55"><g fill="none" fill-rule="evenodd"><path stroke="currentColor" stroke-width="4" d="M15.8 2H7.9A6 6 0 0 0 2 8v8a6 6 0 0 0 6 6h7.8a6 6 0 0 0 6-6V8a6 6 0 0 0-6-6Zm0 30H7.9A6 6 0 0 0 2 38v8a6 6 0 0 0 6 6h7.8a6 6 0 0 0 6-6v-8a6 6 0 0 0-6-6ZM47.4 2h-8a6 6 0 0 0-5.9 6v8a6 6 0 0 0 6 6h7.9a6 6 0 0 0 5.9-6V8a6 6 0 0 0-6-6Z"/><path fill="currentColor" fill-rule="nonzero" d="m42.4 50.3 6.2 4c1.2.7 2.6-.4 2.3-1.7l-1.7-7.4 5.5-5c1-1 .5-2.6-.8-2.7l-7.3-.7-2.8-7a1.5 1.5 0 0 0-2.8 0l-2.8 7-7.2.6c-1.3.1-1.9 1.9-.9 2.8l5.5 5-1.6 7.4c-.3 1.3 1 2.4 2.2 1.7l6.2-4Z"/></g></svg>