<svg xmlns="http://www.w3.org/2000/svg" viewBox="0 0 17 15"><g fill="currentColor" fill-rule="evenodd" transform="translate(1 1)"><path fill-rule="nonzero" stroke="currentColor" stroke-width=".6" d="M14.3 4.4v-2C14.3 1 13.3 0 12 0H2.2C1 0 0 1 0 2.4v8.2c0 1.3 1 2.3 2.2 2.3H12c1.3 0 2.3-1 2.3-2.3v-2c.4-.3.7-.8.7-1.3V5.8a1.7 1.7 0 0 0-.7-1.4ZM14 7.3c0 .3-.3.6-.6.6H8.9c-.4 0-.6-.3-.6-.6V5.8c0-.4.2-.7.6-.7h4.5c.4 0 .7.3.7.7v1.5ZM12 12H2.1c-.7 0-1.3-.7-1.3-1.4V2.4c0-.8.6-1.5 1.3-1.5H12c.7 0 1.4.7 1.4 1.5v1.8H8.9c-.8 0-1.5.7-1.5 1.6v1.5c0 .8.7 1.6 1.5 1.6h4.5v1.7c0 .7-.7 1.4-1.4 1.4Z"/><circle cx="9.3" cy="6.5" r="1"/></g></svg>