<svg xmlns="http://www.w3.org/2000/svg" viewBox="0 0 21 20"><g fill="none"><path fill="#FFF" d="M18 13c0 .6-.4 1-1 1H3a1 1 0 0 1-1-1V3c0-.6.4-1 1-1h14c.6 0 1 .4 1 1v10Zm0-13H2a2 2 0 0 0-2 2v12c0 1.1.9 2 2 2h6c.5 0 1 .5 1 1 0 .6-.5 1-1 1H5a1 1 0 0 0-1 1c0 .6.4 1 1 1h10a1 1 0 0 0 0-2h-3a1 1 0 0 1-1-1 1 1 0 0 1 1-1h6a2 2 0 0 0 2-2V2a2 2 0 0 0-2-2Z"/><path stroke="#99ecff" d="m10 5 3.6 6.5H6.4L10 5Z"/><path fill="#99ecff" d="m10 7.5 1.5 2.7h-3z"/><path fill="#99ecff" d="M10 8.6 5 6.5V9l5-.1zm0 0 5-2.1V9l-5-.1z"/></g></svg>