<svg xmlns="http://www.w3.org/2000/svg" viewBox="0 0 2999 891"><defs><linearGradient id="a" x1="53.1%" x2="43.5%" y1="95.6%" y2="27.8%"><stop offset="0%" stop-color="#00A0FF"/><stop offset=".7%" stop-color="#00A1FF"/><stop offset="26%" stop-color="#00BEFF"/><stop offset="51.2%" stop-color="#00D2FF"/><stop offset="76%" stop-color="#00DFFF"/><stop offset="100%" stop-color="#00E3FF"/></linearGradient><linearGradient id="b" x1="107.6%" x2="-130.5%" y1="50.9%" y2="50.9%"><stop offset="0%" stop-color="#FFE000"/><stop offset="40.9%" stop-color="#FFBD00"/><stop offset="77.5%" stop-color="orange"/><stop offset="100%" stop-color="#FF9C00"/></linearGradient><linearGradient id="c" x1="86.7%" x2="-50.5%" y1="61.4%" y2="-1.1%"><stop offset="0%" stop-color="#FF3A44"/><stop offset="100%" stop-color="#C31162"/></linearGradient><linearGradient id="d" x1="-19.3%" x2="41.8%" y1="86.8%" y2="58.9%"><stop offset="0%" stop-color="#32A071"/><stop offset="6.8%" stop-color="#2DA771"/><stop offset="47.6%" stop-color="#15CF74"/><stop offset="80.1%" stop-color="#06E775"/><stop offset="100%" stop-color="#00F076"/></linearGradient><linearGradient id="e" x1="86.2%" x2="-50.1%" y1="55.4%" y2="35.7%"><stop offset="0%" stop-color="#CC2E36"/><stop offset="100%" stop-color="#9C0E4E"/></linearGradient><linearGradient id="f" x1="80.8%" x2="36.1%" y1="1531.8%" y2="449.6%"><stop offset="0%" stop-color="#008DE0"/><stop offset=".7%" stop-color="#008DE0"/><stop offset="26%" stop-color="#00A7E0"/><stop offset="51.2%" stop-color="#00B8E0"/><stop offset="76%" stop-color="#00C4E0"/><stop offset="100%" stop-color="#00C7E0"/></linearGradient><linearGradient id="g" x1="112.8%" x2="-288.2%" y1="100%" y2="100%"><stop offset="0%" stop-color="#E0C500"/><stop offset="40.9%" stop-color="#E0A600"/><stop offset="77.5%" stop-color="#E09100"/><stop offset="100%" stop-color="#E08900"/></linearGradient><linearGradient id="h" x1="112.8%" x2="-288.2%" y1="0%" y2="0%"><stop offset="0%" stop-color="#FFE840"/><stop offset="40.9%" stop-color="#FFCE40"/><stop offset="77.5%" stop-color="#FFBC40"/><stop offset="100%" stop-color="#FFB540"/></linearGradient><linearGradient id="i" x1="80.5%" x2="36.2%" y1="23.4%" y2="-1009.8%"><stop offset="0%" stop-color="#40B8FF"/><stop offset=".7%" stop-color="#40B9FF"/><stop offset="26%" stop-color="#40CEFF"/><stop offset="51.2%" stop-color="#40DDFF"/><stop offset="76%" stop-color="#40E7FF"/><stop offset="100%" stop-color="#40EAFF"/></linearGradient><linearGradient id="j" x1="-18.8%" x2="42.1%" y1="59.8%" y2="51%"><stop offset="0%" stop-color="#65B895"/><stop offset="6.8%" stop-color="#62BD95"/><stop offset="47.6%" stop-color="#50DB97"/><stop offset="80.1%" stop-color="#44ED98"/><stop offset="100%" stop-color="#40F498"/></linearGradient></defs><g fill="none"><path fill="#041D3C" d="M2888 890H111C50 890 0 840 0 779V111C0 50 50 0 111 0h2777c61 0 111 50 111 111v668c0 61-50 111-111 111"/><path fill="#003D64" d="M2888 0H111C50 0 0 50 0 111v668c0 61 50 111 111 111h2777c61 0 111-50 111-111V111c0-61-50-111-111-111m0 18c51 0 93 42 93 93v668c0 51-42 93-93 93H111c-51 0-93-42-93-93V111c0-51 42-93 93-93h2777"/><path fill="#FFF" d="M1053 228c0 19-5 33-16 44a65 65 0 0 1-49 20c-19 0-36-6-49-20a67 67 0 0 1-20-49c0-20 6-37 20-50 13-14 30-20 49-20 9 0 19 2 27 5 9 4 16 9 21 15l-12 12c-8-11-21-16-36-16-14 0-26 5-37 15a51 51 0 0 0-15 39 51 51 0 0 0 52 53c15 0 27-5 37-15 7-7 10-16 11-27h-48v-16h64l1 10"/><path fill="#FFF" d="M1053 228h-2c0 18-5 32-16 43a62 62 0 0 1-47 19c-19 0-35-6-48-19a65 65 0 0 1-19-48 65 65 0 0 1 67-68c9 0 18 2 26 5 9 4 15 9 20 15l2-2-1-1-12 11 1 2 2-1c-9-11-22-17-38-17a53 53 0 0 0-54 56 53 53 0 0 0 54 55c15 0 28-5 39-16 7-6 10-16 11-28l1-2h-49v-12h62v-2h-2l1 10h5l-1-11-1-1h-68v20h50v-2h-2c-1 11-4 19-10 25a48 48 0 0 1-36 15c-14 0-25-5-35-15-10-9-15-21-15-36 0-16 5-28 15-37 10-10 21-15 35-15 15 0 26 5 35 15l1 2 14-13 1-2-1-1c-6-7-13-12-22-16s-18-5-28-5a69 69 0 0 0-71 72 69 69 0 0 0 71 71c20 0 37-6 50-20l-1-2 1 2c12-11 18-27 18-46h-3m103-56h-61v42h55v17h-55v42h61v16h-78V156h78v16"/><path fill="#FFF" d="M1156 172v-2h-63v47h55v11h-55v47h61v12h-74V158h74v14h2v-2 2h2v-18h-82v137h82v-20h-61v-38h55v-21h-55v-38h61v-2h-2m72 117h-17V172h-37v-16h91v16h-37v117"/><path fill="#FFF" d="M1228 289v-2h-15V170h-37v-12h87v12h-37v119h2v-2 2h2V174h37v-20h-96v20h38v117h21v-2h-2m104 0V156h17v133h-17"/><path fill="#FFF" d="M1332 289h2V158h12v129h-14v2h2-2v2h19V154h-22v137h3v-2m93 0h-18V172h-37v-16h92v16h-37v117"/><path fill="#FFF" d="M1425 289v-2h-15V170h-38v-12h88v12h-38v119h3v-2 2h2V174h37v-20h-96v20h37v117h22v-2h-2m125-28c10 10 22 15 36 15 15 0 27-5 37-15 9-10 14-23 14-38 0-16-5-29-14-39a49 49 0 0 0-37-15c-14 0-26 5-36 15a52 52 0 0 0-15 39c0 15 5 28 15 38Zm85 11a65 65 0 0 1-49 20c-19 0-35-6-49-20a68 68 0 0 1-19-49 68 68 0 0 1 117-50c13 14 20 30 20 50 0 19-7 36-20 49Z"/><path fill="#FFF" d="m1550 261-1 1c10 11 23 16 37 16 15 0 28-5 38-16 10-10 16-23 16-39s-6-30-16-40a51 51 0 0 0-38-16c-14 0-27 5-37 16a55 55 0 0 0-16 40c0 16 5 29 16 39l1-1 2-2c-10-9-14-21-14-36 0-16 4-28 14-37 9-10 21-15 34-15a50 50 0 0 1 49 51 50 50 0 0 1-49 52c-13 0-25-5-34-15l-2 2Zm85 11-1-2a63 63 0 0 1-48 20c-19 0-34-6-47-20a66 66 0 0 1-19-47 66 66 0 0 1 114-48 69 69 0 0 1 0 95l1 2 2 2c13-14 20-31 20-51a71 71 0 0 0-71-72c-20 0-37 7-50 20a71 71 0 0 0-20 52 69 69 0 0 0 70 71c20 0 37-7 51-20l-2-2Zm44 17V156h21l65 104V156h17v133h-18l-68-109h-1l1 26v83h-17"/><path fill="#FFF" d="M1679 289h2V158h18l64 104h5l-1-28v-76h12v129h-14l-68-109h-4l1 28v81h-15v2h2-2v2h19v-85l-1-26h-2v3h1v-3l-2 2 69 109h21V154h-22v80l1 26h2v-3 3l1-2-65-104h-24v137h2v-2m697 379h41V389h-41v279Zm373-178-48 120h-1l-49-120h-45l74 168-42 94h43l114-262h-46Zm-235 146c-14 0-33-7-33-24 0-21 24-29 44-29 19 0 27 4 38 9-3 26-25 44-49 44Zm5-153c-30 0-61 14-74 43l37 15c8-15 22-20 38-20 21 0 43 13 43 36v3c-7-5-23-11-43-11-40 0-80 22-80 63 0 37 32 61 69 61 28 0 43-13 53-27h1v21h40V560c0-49-37-77-84-77Zm-256 40h-59v-95h59c31 0 48 26 48 48 0 21-17 47-48 47Zm-1-134h-100v279h42V562h58c46 0 91-33 91-86s-45-87-91-87Zm-542 247c-29 0-53-24-53-57s24-58 53-58c28 0 50 25 50 58s-22 57-50 57Zm48-131h-2c-9-11-27-21-50-21-47 0-90 42-90 95s43 94 90 94c23 0 41-10 50-21h2v13c0 37-20 56-51 56-25 0-41-18-47-34l-37 15c11 25 38 56 84 56 49 0 90-28 90-98V490h-39v15Zm68 163h41V389h-41v279Zm102-92c-1-37 29-55 50-55 16 0 30 8 35 20l-85 35Zm129-32c-8-21-32-60-81-60-48 0-89 38-89 95 0 53 40 94 94 94 43 0 68-26 79-42l-33-21a54 54 0 0 1-46 26c-21 0-36-10-46-29l126-52-4-11Zm-1006-31v40h96c-3 23-11 39-22 51a98 98 0 0 1-74 29c-59 0-106-48-106-107a105 105 0 0 1 178-78l28-28c-24-23-56-41-100-41-81 0-149 66-149 147s68 147 149 147c43 0 76-14 102-41 26-26 35-64 35-94l-2-25h-135Zm246 123c-29 0-54-24-54-57 0-34 25-58 54-58 28 0 53 24 53 58 0 33-25 57-53 57Zm0-152c-53 0-95 40-95 95 0 54 42 94 95 94 52 0 95-40 95-94 0-55-43-95-95-95Zm207 152c-29 0-54-24-54-57 0-34 25-58 54-58 28 0 53 24 53 58 0 33-25 57-53 57Zm0-152c-53 0-95 40-95 95 0 54 42 94 95 94 52 0 94-40 94-94 0-55-42-95-94-95Z"/><path fill="#00C1FF" d="M233 169c-7 7-11 18-11 33v-3 492-3c0 14 3 24 10 31l1 2c6 4 12 7 20 7s16-2 25-8l322-183 111-63c14-8 22-18 23-29-1-11-9-21-23-29l-111-63-322-183c-9-5-17-8-25-8s-14 3-20 7Z"/><path fill="url(#a)" d="m233 169-1 2c-7 7-10 17-10 31v-3 492-3c0 15 4 26 11 33l276-276-276-276" transform="matrix(1 0 0 -1 0 890)"/><path fill="url(#b)" d="m600 353-91 92 91 92 111-63c14-8 22-18 23-29-1-11-9-21-23-29l-111-63" transform="matrix(1 0 0 -1 0 890)"/><path fill="url(#c)" d="M253 445c-8 0-14 3-20 7l276 276 91-92-322-184c-9-5-17-7-25-7" transform="matrix(1 0 0 -1 0 1173)"/><path fill="url(#d)" d="M509 162 233 438c6 5 12 7 20 7s16-2 25-7l322-184-91-92" transform="matrix(1 0 0 -1 0 607)"/><path fill="url(#e)" d="M253 537c-8 0-14 2-20 7l-1 2 1 1c6-4 12-7 20-7s16 3 25 8l322 183 3-2-3-1-322-184a53 53 0 0 0-25-7" transform="matrix(1 0 0 -1 0 1268)"/><path fill="url(#f)" d="M232 688c-7 7-10 17-10 31v3c0-13 3-24 10-31l1-1-1-2" transform="matrix(1 0 0 -1 0 1410)"/><path fill="url(#g)" d="m603 445-3 2 111 63c14 8 22 19 23 29 0-4 0-8-2-11-4-8-10-15-21-21l-108-62" transform="matrix(1 0 0 -1 0 984)"/><path fill="url(#h)" d="M734 351c-1 11-9 21-23 29l-111 63 2 2h1l108-62c16-9 23-20 23-32" transform="matrix(1 0 0 -1 0 796)"/><path fill="url(#i)" d="M222 168v7c0 12 4 21 10 27l1-1c-7-7-11-18-11-33" transform="matrix(1 0 0 -1 0 370)"/><path fill="url(#j)" d="M600 159 278 342c-9 5-17 8-25 8s-14-3-20-7l-1 1 1 2c6 5 12 7 20 7s16-2 25-7l325-185h-1l-2-2" transform="matrix(1 0 0 -1 0 512)"/></g></svg>