<svg xmlns="http://www.w3.org/2000/svg" xmlns:xlink="http://www.w3.org/1999/xlink" viewBox="0 0 2999 890"><defs><ellipse id="c" cx="221.3" cy="221.2" rx="221.3" ry="221.2"/><path id="a" d="M0 0h464v305H0z"/></defs><g fill="none" fill-rule="evenodd"><path fill="#041D3C" fill-rule="nonzero" d="M111 890C50 890 0 840 0 779V111C0 50 50 0 111 0h2777c61 0 111 50 111 111v668c0 61-50 111-111 111H111Z"/><path fill="#003D64" fill-rule="nonzero" d="M2888 0H111C50 0 0 50 0 111v668c0 61 50 111 111 111h2777c61 0 111-50 111-111V111c0-61-50-111-111-111m0 18c51 0 93 42 93 93v668c0 51-42 93-93 93H111c-51 0-93-42-93-93V111c0-51 42-93 93-93h2777"/><g fill="#FFF" fill-rule="nonzero"><path d="M1053 301h-2c0 18-5 32-16 43a62 62 0 0 1-47 19 65 65 0 0 1-67-67 65 65 0 0 1 67-68c9 0 18 2 26 5 9 4 15 9 20 15l2-2-1-1-12 11 1 2 2-1c-9-11-22-17-38-17a53 53 0 0 0-54 56 53 53 0 0 0 54 55c15 0 28-5 39-16 7-6 10-16 11-28l1-2h-49v-12h62v-2h-2l1 10h5l-1-11-1-1h-68v20h50v-2h-2c-1 11-4 19-10 25-9 10-22 15-36 15s-25-5-35-15c-10-9-15-21-15-36 0-16 5-28 15-37 10-10 21-15 35-15 15 0 26 5 35 15l1 2 14-13 1-2-1-1c-6-7-13-12-22-16s-18-5-28-5a69 69 0 0 0-71 72 69 69 0 0 0 71 71c20 0 37-6 50-20l-1-2 1 2c12-11 18-27 18-46h-3m103-56h-61v42h55v17h-55v42h61v16h-78V229h78v16"/><path d="M1156 245v-2h-63v47h55v11h-55v47h61v12h-74V231h74v14h2v-2 2h2v-18h-82v137h82v-20h-61v-38h55v-21h-55v-38h61v-2h-2m72 117h-17V245h-37v-16h91v16h-37v117"/><path d="M1228 362v-2h-15V243h-37v-12h87v12h-37v119h2v-2 2h2V247h37v-20h-96v20h38v117h21v-2h-2m104 0V229h17v133h-17"/><path d="M1332 362h2V231h12v129h-14v2h2-2v2h19V227h-22v137h3v-2m93 0h-18V245h-37v-16h92v16h-37v117"/><path d="M1425 362v-2h-15V243h-38v-12h88v12h-38v119h3v-2 2h2V247h37v-20h-96v20h37v117h22v-2h-2m125-28c10 10 22 15 36 15 15 0 27-5 37-15 9-10 14-23 14-38 0-16-5-29-14-39a49 49 0 0 0-37-15c-14 0-26 5-36 15a52 52 0 0 0-15 39c0 15 5 28 15 38Zm85 11a65 65 0 0 1-49 20c-19 0-35-6-49-20a68 68 0 0 1-19-49 68 68 0 0 1 117-50c13 14 20 30 20 50 0 19-7 36-20 49Zm44 17V229h21l65 104V229h17v133h-18l-68-109h-1l1 26v83h-17m-626-61c0 19-5 33-16 44a65 65 0 0 1-49 20c-19 0-36-6-49-20a67 67 0 0 1-20-49c0-20 6-37 20-50 13-14 30-20 49-20 9 0 19 2 27 5 9 4 16 9 21 15l-12 12c-8-11-21-16-36-16a51 51 0 0 0-52 54 51 51 0 0 0 52 53c15 0 27-5 37-15 7-7 10-16 11-27h-48v-16h64l1 10"/><path d="m1550 334-1 1c10 11 23 16 37 16 15 0 28-5 38-16 10-10 16-23 16-39s-6-30-16-40a51 51 0 0 0-38-16c-14 0-27 5-37 16a55 55 0 0 0-16 40c0 16 5 29 16 39l1-1 2-2c-10-9-14-21-14-36 0-16 4-28 14-37 9-10 21-15 34-15a50 50 0 0 1 49 51 50 50 0 0 1-49 52c-13 0-25-5-34-15l-2 2Z"/><path d="m1635 345-1-2a63 63 0 0 1-48 20c-19 0-34-6-47-20a66 66 0 0 1-19-47 66 66 0 0 1 114-48c25 27 25 68 0 95l1 2 2 2c13-14 20-31 20-51a71 71 0 0 0-71-72 69 69 0 0 0-70 72 69 69 0 0 0 70 71c20 0 37-7 51-20l-2-2Z"/></g><path fill="#FFF" fill-rule="nonzero" d="M1010 612h28c-1 11-4 20-9 28-5 9-12 15-21 20s-21 7-34 7c-10 0-19-2-27-5-16-8-28-22-34-39-3-10-4-21-4-32v-14c0-11 2-22 5-31 3-10 7-18 13-25 6-6 13-11 21-15s17-5 27-5c13 0 24 2 33 7s16 11 21 19c5 9 8 18 9 29h-28c-1-7-2-13-5-18-2-5-6-8-11-11s-11-4-19-4c-6 0-12 1-16 4-5 2-9 5-12 10-4 5-6 10-8 17l-2 23v14l2 22 7 17c3 5 7 8 12 11 11 5 25 5 36 0 5-3 8-6 11-11s4-11 5-18Zm77-118v171h-27V494h27Zm-4 106h-9c0-8 1-16 3-23 3-7 6-13 10-18a43 43 0 0 1 50-14c5 1 9 4 13 8 3 3 6 8 8 14l2 21v77h-27v-78c0-5 0-10-2-14l-7-7-12-2c-9 0-17 4-22 11-3 3-4 7-6 11l-1 14Zm132-33v98h-27V544h25l2 23Zm36-23v25l-11-1c-4 0-8 0-12 2-7 2-12 7-14 14l-2 11-6 1c0-8 0-15 2-21 1-7 4-12 7-17s6-9 11-12c6-3 14-5 21-3l4 1Zm9 62v-3c0-8 2-16 4-24 3-7 6-14 11-19 5-6 11-10 18-13 15-7 32-7 47 0 7 3 13 7 18 13l11 19 3 24v3c0 9-1 17-3 24-3 8-7 14-11 20a58 58 0 0 1-41 17c-16 0-31-6-42-17-5-6-8-12-11-20-2-7-4-15-4-24Zm27-3v3l2 15 5 13c2 4 6 6 9 9 4 2 8 3 14 3 9 0 17-4 22-12l5-13 2-15v-3l-2-15c-1-5-3-9-6-13-5-7-13-11-22-11-5 0-9 1-13 3s-7 5-9 8l-5 13-2 15Zm135-34v96h-27V544h25l2 25Zm-4 31h-10c0-8 1-16 4-23 2-7 5-13 9-18 4-6 9-10 15-12 11-6 24-7 36-2 4 1 8 4 11 7 4 4 6 8 8 13 2 6 3 12 3 20v80h-27v-78c0-6-1-11-3-14-1-3-4-6-7-7l-11-2c-6 0-10 1-13 3-4 2-7 4-9 8l-5 11-1 14Zm74-7-12 3 3-21c2-6 5-12 9-17 8-11 21-17 35-16 6 0 12 1 16 3 5 1 9 4 13 8l8 13 2 21v78h-27v-78l-2-14c-2-4-5-6-8-7-3-2-7-2-11-2l-11 2-8 6-5 10-2 11Zm155 74c-24 2-46-12-54-35-2-7-4-15-4-23v-5c0-9 2-18 4-25 3-8 7-14 12-20a55 55 0 0 1 61-12c7 2 12 7 17 12 4 5 7 11 9 18l3 24v12h-93v-20h67v-2c0-5-1-9-3-13-2-5-4-8-8-11-3-2-8-3-14-3l-12 2c-4 2-6 5-9 9-2 3-4 7-5 13l-2 16v5l2 14c2 5 4 9 7 12l10 8c16 7 34 2 44-12l14 14-10 10c-4 4-9 7-15 9s-13 3-21 3Zm170-39 32-125h17l-2 32-34 130h-18l5-37Zm-25-125 27 124 2 38h-19l-37-162h27Zm111 124 26-124h27l-37 162h-19l3-38Zm-30-124 32 126 4 36h-17l-34-130-2-32h17Zm151 164c-24 2-46-12-54-35-3-7-4-15-4-23v-5c0-9 2-18 4-25 3-8 7-14 12-20 5-5 10-10 17-12 14-6 30-6 44 0 7 2 12 7 17 12 4 5 7 11 9 18l3 24v12h-93v-20h67v-2c0-5-1-9-3-13-2-5-4-8-8-11-4-2-8-3-14-3l-12 2c-4 2-6 5-9 9-2 3-4 7-5 13l-2 16v5l2 14c2 5 4 9 7 12l10 8c16 7 34 2 44-12l14 14-10 10c-4 4-9 7-15 9s-13 3-21 3Zm69-173h27v145l-2 26h-25V494Zm106 110v2c0 9-1 17-3 24-2 8-5 14-9 20-4 5-9 10-15 13-5 3-12 4-20 4-7 0-14-1-19-4-6-3-11-7-14-12-4-5-7-12-9-19-3-7-4-15-5-24v-7c1-9 2-17 5-24 2-7 5-13 9-18 7-11 20-17 33-17 8 0 15 2 20 5 6 3 11 7 15 12 4 6 7 12 9 20 2 7 3 15 3 25Zm-27 2v-2l-1-16c-1-5-2-9-5-12-2-4-4-7-8-9-3-2-8-3-13-3l-12 2-9 7-5 10-3 12v20l5 15c2 5 5 8 9 11s9 4 16 4c9 1 17-4 21-11l4-13 1-15Zm195 17-2-9c-1-2-2-5-5-7l-11-6-17-6-21-8c-7-3-13-7-17-11-5-4-9-8-12-13-2-5-4-11-4-18 0-13 6-25 16-32 12-8 27-13 42-13 12 1 23 3 31 7 16 8 27 25 28 43h-28c0-5-1-10-4-14-2-4-5-7-10-10-4-2-10-3-17-3s-12 1-17 3c-4 2-7 4-9 8-3 3-4 7-4 11l2 9 7 6c3 3 6 5 11 6l15 6c9 2 17 5 24 9 7 3 12 6 17 11 9 8 13 19 13 31 0 7-1 13-4 18-3 6-7 10-12 14s-11 7-18 9c-23 6-48 3-68-10-6-4-11-9-14-16-4-6-6-14-6-22h28c0 5 1 10 3 13 2 4 4 7 8 9 3 3 7 4 11 6 10 2 20 1 30-2 5-1 8-4 10-7 3-4 4-8 4-12Zm105-79v20h-68v-20h68Zm-48-29h27v117l1 8 5 4 7 1 9-1v20a51 51 0 0 1-34 0c-5-2-8-6-11-11s-4-12-4-20V515Zm61 91v-3c0-8 2-16 4-24 3-7 6-14 11-19a58 58 0 0 1 65-13c7 3 13 7 18 13l11 19 3 24v3c0 9-1 17-3 24-3 8-7 14-11 20a58 58 0 0 1-41 17c-16 0-31-6-42-17-5-6-8-12-11-20-2-7-4-15-4-24Zm27-3v3l2 15 5 13c2 4 5 6 9 9 4 2 8 3 13 3 9 0 18-4 23-12l5-13 2-15v-3l-2-15c-1-5-3-9-6-13-5-7-13-11-22-11-5 0-9 1-13 3s-7 5-9 8l-5 13-2 15Zm135-36v98h-27V544h26l1 23Zm37-23v25l-11-1c-5 0-9 0-12 2-7 2-12 7-15 14l-2 11-6 1 2-21 7-17c3-5 7-9 11-12 7-4 15-5 22-3l4 1Zm68 123c-24 2-46-12-54-35-3-7-4-15-4-23v-5c0-9 1-18 4-25 4-15 15-26 29-32 14-7 30-7 44 0 7 2 12 7 16 12s8 11 10 18l3 24v12h-93v-20h66v-2l-2-13c-2-5-5-8-8-11-4-2-9-3-15-3l-12 2c-3 2-6 5-8 9l-6 13-1 16v5c0 5 0 10 2 14 1 5 3 9 6 12l11 8a37 37 0 0 0 44-12l14 14-10 10c-4 4-10 7-16 9-5 2-12 3-20 3Z"/><path fill="#EEE" fill-rule="nonzero" d="M221 224v408c0 19 16 35 35 35h443c19 0 35-16 35-35V224H221Zm315 93H419a23 23 0 0 1 0-46h117a23 23 0 0 1 0 46Z"/><g transform="translate(240 362)"><mask id="b" fill="#fff"><use xlink:href="#a"/></mask><g mask="url(#b)"><g transform="translate(16 49)"><mask id="d" fill="#fff"><use xlink:href="#c"/></mask><g fill-rule="nonzero" mask="url(#d)"><path fill="#DB4437" d="M35-1v272h99l87-151h222V-1H35Zm0 0v272h99l87-151h222V-1H35Z"/><path fill="#0F9D58" d="M0 442h211l97-97v-74H134L0 41v401Zm0 0h211l97-97v-74H134L0 41v401Z"/><path fill="#FFCD40" d="m221 120 87 151-97 171h232V120H221Zm0 0 87 151-97 171h232V120H221Z"/><path fill="#F1F1F1" d="M221 322a101 101 0 1 0 0-202 101 101 0 0 0 0 202Z"/><path fill="#4285F4" d="M221 302a81 81 0 1 0 0-162 81 81 0 0 0 0 162Z"/></g></g></g></g></g></svg>