<svg xmlns="http://www.w3.org/2000/svg" viewBox="0 0 28 43" fill="#25C1FF"><path fill="#fff" d="M14.7 27.1a3.3 3.3 0 1 0 0 6.7 3.3 3.3 0 0 0 0-6.7Zm0 5.4a2 2 0 1 1 0-4.1 2 2 0 0 1 0 4.1Z"/><path fill="#fff" d="M26.9 24.7c.2-1.8 0-3.4-.9-4.5.2-.3.2-.6.2-1a2.2 2.2 0 0 0-4.2-1 14 14 0 0 0-7.3 2.2c-4.6-2.7-8.8-3-11-.8-.9.9-1.3 2.2-1.3 3.9a2.2 2.2 0 0 0 .8 4.3l1.4 2.6c-2.7 4.6-3 8.8-.8 11 1 .9 2.3 1.3 3.9 1.3 2 0 4.4-.7 7-2.2 2.5 1.5 5 2.2 7 2.2 1.5 0 2.9-.4 3.8-1.4 2.2-2.1 1.9-6.3-.8-10.9 1.2-2 2-4 2.2-5.7Zm-5.1-5.3a2.2 2.2 0 0 0 3.4 1.8c.4.8.6 2 .4 3.3-.2 1.4-.8 3-1.6 4.7a28.3 28.3 0 0 0-8.1-8c2.1-1.2 4.2-1.8 5.9-1.8Zm-17.3 8a2.2 2.2 0 0 0-.9-4.1 4 4 0 0 1 1-2.8c1.7-1.7 5-1.4 8.8.6a28.4 28.4 0 0 0-8 8.1l-.9-1.8Zm.2 13c-1.6-1.6-1.4-5 .7-8.7a28.4 28.4 0 0 0 8 8c-3.7 2-7.1 2.3-8.7.7Zm5.2-5.2A26.8 26.8 0 0 1 6 30.4a26.8 26.8 0 0 1 8.6-8.6 26.8 26.8 0 0 1 8.5 8.6 26.8 26.8 0 0 1-8.5 8.6c-1.7-1-3.3-2.3-4.8-3.8Zm14.7 5.2c-1.6 1.6-5 1.4-8.7-.7a28.4 28.4 0 0 0 8-8c2 3.7 2.4 7.1 .7 8.7Z"/><circle cx="24" cy="19" r="3"/><circle cx="3" cy="25.5" r="3"/><path d="M14.5 5c.3 0 .5.2.5.5v2.6a2 2 0 0 1 1.5 1.9v3a2 2 0 0 1-1.5 2v1.5a.5.5 0 0 1-1 0v-1.6a2 2 0 0 1-1.5-1.9v-3A2 2 0 0 1 14 8V5.6c0-.3.2-.5.5-.5Zm5-5c.3 0 .5.2.5.5v1.6A2 2 0 0 1 21.5 4v6a2 2 0 0 1-1.5 2v2.5a.5.5 0 0 1-1 0v-2.6a2 2 0 0 1-1.5-1.9V4A2 2 0 0 1 19 2V.6c0-.3.2-.5.5-.5Zm-10 2c.3 0 .5.2.5.5v2.6A2 2 0 0 1 11.5 7v3a2 2 0 0 1-1.5 2v1.5a.5.5 0 0 1-1 0v-1.6A2 2 0 0 1 7.5 10V7A2 2 0 0 1 9 5V2.6c0-.3.2-.5.5-.5Z"/></svg>
