<svg xmlns="http://www.w3.org/2000/svg" viewBox="0 0 31 44"><g fill="none"><path fill="#25C1FF" d="M15.2.2c.3-.3.7-.3 1 0a9.6 9.6 0 0 0 7.1 2.7c.4 0 .7.3.7.7v1.5c.2 5 .3 12-8 14.8h-.5C7 17 7.2 10.2 7.3 5.1V3.6c0-.4.3-.7.8-.7 3 0 5.2-.9 7-2.7Zm5.5 6.4a1 1 0 0 0-1.4 0l-4.6 4.3L13 9a1 1 0 0 0-1.4 0 1 1 0 0 0 0 1.3l2.3 2.6c.2.2.4.4.7.4.3 0 .5-.1.7-.3l5.4-5c.4-.4.4-1 0-1.4Z"/><path fill="#FFF" stroke="#FFF" d="m30 29.6-2.8-5.4c-.3-.5-.7-.8-1.2-.8H5c-.4 0-.9.3-1.1.8l-2.7 5.4a1 1 0 0 0 0 .9c.1.2.4.4.7.4H4v10.7c0 .8.6 1.4 1.3 1.4h20.3c.7 0 1.3-.6 1.3-1.4V37a.4.4 0 0 0-1 0v4.6c0 .3-.1.5-.3.5H16V25.7l2.3 4.5c.2.4.5.7 1 .7H26V37a.4.4 0 0 0 .9 0v-6h2.2c.3 0 .5-.2.7-.4a1 1 0 0 0 0-1ZM2 30l2.7-5.4c0-.2.2-.3.4-.3h9.7L12 29.8l-.2.2H1.9Zm13 12H5.5c-.2 0-.4-.2-.4-.5V31h6.8c.4 0 .8-.3 1-.7l2.3-4.5v16.4Zm4.4-12c-.1 0-.2 0-.3-.2l-2.8-5.5H26l.4.3 2.7 5.4h-9.8Z"/></g></svg>