<svg xmlns="http://www.w3.org/2000/svg" viewBox="0 0 29 44"><g fill="none" fill-rule="evenodd"><g transform="translate(1 17)"><path stroke="#FFF" stroke-width="2" d="m2 0 7.9.1 2.7 2.7L18 4.5V24a2 2 0 0 1-2 2H2a2 2 0 0 1-2-2V2a2 2 0 0 1 2-2Z"/><rect width="14" height="2" x="2" y="19" fill="#FFF" fill-rule="nonzero" rx="1"/><rect width="14" height="2" x="2" y="15" fill="#FFF" fill-rule="nonzero" rx="1"/><rect width="14" height="2" x="2" y="11" fill="#FFF" fill-rule="nonzero" rx="1"/></g><path fill="#25C1FF" fill-rule="nonzero" d="M18 0a11 11 0 1 1 0 22 11 11 0 0 1 0-22Zm0 2a1.8 1.8 0 0 0-1.6 2.6l-3.1 1.8c-.3-.5-.8-.8-1.4-.8h-.1a1.8 1.8 0 1 0 0 3.5v3.6a1.8 1.8 0 1 0 1.5 2.6l3.2 1.8-.3.9a1.8 1.8 0 1 0 3.3-.9l3.2-1.8a1.8 1.8 0 1 0 1.7-2.6h-.2V9h.2a1.8 1.8 0 0 0 0-3.5h-.2c-.6 0-1.2.3-1.5.8l-3.1-1.8.2-.8c0-1-.7-1.7-1.7-1.8H18Zm1.3 10.4 3.2 1.8v.3l-3.5 2-.6-.2v-3.4c.3 0 .7-.3 1-.5Zm-1.7.5v3.4l-.6.2-3.4-2a1.8 1.8 0 0 0-.1-.6l3-1.7c.3.3.7.6 1.1.7Zm5.8-4v4c-.3 0-.5.3-.7.6l-3-1.8a1.8 1.8 0 0 0 0-1.3l3.2-1.9.5.4ZM13 8.7l3.4 2a1.8 1.8 0 0 0 0 .8L13 13.3l-.5-.5V9l.3-.2Zm4.7-3.2v4c-.3 0-.7.2-1 .5l-3.2-1.9a1.8 1.8 0 0 0 .1-1L17 5.3l.6.3Zm1.4-.3 3.5 2a1.8 1.8 0 0 0 0 .7l-3.3 2c-.2-.3-.5-.4-.8-.5V5.5l.6-.3Z"/></g></svg>