<svg width="21" height="20" fill="none" xmlns="http://www.w3.org/2000/svg"><path d="M20.193 7.347s-.839-.41-1.71-.144c-.65.197-1.363.705-1.77 1.758-.782 2.02-.104 5.544-.37 5.544-.264 0-1.098-3.247-2.214-6.628-1.116-3.382-2.082-6.894-3.824-6.61-1.545.25-1.065 4.254-.46 8.005.548 3.4 1.182 6.583.82 6.583-.648.002-2.772-9.397-4.95-9.04-2.177.357.628 10.712.038 10.732-.484.016-1.671-6.304-3.433-6.013-1.336.22-.146 5.136-.091 6.507.013.344.117.99-.385.99H.848v.955h1.631c.336-.016.6-.148.735-.487.453-1.147-.737-6.022-.458-6.057.19-.024.603 1.46 1.18 3.137.575 1.678 1.152 3.417 2.246 3.417 2.358 0-.047-9.51.42-9.51.247 0 .921 1.932 1.663 4.052.907 2.59 2.012 5.462 3.348 5.462 1.593 0 1.074-3.71.581-7.265-.427-3.076-.928-5.967-.66-5.967.6 0 2.872 13.227 5.6 13.227 1.366 0 1.381-2.765 1.381-5.746 0-2.095-.17-4.003 1.11-4.462.608-.218 1.223.169 1.223.169l-.655-2.61Z" fill="#fff"/></svg>