<svg xmlns="http://www.w3.org/2000/svg" xml:space="preserve" viewBox="0 0 1080 1080" fill="#fff"><path d="M537-1a540 540 0 1 0 4 1080A540 540 0 0 0 537-1zm-69 514a97 97 0 1 1 0-194 97 97 0 0 1 0 194zm77 104 1-1c28 17 59 24 91 25a425 425 0 0 0 187-37c17-7 34-14 50-23a626 626 0 0 0 35-24v1l1 1a479 479 0 0 1-274 98c-33-3-68-15-91-40zm248-104c0-12 9-21 21-21 11 0 21 9 21 20 0 12-10 21-21 21s-21-9-21-20zm-165 518c-21-147 106-290 178-363 17-17 42-39 65-64 94-87 112-191-79-244-36-10-74-25-112-40l-4-10c-4-7-12-16-23-26-25-22-72-21-112-11-45-11-89-15-131-5-185 51-215 142-222 250-10 118-15 205-60 305a499 499 0 1 1 499 207z" class="st0"/><path d="M536 417a68 68 0 1 1-136 0 68 68 0 0 1 136 0z" class="st0"/></svg>