<svg width="23" height="23" xmlns="http://www.w3.org/2000/svg"><path d="m21.256 2.75-.076-.194a.023.023 0 0 0-.012-.012l-.188-.086c-1.555-.706-3.747-.88-5.687-.958H13.11c-.025 0-.033.033-.01.044l4.487 2.153c.025.012.011.05-.016.043a24.015 24.015 0 0 0-6.07-.795c-2.007 0-4.039.265-6.05.79-.028.007-.042-.031-.017-.043l4.645-2.148c.023-.01.016-.044-.01-.044H7.708c-1.94.077-4.132.252-5.686.958l-.19.086a.023.023 0 0 0-.011.012l-.076.193C.154 6.782-.3 13.63.184 17.92l.024.224.18.14c2.484 1.927 5.807 2.918 7.897 3.181l.27.034a.191.191 0 0 0 .203-.122l1.36-3.637a.191.191 0 0 0-.15-.256l-.417-.066c-1.455-.229-3.518-.835-5.26-2.417-.038-.034-.002-.094.045-.077.142.053.298.114.459.177.394.154.802.313 1.068.376 1.869.445 3.764.67 5.637.67v-.033h.004v.034c1.87 0 3.764-.226 5.633-.67.266-.064.674-.223 1.068-.377.16-.063.317-.124.459-.177.047-.017.082.043.045.077-1.737 1.575-3.802 2.18-5.26 2.409l-.418.065a.191.191 0 0 0-.15.256l1.361 3.646a.191.191 0 0 0 .203.122l.27-.034c2.09-.263 5.413-1.254 7.898-3.182l.179-.139.025-.225c.482-4.289.03-11.136-1.56-15.169ZM7.06 12.65c-1.69.15-3.1-1.26-2.949-2.95a2.72 2.72 0 0 1 2.454-2.456c1.69-.15 3.099 1.26 2.949 2.95a2.72 2.72 0 0 1-2.454 2.456Zm9.376 0c-1.69.15-3.1-1.26-2.95-2.95a2.72 2.72 0 0 1 2.454-2.456c1.69-.15 3.1 1.26 2.95 2.95a2.72 2.72 0 0 1-2.454 2.456Z" fill="#FFF" fill-rule="nonzero"/></svg>