<svg width="23" height="23" xmlns="http://www.w3.org/2000/svg"><path d="M20.659 6.105a10.085 10.085 0 0 0-3.64-3.73A9.598 9.598 0 0 0 12 1 9.599 9.599 0 0 0 6.98 2.375a10.084 10.084 0 0 0-3.639 3.73C2.447 7.675 2 9.391 2 11.25c0 2.234.636 4.243 1.908 6.027 1.271 1.784 2.914 3.018 4.928 3.703.234.045.408.014.52-.093a.528.528 0 0 0 .17-.4l-.007-.721c-.004-.454-.006-.85-.006-1.188l-.3.053c-.19.036-.432.051-.723.047a5.376 5.376 0 0 1-.904-.093 1.999 1.999 0 0 1-.873-.4 1.693 1.693 0 0 1-.573-.821l-.13-.307a3.351 3.351 0 0 0-.41-.68c-.187-.25-.375-.419-.566-.508l-.091-.067a.965.965 0 0 1-.17-.16.735.735 0 0 1-.117-.187c-.026-.062-.004-.114.065-.154.07-.04.196-.06.378-.06l.26.04c.174.036.389.143.645.32.256.179.466.41.631.695.2.364.44.643.723.834.282.191.566.287.853.287.286 0 .533-.023.742-.067.208-.044.403-.111.586-.2.078-.597.29-1.055.638-1.375a8.718 8.718 0 0 1-1.335-.24 5.242 5.242 0 0 1-1.224-.521 3.527 3.527 0 0 1-1.048-.894c-.278-.356-.506-.823-.684-1.402-.177-.578-.266-1.245-.266-2.002 0-1.077.343-1.993 1.028-2.75-.32-.809-.29-1.717.091-2.722.252-.08.625-.02 1.12.18.495.2.857.372 1.087.514.23.142.415.263.554.36a9.034 9.034 0 0 1 2.5-.347c.86 0 1.693.116 2.5.347l.495-.32c.338-.213.738-.41 1.197-.587.46-.178.812-.227 1.056-.147.39 1.006.425 1.913.103 2.723.686.756 1.03 1.673 1.03 2.75 0 .756-.09 1.425-.268 2.008-.178.583-.407 1.05-.69 1.402a3.661 3.661 0 0 1-1.054.887c-.421.24-.83.414-1.224.52a8.71 8.71 0 0 1-1.335.241c.451.4.677 1.032.677 1.895v2.816c0 .16.054.294.163.4.108.107.28.139.514.094 2.014-.685 3.657-1.92 4.929-3.704C21.364 15.492 22 13.484 22 11.25c0-1.86-.448-3.574-1.341-5.145Z" fill="#FFF" fill-rule="nonzero"/></svg>