<svg class="connect__qq-icon" xmlns="http://www.w3.org/2000/svg" width="19" height="21"><g fill="#FFF"><path d="M4.268 12.007s-.065.456-.13.982a37.19 37.19 0 0 0-.089.792c-.016.127-.024.246-.032.351-.009.105-.009.196-.009.274 0 .147.017.294.057.434.033.106.073.21.138.31.097.146.235.28.421.392.186.112.405.196.68.266.373.099.81.169 1.224.169.162 0 .316-.014.47-.035.113-.021.226-.05.323-.092.154-.063.3-.154.405-.28a.838.838 0 0 0 .178-.463c.025-.414.05-.954.065-1.389.017-.435.025-.771.025-.771l-.527-.014v.056c-.008.266-.04 1.375-.089 2.083a.484.484 0 0 1-.065.21.43.43 0 0 1-.105.099.947.947 0 0 1-.275.105 2.246 2.246 0 0 1-.405.035 4.63 4.63 0 0 1-1.078-.147 1.856 1.856 0 0 1-.486-.183.768.768 0 0 1-.38-.428 1.23 1.23 0 0 1-.049-.364c0-.063 0-.148.008-.246.024-.35.09-.877.146-1.311.032-.218.057-.414.073-.554a2.37 2.37 0 0 1 .024-.169c.008-.042.008-.063.008-.063l-.526-.049zM8.5 4c-.28 0-.5.451-.5 1 0 .549.228 1 .5 1 .28 0 .5-.451.5-1 0-.549-.228-1-.5-1zm.14 1.245c-.118 0-.214-.196-.214-.431 0-.236.096-.432.214-.432.117 0 .213.196.213.432 0 .245-.096.431-.213.431zm2.748-.652a.361.361 0 0 1 .06-.097c.019-.015.03-.022.049-.022.012 0 .03.007.048.022a.452.452 0 0 1 .091.17c.025.09.043.2.043.327H12c0-.252-.042-.49-.127-.667a.71.71 0 0 0-.158-.23.32.32 0 0 0-.218-.096.331.331 0 0 0-.218.096.84.84 0 0 0-.206.378A1.776 1.776 0 0 0 11 5h.321a1.01 1.01 0 0 1 .067-.407z"/><path d="M17.573 10.854a6.416 6.416 0 0 0-.504-.647 1.747 1.747 0 0 0 .256-.572 3.3 3.3 0 0 0 .09-.746 2.75 2.75 0 0 0-.24-1.144 3.125 3.125 0 0 0-.67-.94l-.271-.272c-.03-.293-.083-.662-.18-1.159-.242-1.257-1.348-3.184-2.695-4.11C12.05.37 10.387.016 9.5 0c-.73-.007-2.4.264-3.86 1.265-1.347.925-2.543 2.837-2.694 4.11-.082.722-.105 1.181-.097 1.527-.023.008-.158.038-.317.15a.912.912 0 0 0-.24.242.978.978 0 0 0-.166.391c-.045.24-.075.361-.083.43a.985.985 0 0 0-.112.172 1.368 1.368 0 0 0-.113.256 1.143 1.143 0 0 0-.03.565c.03.135.082.33.173.572.045.113.097.225.158.353a7.35 7.35 0 0 0-.685.843C.695 11.953-.102 13.91.01 15.04c.15 1.422.338 1.468.835 1.174.55-.331 1.174-1.325 1.174-1.325s.67 1.822 1.76 2.793c1.272 1.129 2.446 1.814 3.868 2.107.926.188 1.543.218 1.851.211.316.007.926-.023 1.851-.21 1.423-.294 2.596-.98 3.868-2.108 1.091-.971 1.76-2.793 1.76-2.793s.625.994 1.175 1.325c.489.294.684.248.835-1.174.12-1.144-.677-3.101-1.415-4.185zm-6.177-7.828c.714 0 1.294.866 1.294 1.934 0 1.07-.58 1.935-1.294 1.935-.715 0-1.295-.866-1.295-1.935 0-1.068.58-1.934 1.295-1.934zm-3.62 0c.715 0 1.294.866 1.294 1.934 0 1.07-.579 1.935-1.294 1.935-.715 0-1.294-.866-1.294-1.935 0-1.068.58-1.934 1.294-1.934zM6.821 7.58c.887-.384 2.513-.467 2.934-.49h.09c.422.015 2.04.106 2.935.49 1.03.444 1.618.685 1.618.933s-.196.49-.738.738c-.541.248-.782.195-.782.195s.293-.338.391-.685c0 0-1.467 1.212-3.235 1.318h-.49C7.776 9.973 6.31 8.76 6.31 8.76c.098.347.391.685.391.685s-.248.053-.782-.195c-.542-.249-.738-.49-.738-.738s.617-.497 1.64-.933zm-4.432.873a.417.417 0 0 1 .045-.06c.007-.008.007-.008.007-.015l.053-.053.015-.075.098-.49c.015-.09.052-.15.083-.203a.679.679 0 0 1 .067-.075c.03.09.075.196.136.316.128.27.323.61.617.956.436.527 1.09 1.091 2.046 1.52.956.43 2.22.723 3.868.723h.233c1.52-.023 2.71-.279 3.65-.647a6.45 6.45 0 0 0 1.7-.986 4.865 4.865 0 0 0 1.272-1.566c.06-.128.113-.24.15-.339.12.158.219.324.301.49.128.286.204.594.204.94 0 .204-.023.414-.076.64a1.415 1.415 0 0 1-.158.369c-.15.248-.398.534-.714.835a8.57 8.57 0 0 1-1.852 1.272c-.73.377-1.542.678-2.362.813a9.34 9.34 0 0 1-1.603.128c-1.046 0-2.107-.15-3.078-.384a12.859 12.859 0 0 1-2.565-.895c-.866-.422-1.408-.979-1.746-1.483a3.754 3.754 0 0 1-.369-.7 2.925 2.925 0 0 1-.15-.482.838.838 0 0 1-.015-.128.82.82 0 0 1 .03-.195 1.04 1.04 0 0 1 .113-.226zm12.054 8.912c-1.4 1.851-4.1 2.182-4.936 2.235-.835-.06-3.537-.391-4.936-2.235-1.663-2.206-1.37-4.554-1.174-5.24a6.05 6.05 0 0 1 .165-.473c.226.158.474.308.753.444.737.361 1.655.692 2.664.933 1.008.241 2.099.399 3.19.399.564 0 1.129-.045 1.678-.135 1.34-.226 2.626-.843 3.62-1.543.007 0 .007-.008.014-.008.053.128.098.256.128.376.203.7.497 3.049-1.166 5.247z"/><path d="M3.74 17.583A5.038 5.038 0 0 1 3.22 17c-.231.144-.527.33-.719.498-.288.262-.416.659-.152.718 0 0-1.215 1.275.888 2.195 2.134.938 4.468.66 5.611-.16a6.54 6.54 0 0 1 .152-.11 10.55 10.55 0 0 1-1.151-.194c-1.51-.338-2.758-1.106-4.109-2.364zm7.412 2.362c-.456.101-.832.16-1.152.194.048.034.096.068.152.11 1.144.827 3.487 1.097 5.614.16 2.095-.92.888-2.194.888-2.194.264-.05.128-.456-.16-.717a4.129 4.129 0 0 0-.72-.498c-.16.211-.336.405-.52.582-1.343 1.266-2.59 2.034-4.102 2.363z"/></g></svg>