<svg width="23" height="23" xmlns="http://www.w3.org/2000/svg"><g fill="none" fill-rule="evenodd"><path d="M1.448 14.162c-.059.324-.1.653-.1.988 0 4.087 4.623 7.412 10.197 7.412 5.573 0 10.107-3.325 10.107-7.412a5.48 5.48 0 0 0-.1-.988A2.678 2.678 0 0 0 23 11.782a2.698 2.698 0 0 0-2.695-2.696c-.68 0-1.318.255-1.807.699-1.694-1.181-3.941-1.932-6.426-2.027l1.29-5.002 2.908 1.018a2.694 2.694 0 0 0 2.687 2.617 2.698 2.698 0 0 0 2.695-2.696A2.698 2.698 0 0 0 18.957 1a2.687 2.687 0 0 0-2.378 1.454L12.423 1l-1.746 6.77c-2.35.147-4.559.887-6.175 2.014a2.683 2.683 0 0 0-1.807-.7A2.698 2.698 0 0 0 0 11.782c0 1.026.575 1.925 1.448 2.38Zm14.14-2.38c1.115 0 2.021.906 2.021 2.02a2.024 2.024 0 0 1-2.021 2.022 2.024 2.024 0 0 1-2.022-2.021c0-1.115.907-2.022 2.022-2.022Zm-.288 5.952.576 1.217c-1.265.6-2.762.916-4.331.916-1.569 0-3.156-.316-4.421-.916l.576-1.217c2.172 1.028 5.428 1.028 7.6 0ZM7.412 11.78c1.115 0 2.022.907 2.022 2.022a2.024 2.024 0 0 1-2.022 2.021 2.024 2.024 0 0 1-2.021-2.021c0-1.115.906-2.022 2.021-2.022Z" fill="#FFF" fill-rule="nonzero"/></g></svg>