<svg xmlns="http://www.w3.org/2000/svg" viewBox="0 0 469 554"><path fill="#99ecff" d="M35 179c-10 0-18 3-24 10-7 7-10 15-10 24v143c0 9 3 18 10 24 6 7 14 10 24 10 9 0 17-3 24-10 6-6 10-15 10-24V213c0-9-4-17-10-24-7-7-15-10-24-10ZM310 51l24-44c1-3 1-5-2-6-3-2-5-1-7 2l-24 44a163 163 0 0 0-66-14c-24 0-46 4-67 14L144 3c-2-3-4-4-7-2-3 1-3 3-2 6l24 44c-24 12-43 29-57 51s-21 46-21 72h307c0-26-7-50-21-72s-33-39-57-51Zm-136 63a12 12 0 0 1-10 4 12 12 0 0 1-9-4 13 13 0 0 1-3-9c0-4 1-7 3-9a12 12 0 0 1 9-4c4 0 7 1 10 4a13 13 0 0 1 3 9c0 4-1 7-3 9Zm140 0a12 12 0 0 1-9 4c-4 0-7-1-9-4a12 12 0 0 1-4-9c0-4 1-7 4-9a12 12 0 0 1 9-4c3 0 6 1 9 4a13 13 0 0 1 3 9c0 4-1 7-3 9ZM82 407c0 10 4 19 11 26s15 10 26 10h24v76c0 9 4 17 10 24 7 7 15 10 24 10 10 0 18-3 25-10 6-7 10-15 10-24v-76h45v76c0 9 4 17 10 24 7 7 15 10 25 10 9 0 17-3 24-10s10-15 10-24v-76h25a35 35 0 0 0 36-37V186H82v222Zm352-228c-9 0-17 3-24 10-6 6-10 15-10 24v143c0 9 4 18 10 24 7 7 15 10 24 10 10 0 18-3 25-10 6-6 9-15 9-24V213c1-9-3-18-9-24-7-7-15-10-25-10Z"/></svg>