<svg xmlns="http://www.w3.org/2000/svg" xml:space="preserve" viewBox="0 0 504 504" fill="#99ecff"><path d="M282 363c-7 2-17 5-30 5a120 120 0 0 1-106-67L39 113l-7 13a254 254 0 0 0 30 291c40 46 92 75 152 84l6 1 84-146-22 7z"/><path d="M138 220c7-24 21-45 42-62 21-16 44-24 72-24h224l-8-12A251 251 0 0 0 252 0 248 248 0 0 0 53 98l-4 4 84 138 5-20z"/><path d="m485 157-3-5H315l15 14c24 25 38 56 38 86 0 24-7 46-21 67L240 504h15c68-1 128-26 176-75a246 246 0 0 0 54-272z"/><path d="M151 252c0 54 46 101 101 101 54 0 101-47 101-101s-47-101-101-101c-55 0-101 46-101 101z"/></svg>