<svg xmlns="http://www.w3.org/2000/svg" width="26" height="26"><path fill="#FFF" fill-rule="evenodd" d="M24.4 2.9V.8a.8.8 0 1 0-1.6 0v2.1h-.6a1 1 0 0 0-1 1v.7a8.2 8.2 0 0 1-8.2 7.3 8.2 8.2 0 0 1-8.2-7.5V4c0-.6-.5-1-1-1h-.6V.8a.8.8 0 1 0-1.6 0v2.1H1a1 1 0 0 0-1 1V24c0 1.1.9 2 2 2h.8a2 2 0 0 0 2-2v-2.9h16.4V24c0 1.1.9 2 2 2h.8a2 2 0 0 0 2-2V3.9c0-.6-.4-1-1-1h-.6ZM7.7 16.3h-3V9a9.8 9.8 0 0 0 3 3v4.4Zm1.6 0h3v-3c-1.1 0-2.1-.3-3-.7v3.7Zm7.4 0h-3v-3c1.1 0 2.1-.3 3-.7v3.7Zm1.6 0h3V9a9.8 9.8 0 0 1-3 3v4.4Z"/></svg>