<svg xmlns="http://www.w3.org/2000/svg" width="27.83" height="28"><g fill="none" fill-rule="evenodd" stroke-width="2"><path stroke="#FFF" d="M8.91 5.4a9.83 9.83 0 0 1 2.51-1.06 2 2 0 0 1-.1-.98l.08-.64A2 2 0 0 1 13.38 1h1.08a2 2 0 0 1 1.98 1.73l.09.63a2 2 0 0 1-.1.97c.89.23 1.73.58 2.51 1.04a2 2 0 0 1 .6-.73l.51-.4a2 2 0 0 1 2.62.2l.77.75a2 2 0 0 1 .17 2.63l-.38.5a2 2 0 0 1-.73.6c.47.79.83 1.65 1.07 2.56a2 2 0 0 1 .9-.08l.64.09a2 2 0 0 1 1.72 1.98v1.08a2 2 0 0 1-1.73 1.98l-.63.08a2 2 0 0 1-.86-.07c-.23.92-.59 1.79-1.04 2.58a2 2 0 0 1 .65.56l.39.52a2 2 0 0 1-.18 2.62l-.77.76a2 2 0 0 1-2.62.18l-.5-.39a2 2 0 0 1-.54-.61c-.79.46-1.64.82-2.54 1.06a2 2 0 0 1 .06.82l-.1.64A2 2 0 0 1 14.46 27h-1.08a2 2 0 0 1-1.98-1.73l-.09-.63a2 2 0 0 1 .07-.84 9.83 9.83 0 0 1-2.52-1.08 2 2 0 0 1-.56.64l-.51.4a2 2 0 0 1-2.62-.2l-.76-.75a2 2 0 0 1-.18-2.63l.38-.5a2 2 0 0 1 .72-.6c-.45-.8-.8-1.66-1.02-2.57a2 2 0 0 1-.94.1l-.64-.1A2 2 0 0 1 1 14.53v-1.08a2 2 0 0 1 1.73-1.98l.63-.08a2 2 0 0 1 .98.1c.23-.9.6-1.76 1.06-2.55a2 2 0 0 1-.79-.62l-.39-.52a2 2 0 0 1 .19-2.62l.76-.76a2 2 0 0 1 2.62-.18l.51.39a2 2 0 0 1 .61.77Z"/><path stroke="#a69eff" d="M13.96 17.29a3.18 3.18 0 0 0 3.15-3.21 3.18 3.18 0 0 0-3.15-3.21 3.18 3.18 0 0 0-3.16 3.2 3.18 3.18 0 0 0 3.16 3.22Z"/></g></svg>