<svg xmlns="http://www.w3.org/2000/svg" viewBox="0 0 512 469"><g fill="none"><path fill="#FFF" d="M405 0H107C48 0 0 48 0 107v256c0 59 48 106 107 106h298c59 0 107-47 107-106V107C512 48 464 0 405 0ZM107 43h298c36 0 64 28 64 64v21H43v-21c0-36 28-64 64-64Zm298 384H107c-36 0-64-29-64-64V171h426v192c0 35-28 64-64 64Z"/><path fill="#FE52FF" d="M405 245c0 12-9 21-21 21H128a21 21 0 1 1 0-42h256c12 0 21 9 21 21Zm-85 85c0 12-10 22-21 22H128a21 21 0 0 1 0-43h171c11 0 21 10 21 21ZM75 85a21 21 0 1 1 43 0 21 21 0 0 1-43 0Zm64 0a21 21 0 1 1 43 0 21 21 0 0 1-43 0Zm64 0a21 21 0 1 1 43 0 21 21 0 0 1-43 0Z"/></g></svg>