<svg xmlns="http://www.w3.org/2000/svg" viewBox="0 0 180 180"><path fill="#fde937" d="M0 0h180v180H0V0Zm134.01 57.24q-1.16-.43-3.01-.42Q80 57 28.15 57a.59.59 88.9 0 0-.59.59l.13 64.73a.5.49 0 0 0 .5.49l106.06.19a2.7 2.67-70.6 0 0 2.1-1.02q10.96-13.64 21.68-27.77 1.5-1.97 1.43-3.42-.09-1.85-1.52-3.73-10.38-13.6-22.02-28.43a4.33 4.28 80.7 0 0-1.91-1.39Z"/><path d="M134.01 57.24a4.33 4.28 80.7 0 1 1.91 1.39q11.64 14.83 22.02 28.43 1.43 1.88 1.52 3.73.07 1.45-1.43 3.42-10.72 14.13-21.68 27.77a2.7 2.67-70.6 0 1-2.1 1.02l-106.06-.19a.5.49 0 0 1-.5-.49l-.13-64.73a.59.59-90 0 1 .59-.59Q80 57 131 56.82q1.85-.01 3.01.42ZM56.57 79.31l19.63-.06a.53.5-.5 0 0 .53-.51l-.13-9.8a.54.52-.5 0 0-.54-.51l-33.68-.17a.63.62-89.6 0 0-.63.63v41.8a.56.56 0 0 0 .56.56H77a.5.5 45 0 0 .5-.5v-10a.5.5-45 0 0-.5-.5H56.66a.66.66 45 0 1-.66-.66v-4.4a.69.69-45 0 1 .69-.69h17.19a.57.54 89.5 0 0 .54-.58l-.14-8.97a.72.68 89.1 0 0-.68-.7H56.88a.89.86.3 0 1-.89-.87l.05-3.57a.53.51.6 0 1 .53-.5Zm47.97-.54-6.51-9.48a1.88 1.81-16.5 0 0-1.53-.79H82.37q-.97 0-.41.79l14.05 19.89a1.08 1.05-45.1 0 1-.01 1.23l-14.62 20.41q-.31.43.22.43l15.33-.06a.94.91 16 0 0 .78-.42l6.73-10.48a.36.35-44.9 0 1 .6-.01l6.55 10.21a2.15 1.91 71.3 0 0 1.7.97l14.71-.18q.53-.01.22-.44l-14.86-20.67a1.27 1.22 45.4 0 1-.02-1.45l13.99-19.58q.45-.63-.31-.62l-14.34.14a1.07.88-69.8 0 0-.77.45l-6.79 9.68a.36.35 46 0 1-.58-.02Z"/><path fill="#fff" d="m56.04 79.81-.05 3.57a.89.86.3 0 0 .89.87H73.6a.72.68 89.1 0 1 .68.7l.14 8.97a.57.54 89.5 0 1-.54.58H56.69a.69.69 45 0 0-.69.69v4.4a.66.66 45 0 0 .66.66H77a.5.5 45 0 1 .5.5v10a.5.5-45 0 1-.5.5H42.31a.56.56 0 0 1-.56-.56v-41.8a.63.62-89.6 0 1 .63-.63l33.68.17a.54.52-.5 0 1 .54.51l.13 9.8a.53.5-.5 0 1-.53.51l-19.63.06a.53.51.6 0 0-.53.5ZM105.12 78.79l6.79-9.68a1.07.88-69.8 0 1 .77-.45l14.34-.14q.76-.01.31.62l-13.99 19.58a1.27 1.22 45.4 0 0 .02 1.45l14.86 20.67q.31.43-.22.44l-14.71.18a2.15 1.91 71.3 0 1-1.7-.97l-6.55-10.21a.36.35-44.9 0 0-.6.01l-6.73 10.48a.94.91 16 0 1-.78.42l-15.33.06q-.53 0-.22-.43L96 90.41a1.08 1.05-45.1 0 0 .01-1.23L81.96 69.29q-.56-.79.41-.79H96.5a1.88 1.81-16.5 0 1 1.53.79l6.51 9.48a.36.35 46 0 0 .58.02Z"/></svg>