<svg xmlns="http://www.w3.org/2000/svg" viewBox="0 0 31.1 27.23"><path fill="#FF3C00" fill-rule="nonzero" stroke="#FF3C00" stroke-width=".1" d="M30.62 19.85c.57.57.57 1.49 0 2.06l-4.84 4.84c-.9.9-2.48.27-2.48-1.03V23.3h-3.56c-.2 0-.4-.08-.53-.23l-4.27-4.58 3.23-3.46 3.2 3.43h1.93v-2.42c0-1.3 1.57-1.94 2.48-1.03l4.84 4.84ZM.78 8.77h5.08l3.2 3.42 3.23-3.46-4.27-4.57a.73.73 0 0 0-.54-.23H.78c-.4 0-.73.32-.73.72v3.4c0 .4.33.72.73.72Zm22.52 0v2.42c0 1.3 1.57 1.94 2.48 1.03l4.84-4.85c.57-.56.57-1.48 0-2.05L25.78.48A1.45 1.45 0 0 0 23.3 1.5v2.43h-3.56c-.2 0-.4.08-.53.23L5.86 18.46H.78c-.4 0-.73.32-.73.72v3.4c0 .4.33.72.73.72h6.7c.2 0 .4-.08.54-.23l13.34-14.3h1.94Z"/></svg>