<svg xmlns="http://www.w3.org/2000/svg" xml:space="preserve" class="global-footer__logo" viewBox="0 408 1000 184"><path d="M987 556v-3h2l2 1-2 2h-2m0 2h1l3 4h3l-3-5c2 0 3 0 3-3 0-2-2-3-5-3h-4v11h2v-4m13-1c0-7-5-11-11-11s-11 4-11 11 5 10 11 10 11-3 11-10m-3 0c0 5-4 8-8 8-5 0-8-3-8-8s4-8 8-8 8 3 8 8zM593 443v121h34V443h-34zm-269 0v121h35v-94h27c9 0 15 2 19 6 5 6 8 16 8 32v56h33v-67c0-48-30-54-60-54h-62zm324 0v121h56c29 0 39-5 49-16 8-8 12-25 12-43 0-17-4-33-11-42-12-17-31-20-58-20h-48zm34 26h15c21 0 35 10 35 34 0 25-14 35-35 35h-15v-69zm-138-26-28 96-28-96h-37l39 121h50l39-121h-35zm237 121h35V443h-35v121zm96-121-47 121h33l8-22h56l8 22h36l-48-121h-46zm22 22 21 56h-42l21-56zm-795-2v-17h5c45-1 75 39 75 39s-32 45-67 45l-13-2v-51c18 2 21 10 32 28l24-20s-18-23-47-23l-9 1m0-55v25l5-1c63-2 104 52 104 52s-47 58-96 58l-13-1v15l11 1c46 0 79-24 111-51 5 4 27 14 32 19a278 278 0 0 1-154 46v21h175V408H104zm0 120v13c-43-8-54-52-54-52s20-23 54-26v14c-18-2-32 15-32 15s8 28 32 36m-76-41s26-37 76-41v-13C48 437 0 484 0 484s27 79 104 87v-15c-56-7-76-69-76-69z"/></svg>