<svg xmlns="http://www.w3.org/2000/svg" viewBox="0 0 51.5 53.5"><g fill="#00D2FF"><path stroke="#00D2FF" stroke-width="1.5" d="M25.8 4A22 22 0 0 0 4.1 26.3a22 22 0 0 0 21.7 22.3 22 22 0 0 0 21.8-22.3A22 22 0 0 0 25.8 4m19.4 38.6 4.6 4.6c.6.7 1 1.4 1 2.3a3 3 0 0 1-1 2.3c-.6.6-1.4 1-2.3 1a3 3 0 0 1-2.3-1l-4.6-4.6 4.6-4.6Zm-38.9 0 4.6 4.6-4.6 4.6a3 3 0 0 1-2.3 1c-.9 0-1.7-.4-2.3-1a3 3 0 0 1-1-2.3c0-.9.4-1.6 1-2.3l4.6-4.6ZM47.5.8c.9 0 1.7.3 2.3 1a3 3 0 0 1 1 2.2c0 .9-.4 1.6-1 2.3l-4.6 4.6c3.2 4.2 5.2 9.6 5.2 15.4 0 13.9-11 25.1-24.6 25.1A24.9 24.9 0 0 1 1.3 26.3c0-6.2 2.2-12 6-16.3l-1 .9-4.6-4.6A3 3 0 0 1 .7 4a3 3 0 0 1 1-2.3c.6-.6 1.4-1 2.3-1a3 3 0 0 1 2.3 1l4.6 4.6-.6.6a24.1 24.1 0 0 1 30.4-.6l4.5-4.6a3 3 0 0 1 2.3-1Z"/><path fill-opacity=".3" d="M49.5 26.1A23.9 23.9 0 0 1 26 50.5c-12.9 0-23.3-11-23.3-24.4A23.9 23.9 0 0 1 26 1.8c13 0 23.4 10.9 23.4 24.3"/><path fill-opacity=".3" stroke="#00D2FF" stroke-width="3.1" d="M38.8 26.8a13 13 0 1 1-26 0 13 13 0 0 1 26 0"/></g></svg>