<svg xmlns="http://www.w3.org/2000/svg" viewBox="0 0 54.08 52"><g fill="none" fill-rule="evenodd"><path fill="#3688F2" fill-rule="nonzero" d="m42.68 38.1.03-.01-4.78-4.32a12.58 12.58 0 0 0-.36-14.32l.02.04 5.44-5.4a7.52 7.52 0 0 0 11.05-6.6A7.52 7.52 0 0 0 46.53 0 7.52 7.52 0 0 0 39 7.5c0 1.27.34 2.47.92 3.5l-.02-.03-5.44 5.4a12.88 12.88 0 0 0-7.5-2.28c-2.77 0-5.04.47-8.04 2.8a12.5 12.5 0 0 0-4.5 13l-.03-.08-1.18.5A7.52 7.52 0 0 0 0 35.15a7.48 7.48 0 0 0 7.5 7.45c4.15 0 7.5-3.34 7.5-7.45v-.05a7.3 7.3 0 0 0-.07-.8v.05l1.19-.5A12.87 12.87 0 0 0 34.95 37l-.03.02 4.8 4.33a7.28 7.28 0 0 0-.74 3.17 7.52 7.52 0 0 0 7.55 7.49 7.52 7.52 0 0 0 7.55-7.5 7.52 7.52 0 0 0-11.4-6.4ZM7.5 40a4.5 4.5 0 1 1 4.5-4.5A4.5 4.5 0 0 1 7.5 40Zm39-37A4.5 4.5 0 1 1 42 7.5 4.5 4.5 0 0 1 46.5 3ZM18.46 26.88a8.5 8.5 0 0 1 8.53-8.47c2.36 0 4.5.95 6.04 2.48a8.42 8.42 0 0 1 2.5 6A8.5 8.5 0 0 1 27 35.35a8.5 8.5 0 0 1-8.53-8.48ZM46.5 49a4.5 4.5 0 1 1 4.5-4.5 4.5 4.5 0 0 1-4.5 4.5Z"/><path fill="#3688F2" fill-opacity=".2" fill-rule="nonzero" d="M18.46 26.88a8.5 8.5 0 0 1 8.53-8.47c2.36 0 4.5.95 6.04 2.48a8.42 8.42 0 0 1 2.5 6A8.5 8.5 0 0 1 27 35.35a8.5 8.5 0 0 1-8.53-8.48Z"/><path fill="#3688F2" fill-opacity=".2" d="M7.5 40a4.5 4.5 0 1 1 4.5-4.5A4.5 4.5 0 0 1 7.5 40Zm39-37A4.5 4.5 0 1 1 42 7.5 4.5 4.5 0 0 1 46.5 3Zm0 46a4.5 4.5 0 1 1 4.5-4.5 4.5 4.5 0 0 1-4.5 4.5Z"/><path fill="#3A8AF1" fill-opacity=".5" fill-rule="nonzero" d="M31.24 31.24a6 6 0 1 1-8.48-8.48 6 6 0 0 1 8.48 8.48"/><path fill="#2C5488" d="M7.5 38a2.5 2.5 0 1 1 2.5-2.5A2.5 2.5 0 0 1 7.5 38Zm39-33A2.5 2.5 0 1 1 44 7.5 2.5 2.5 0 0 1 46.5 5Z"/><path fill="#2B5488" d="M46.5 47a2.5 2.5 0 1 1 2.5-2.5 2.5 2.5 0 0 1-2.5 2.5Z"/></g></svg>