<svg xmlns="http://www.w3.org/2000/svg" viewBox="0 0 49 50"><g fill="none" fill-rule="evenodd"><rect width="39" height="40" x="5" y="5" fill="#653E7A" fill-opacity=".3" rx="5.6"/><rect width="45" height="46" x="2" y="2" fill="#653E7A" fill-opacity=".3" rx="6.44"/><path fill="#AD5FD5" fill-rule="nonzero" d="M12.25 5.95a6.04 6.04 0 0 1-6.13 5.95A6.04 6.04 0 0 1 0 5.95 6.04 6.04 0 0 1 6.13 0a6.04 6.04 0 0 1 6.12 5.95Zm18.38 0a6.04 6.04 0 0 1-6.13 5.95 6.04 6.04 0 0 1-6.13-5.95A6.04 6.04 0 0 1 24.5 0a6.04 6.04 0 0 1 6.13 5.95Zm12.25 5.95A6.04 6.04 0 0 0 49 5.95 6.04 6.04 0 0 0 42.87 0a6.04 6.04 0 0 0-6.12 5.95 6.04 6.04 0 0 0 6.13 5.95ZM12.25 25a6.04 6.04 0 0 1-6.13 5.95A6.04 6.04 0 0 1 0 25a6.04 6.04 0 0 1 6.13-5.95A6.04 6.04 0 0 1 12.25 25ZM49 25a6.04 6.04 0 0 1-6.13 5.95A6.04 6.04 0 0 1 36.76 25a6.04 6.04 0 0 1 6.13-5.95A6.04 6.04 0 0 1 49 25ZM6.13 50a6.04 6.04 0 0 0 6.12-5.95 6.04 6.04 0 0 0-6.13-5.95A6.04 6.04 0 0 0 0 44.05 6.04 6.04 0 0 0 6.13 50Zm24.5-5.95A6.04 6.04 0 0 1 24.5 50a6.04 6.04 0 0 1-6.13-5.95 6.04 6.04 0 0 1 6.13-5.95 6.04 6.04 0 0 1 6.13 5.95ZM42.88 50A6.04 6.04 0 0 0 49 44.05a6.04 6.04 0 0 0-6.13-5.95 6.04 6.04 0 0 0-6.12 5.95A6.04 6.04 0 0 0 42.88 50Z"/><path fill="#653E7A" fill-rule="nonzero" stroke="#AD5FD5" stroke-width="4" d="M24.5 17a7.94 7.94 0 0 1 7.93 7.87 7.94 7.94 0 0 1-13.55 5.56 7.81 7.81 0 0 1 0-11.12A7.94 7.94 0 0 1 24.5 17Z"/></g></svg>