<svg xmlns="http://www.w3.org/2000/svg" viewBox="0 0 54 52"><g fill="#FE51FF"><path fill-opacity=".25" d="M52 13.92a4.86 4.86 0 0 0-6.14-4.68A25.95 25.95 0 0 0 26 0 26 26 0 0 0 9.24 45.86C14.88 50.63 22.98 52 26 52a26.03 26.03 0 0 0 24.53-34.61A4.84 4.84 0 0 0 52 13.92Z"/><circle cx="40.5" cy="14.5" r="13.5" fill-opacity=".25"/><path d="M38.7 17.91c-.4-.7-.85-1.35-1.33-1.96a4.84 4.84 0 0 0-7.87-5.17 15.37 15.37 0 0 0-11.87 1.48A15.44 15.44 0 0 0 12 33.34a15.44 15.44 0 0 0 21.07 5.64 15.44 15.44 0 0 0 5.65-21.07Zm-3.17 1.83a11.78 11.78 0 0 1-4.3 16.07 11.78 11.78 0 0 1-16.07-4.3 11.78 11.78 0 0 1 12.78-17.35 4.86 4.86 0 0 0 6.93 4.57c.24.32.46.66.66 1.01Zm-.72-6.38a2.38 2.38 0 1 1-4.13 2.38 2.38 2.38 0 0 1 4.13-2.38Z"/><path d="M52 13.92a4.86 4.86 0 0 0-6.14-4.68A25.95 25.95 0 0 0 26 0C11.66 0 0 11.66 0 26s11.66 26 26 26a26.03 26.03 0 0 0 24.53-34.61A4.84 4.84 0 0 0 52 13.92Zm-2.24-.04a2.38 2.38 0 1 1-4.77 0 2.38 2.38 0 0 1 4.77 0ZM26 48.34c-2.53 0-9.74-1.28-14.52-5.38A22.3 22.3 0 0 1 3.66 26 22.36 22.36 0 0 1 26 3.66a22.3 22.3 0 0 1 16.96 7.82 4.86 4.86 0 0 0 4.18 7.3A22.36 22.36 0 0 1 26 48.34Z"/><path d="M25.36 19.5a6.37 6.37 0 1 0 .02 12.74 6.37 6.37 0 0 0-.02-12.74Zm.14 10a3.5 3.5 0 1 1 0-7 3.5 3.5 0 0 1 0 7Z"/></g></svg>