<svg xmlns="http://www.w3.org/2000/svg" viewBox="0 0 60.1 50"><g fill="#FF5F24"><path d="M60.1 44.4v.7l-.2 1.2a5.3 5.3 0 0 1-4.7 3.7h-.7c-2-.3-3.3-1.1-4.2-2.7-1-1.7-.9-3.8.2-5.5v-.1L39.8 21.9h-1.3v10.9c1 .5 1.7 1.2 2.2 2 1 1.8.7 4-.9 5.5a4.5 4.5 0 0 1-6.2 0 4.3 4.3 0 0 1-1.4-2.5 5 5 0 0 1 2.6-5h.1V21.3a12 12 0 0 1-1.7-.7l-18.6 22c1.4 3.5-.8 7-4.5 7.4h-.7a5.3 5.3 0 1 1 2.7-10h.1l18.2-21.6c-.5-.7-1-1.4-1.2-2l-.2-.2-20 2.4c-.9 2.9-4 4.2-6.6 2.9-1.4-.8-2.2-2-2.4-3.7v-.7c.3-2 1.3-3.2 3-3.9 1-.3 2-.3 3 0s1.7 1 2.4 1.9L28 12.8V12l-.1-.1-10-4.3h-.1a4.5 4.5 0 0 1-6.3 0 4.4 4.4 0 0 1-.4-6.1 4.5 4.5 0 0 1 8 2.7h.1l9 4h.1A10.7 10.7 0 1 1 47 17.7v.2l4 2.1h.1c1.7-1.3 4-1.4 5.7 0 2.5 2 2.2 5.7-.6 7.4-3 1.8-7-.6-6.8-4.1V23l-5.1-2.7h-.2l-.8.4 10.1 18.8h.1a5.3 5.3 0 0 1 6.6 4.8ZM46.6 11.2a8.1 8.1 0 1 0-16.2 0 8.1 8.1 0 0 0 16.2 0Z"/><path fill-opacity=".3" d="M46.6 11.2a8.1 8.1 0 1 0-16.2 0 8.1 8.1 0 0 0 16.2 0Z"/></g></svg>