<svg width="43" height="45" viewBox="0 0 43 45" fill="none" xmlns="http://www.w3.org/2000/svg">
<path fill-rule="evenodd" clip-rule="evenodd" d="M39.7588 23.5C39.7588 20.3168 38.9442 17.3238 37.5122 14.7182C37.246 14.2339 37.3869 13.6179 37.8562 13.326L38.9105 12.6702C39.3791 12.3787 39.9975 12.5209 40.2674 13.0023C42.0077 16.107 43 19.6876 43 23.5C43 35.3741 33.3741 45 21.5 45C9.62588 45 0 35.3741 0 23.5C0 11.6259 9.62588 2 21.5 2C22.6975 2 23.8722 2.09791 25.0164 2.28616C25.5618 2.37587 25.9062 2.91007 25.7905 3.4505L25.5307 4.66488C25.4152 5.20456 24.8846 5.54579 24.3393 5.46065C23.4141 5.31619 22.4658 5.24121 21.5 5.24121C11.4159 5.24121 3.24121 13.4159 3.24121 23.5C3.24121 33.5841 11.4159 41.7588 21.5 41.7588C31.5841 41.7588 39.7588 33.5841 39.7588 23.5Z" fill="#00A1FF"/>
<circle cx="21.5" cy="23.5" r="7.87945" fill="#00A1FF" stroke="#00A1FF" stroke-width="3.2411"/>
<path d="M34.0996 2.01465C34.4781 3.03539 35.0652 4.3172 35.874 5.12598C36.6828 5.93475 37.9646 6.5219 38.9854 6.90039C39.0798 6.9354 39.1729 6.96809 39.2637 7C39.1729 7.03191 39.0798 7.0646 38.9854 7.09961C37.9646 7.4781 36.6828 8.06525 35.874 8.87402C35.0652 9.6828 34.4781 10.9646 34.0996 11.9854C34.0646 12.0798 34.0319 12.1729 34 12.2637C33.9681 12.1729 33.9354 12.0798 33.9004 11.9854C33.5219 10.9646 32.9348 9.6828 32.126 8.87402C31.3172 8.06525 30.0354 7.4781 29.0146 7.09961C28.9199 7.06449 28.8264 7.032 28.7354 7C28.8264 6.968 28.9199 6.93551 29.0146 6.90039C30.0354 6.5219 31.3172 5.93475 32.126 5.12598C32.9348 4.3172 33.5219 3.03539 33.9004 2.01465C33.9355 1.91993 33.968 1.82642 34 1.73535C34.032 1.82642 34.0645 1.91993 34.0996 2.01465Z" fill="#00A1FF" stroke="#00A1FF"/>
</svg>
