<svg xmlns="http://www.w3.org/2000/svg" viewBox="0 0 149 107"><path fill="#fff" d="m79.3 29.82-.22 8.75a.55.53-89.4 0 1-.52.53l-9.2.12a.62.6 89.5 0 1-.61-.62q0-3.85-.21-7.34-.44-7.01 4.58-10.11 2.23-1.38 6.57-1.49 8.94-.22 17.88-.34a.48.48 88.2 0 0 .47-.5q-.19-6.29.08-12.56.14-3.28 1.4-4.65Q101-.01 103.35.32q1.48.2 3.32 1.7 19.47 15.93 38.89 31.92 6.35 5.22.09 10.24-18.74 15.03-37.28 30.32-3.14 2.59-4.55 3.02-2.62.8-4.44-1.44-1.13-1.38-1.24-3.99-.28-6.07-.11-12.98a.84.84-89.3 0 0-.84-.86H50.58q-4.97 0-5.65-.18-3.5-.9-3.46-5.57.03-2.75.03-6.15 0-.55-.44-.22L11.98 67.69a.48.48 90 0 0 0 .78L40.84 89.7a.31.3 23.3 0 0 .49-.19q.41-2.7.17-4.76-.82-7.13 6.25-7.06 10.22.11 20.45 0a.5.5 45 0 0 .5-.5l.04-8.67a.77.76 90 0 1 .76-.77h8.91a.66.66 45 0 1 .66.66q-.04 4.21-.09 8.11-.05 4.43-1.41 6.54-1.35 2.1-3.61 3.3-1.67.88-4.6.99-8.41.3-17.52.13a.85.85 89.7 0 0-.86.87q.15 6.36-.09 12.13-.15 3.55-1.65 5.09-1.91 1.94-4.66.81-1.19-.49-3.58-2.46Q21.48 87.86 1.94 71.81-.7 69.64.3 66.77q.56-1.61 2.98-3.59l37.87-31.07q2.87-2.36 4.45-2.69 2.44-.51 4.1 1.57 1.04 1.31 1.14 3.8.26 6.69.23 13.4a.49.49-89.4 0 0 .49.5q25.21.1 50.41.06 2.27 0 3.38.76 1.05.72 1.64 1.89.44.88.48 2.4.07 3.37.03 6.8-.01.64.5.26l29.09-21.61a.38.37 44.9 0 0-.01-.61l-28.73-21.46q-.85-.63-.85.43 0 3.39-.15 6.38-.21 4.35-3.61 5.14-.52.12-5.49.11-9.22-.03-18.43.07a.52.52-89.4 0 0-.52.51Z"/></svg>