<svg width="27" height="27" xmlns="http://www.w3.org/2000/svg"><g fill="#6E52FF" fill-rule="nonzero"><path d="M23.107 26.055h1.602c1.17 0 2.12-.952 2.12-2.125V2.2c0-1.173-.95-2.126-2.12-2.126h-1.602a.096.096 0 0 0-.073.033L12.99 12.375a1.088 1.088 0 0 0 0 1.377L23.034 26.02a.096.096 0 0 0 .073.033v.002Z"/><path d="M7.945 12.386 17.898.23a.093.093 0 0 0-.073-.153H3.042c-1.17 0-2.12.952-2.12 2.125v21.73c0 1.174.95 2.126 2.12 2.126h14.783c.08 0 .122-.092.073-.153L7.945 13.751a1.077 1.077 0 0 1 0-1.365Z"/></g></svg>