<svg xmlns="http://www.w3.org/2000/svg" viewBox="0 0 57 40"><defs><linearGradient id="a" x1=".03%" x2="54.79%" y1="50.23%" y2="50.23%"><stop offset="0%" stop-opacity="0"/><stop offset="100%" stop-color="#FFF"/></linearGradient><linearGradient id="b" x1="99.38%" x2="35.8%" y1="49.83%" y2="49.83%"><stop offset="0%" stop-opacity="0"/><stop offset="100%" stop-color="#FF51FF"/></linearGradient><linearGradient id="c" x1="100.43%" x2="48.94%" y1="50.11%" y2="50.11%"><stop offset="0%" stop-opacity="0"/><stop offset="100%" stop-color="#A18CFF"/></linearGradient><linearGradient id="d" x1="99.91%" x2="41.06%" y1="50.24%" y2="50.24%"><stop offset="0%" stop-opacity="0"/><stop offset="100%" stop-color="#AB38E6"/></linearGradient></defs><g fill="none"><path fill="#0B76FF" d="M28.47 33.21H40.3L28.48 12.58V.08l23.15 39.77H28.47z"/><path fill="#24C1FF" d="M28.47 33.21H16.66l11.8-20.63V.08L5.32 39.86h23.16z"/><path fill="#39FFF2" d="M28.47 17.8v13.33l-7.23.01z"/><path fill="#00E2C2" d="M28.47 17.8v13.33l7.24.01z"/><path fill="url(#a)" d="m.1 12.53 28.37 13.14v1.37L.11 20.82z"/><path fill="url(#b)" d="M56.9 8.7 28.47 25.68v.46L56.9 14.18z"/><path fill="url(#c)" d="m56.9 25.13-28.43 1.91v-.45l28.43-6.93z"/><path fill="url(#d)" d="M56.9 14.18 28.47 26.13v.46l28.43-6.93z"/></g></svg>