<svg xmlns="http://www.w3.org/2000/svg" viewBox="0 0 31 44"><g fill="none" fill-rule="evenodd"><g transform="translate(1.5 1)"><circle cx="14" cy="14" r="14" stroke="#FFF" stroke-width="2"/><path fill="#FFF" fill-rule="nonzero" d="m13.8 7 6.9 11.3h-6.9v-1.9h3.5l-3.5-5.9V7Zm0 0v3.5l-3.5 5.9h3.5v1.9H7L13.8 7Zm-2.1 8.7 2.1-3.7 2.2 3.7h-4.3Z"/></g><path fill="#99ecff" fill-rule="nonzero" d="M17.1 27.9A5.3 5.3 0 0 1 23 23c2.7.3 4.7 2.8 4.7 5.5v3h1c.6 0 1.1.3 1.1 1V43c0 .5-.5 1-1 1H16a1 1 0 0 1-1-1V32.5c0-.7.3-1 1-1h9.4v-3.1c0-1.6-1-3-2.5-3.3-1.7-.2-3.3.8-3.7 2.3m0 2.1V33H17v-3m4.2 8.4v1.4c0 .6.4 1 1 1 .7 0 1.1-.4 1.1-1v-1.4c.6-.4 1-1 1-1.7 0-1.4-1.2-2.3-2.6-2-.7.2-1.3.8-1.5 1.5a2 2 0 0 0 1 2.2Z"/></g></svg>