<svg xmlns="http://www.w3.org/2000/svg" viewBox="0 0 29 42"><g fill="none" fill-rule="evenodd" transform="translate(1.8 1)"><circle cx="12.7" cy="12.5" r="12.5" stroke="#FFF" stroke-width="2"/><path fill="#25C1FF" fill-rule="nonzero" d="M20.1 10.3a.8.8 0 0 0-.7-.6l-4.3-.4L13.4 5a.8.8 0 0 0-.7-.5c-.4 0-.7.2-.8.5l-1.7 4.2-4.3.4c-.3 0-.6.3-.7.6-.1.3 0 .6.2.9l3.3 3-1 4.4c0 .3 0 .6.3.8a.8.8 0 0 0 1 0l3.7-2.2 3.7 2.3c.3.2.6.1.9 0 .2-.3.3-.6.3-1l-1-4.4 3.3-3c.2-.2.3-.5.2-.8Z"/><path stroke="#FFF" stroke-linecap="round" stroke-linejoin="round" stroke-width="2" d="M4.8 23.4.1 36.5 6 32l1.6 7.3L12.4 26m8.1-2.6 4.8 13.1-6-4.5-1.6 7.3L13 26"/></g></svg>