<svg width="39" height="39" xmlns="http://www.w3.org/2000/svg"><path d="M18.22 1.229c.372-.217.744-.434 1.116-.629a4226.322 4226.322 0 0 0 18.948 10.866c.021 5.423.021 10.845 0 16.246A3922.673 3922.673 0 0 0 19.336 38.6 8526.838 8526.838 0 0 1 .3 27.69c.022-5.422-.022-10.823.022-16.224.328-.151.634-.325.94-.52C6.922 7.714 12.56 4.46 18.22 1.229Zm.919 3.97c-4.83 2.775-9.66 5.53-14.49 8.306-.175.13-.415.195-.546.39 3.715 2.105 7.43 4.252 11.146 6.377l.284.087c1.114-1.388 2.295-2.711 3.41-4.1-2.164-1.257-4.328-2.515-6.514-3.73.263-.282.656-.434.984-.65 1.07-.63 2.098-1.302 3.169-1.887 5.966 3.448 11.976 6.81 17.943 10.259.021-2.126.021-4.273 0-6.399-4.94-2.884-9.944-5.704-14.884-8.567-.174-.109-.35-.217-.502-.087Zm3.54 13.251c-1.114 1.389-2.294 2.733-3.43 4.121 2.053 1.15 4.086 2.343 6.14 3.492v.174c-1.202.78-2.426 1.54-3.628 2.342-.13.087-.284.239-.459.13-5.747-3.275-11.451-6.615-17.221-9.846-.044 2.125 0 4.25-.022 6.355 5.005 2.928 10.053 5.769 15.08 8.675.218.152.437-.108.655-.173 4.874-2.798 9.77-5.596 14.643-8.394 0-.043-.022-.152-.022-.217l-11.342-6.507a1.649 1.649 0 0 0-.394-.152Z" fill="#1AB394" fill-rule="nonzero"/></svg>