<svg xmlns="http://www.w3.org/2000/svg" viewBox="0 0 34 22"><defs><linearGradient id="a" x1="-8.04%" x2="85.16%" y1="40.44%" y2="67.97%"><stop offset="0%" stop-color="#264CA2" stop-opacity="0"/><stop offset="100%" stop-color="#234588"/></linearGradient></defs><g fill="none"><path fill="#3156AA" d="M32.67 15.38 25.49 2.92a4 4 0 0 0-6.93.12l-7.54 12.95a3.56 3.56 0 0 0 3.15 5.35h15.1a3.96 3.96 0 0 0 3.4-5.96Z"/><path fill="#1972E2" d="m22.31 16.35-.44-.78-1.32-2.26-6.08-10.55a3.98 3.98 0 0 0-6.88.41L.52 15.41a3.96 3.96 0 0 0 3.46 5.93h25.24c-3.9.03-5.14-1.98-6.9-5Z"/><path fill="url(#a)" d="m22.31 15.37-.44-.78-1.32-2.26-3.93-6.9-5.63 9.6a3.56 3.56 0 0 0 3.15 5.36h15.08c-3.93-.02-5.14-2.01-6.9-5.02Z" transform="translate(0 .98)"/></g></svg>