<svg xmlns="http://www.w3.org/2000/svg" fill="none" viewBox="0 0 28 20"><path fill="#fff" d="M0 0h28v20H0z"/><path fill="#D02F44" d="M28 0H0v1.3h28V0Zm0 2.7H0V4h28V2.7ZM0 5.3h28v1.4H0V5.3ZM28 8H0v1.3h28V8ZM0 10.7h28V12H0v-1.3Zm28 2.6H0v1.4h28v-1.4ZM0 16h28v1.3H0V16Zm28 2.7H0V20h28v-1.3Z"/><path fill="#46467F" d="M0 0h12v9.3H0z"/><path fill="#fff" d="M2.7 2a.7.7 0 1 1-1.4 0 .7.7 0 0 1 1.4 0Zm2.6 0A.7.7 0 1 1 4 2a.7.7 0 0 1 1.3 0Zm2 .7a.7.7 0 1 0 0-1.4.7.7 0 0 0 0 1.4Zm3.4-.7a.7.7 0 1 1-1.4 0 .7.7 0 0 1 1.4 0ZM3.3 4a.7.7 0 1 0 0-1.3.7.7 0 0 0 0 1.3Zm3.4-.7a.7.7 0 1 1-1.4 0 .7.7 0 0 1 1.4 0Zm2 .7a.7.7 0 1 0 0-1.3.7.7 0 0 0 0 1.3Zm2 .7a.7.7 0 1 1-1.4 0 .7.7 0 0 1 1.4 0Zm-3.4.6a.7.7 0 1 0 0-1.3.7.7 0 0 0 0 1.3Zm-2-.6a.7.7 0 1 1-1.3 0 .7.7 0 0 1 1.3 0ZM2 5.3A.7.7 0 1 0 2 4a.7.7 0 0 0 0 1.3ZM4 6a.7.7 0 1 1-1.3 0A.7.7 0 0 1 4 6Zm2 .7a.7.7 0 1 0 0-1.4.7.7 0 0 0 0 1.4ZM9.3 6A.7.7 0 1 1 8 6a.7.7 0 0 1 1.3 0Zm.7 2a.7.7 0 1 0 0-1.3.7.7 0 0 0 0 1.3Zm-2-.7a.7.7 0 1 1-1.3 0 .7.7 0 0 1 1.3 0ZM4.7 8a.7.7 0 1 0 0-1.3.7.7 0 0 0 0 1.3Zm-2-.7a.7.7 0 1 1-1.4 0 .7.7 0 0 1 1.4 0Z"/></svg>