<svg xmlns="http://www.w3.org/2000/svg" viewBox="0 0 800 578"><g fill="none"><path fill="#C60A1D" d="M0 0h800v578H0z"/><path fill="#FFC400" d="M0 155.56h800v266.66H0z"/><path fill="#EA596E" d="M200 266.67v66.66a66.67 66.67 0 1 0 133.33 0v-66.66H200Z"/><path fill="#F4A2B2" d="M266.67 244.44h66.66v66.67h-66.66z"/><path fill="#DD2E44" d="M200 244.44h66.67v66.67H200z"/><ellipse cx="266.67" cy="211.11" fill="#EA596E" rx="66.67" ry="33.33"/><ellipse cx="266.67" cy="194.44" fill="#FFAC33" rx="66.67" ry="16.67"/><path fill="#99AAB5" d="M155.56 244.44h22.22V400h-22.22V244.44Zm200 0h22.22V400h-22.22V244.44Z"/><path fill="#66757F" d="M133.33 377.78H200V400h-66.67v-22.22Zm200 0H400V400h-66.67v-22.22ZM155.56 222.22h22.22v22.22h-22.22v-22.22Zm200 0h22.22v22.22h-22.22v-22.22Z"/></g></svg>