<svg xmlns="http://www.w3.org/2000/svg" viewBox="0 0 800 578"><g fill="none"><path fill="#060" d="M333 0H0v578h333z"/><path fill="#D52B1E" d="M333 0h467v578H333z"/><path fill="#FFCC4D" d="M333 111a178 178 0 1 0 0 356 178 178 0 0 0 0-356ZM197 213l36 36-55 27c2-22 9-43 19-63Zm-19 89 98 49-60 40c-22-25-35-56-38-89Zm133 141c-20-3-40-10-57-21h57v21Zm0-43h-69l69-46v46Zm0-73-13 9-95-47 47-24 61 62Zm0-32-79-78 79 13v65Zm0-88-98-16c24-30 59-50 98-56v72Zm158 6c11 20 17 41 19 63l-54-27 35-36Zm-113-78c38 6 73 26 98 56l-98 16v-72Zm0 95 78-13-78 78v-65Zm0 97 61-62 47 24-95 47-13-9Zm0 116v-21h57c-17 11-37 18-57 21Zm0-43v-46l68 46h-68Zm94-9h1l-61-40 98-49c-2 33-16 64-38 89Z"/><path fill="#D52B1E" d="M244 178v155a89 89 0 0 0 178 0V178H244Z"/><path fill="#FFF" d="M267 200v133a67 67 0 1 0 133 0V200H267Z"/><path fill="#829ACD" d="M289 267h89v44h-89z"/><path fill="#829ACD" d="M311 244h45v89h-45z"/><path fill="#039" d="M267 267h22v44h-22v-44Zm44 0h45v44h-45v-44Zm67 0h22v44h-22v-44Zm-67 66h45v45h-45v-45Zm0-133h45v44h-45v-44Z"/></g></svg>