<svg xmlns="http://www.w3.org/2000/svg" fill="none" viewBox="0 0 24 24"><path stroke="currentColor" stroke-linecap="round" stroke-linejoin="round" stroke-width="2" d="M9 9V6.2c0-1.1 0-1.7.2-2.1.2-.4.5-.7.9-.9.4-.2 1-.2 2.1-.2h5.6c1.1 0 1.7 0 2.1.2.4.2.7.5.9.9.2.4.2 1 .2 2.1v5.6c0 1.1 0 1.7-.2 2.1a2 2 0 0 1-.9.9c-.4.2-1 .2-2.1.2H15M9 9H6.2c-1.1 0-1.7 0-2.1.2a2 2 0 0 0-.9.9c-.2.4-.2 1-.2 2.1v5.6c0 1.1 0 1.7.2 2.1.2.4.5.7.9.9.4.2 1 .2 2.1.2h5.6c1.1 0 1.7 0 2.1-.2.4-.2.7-.5.9-.9.2-.4.2-1 .2-2.1V15M9 9h2.8c1.1 0 1.7 0 2.1.2.4.2.7.5.9.9.2.4.2 1 .2 2.1V15"/></svg>