<svg width="23" height="23" xmlns="http://www.w3.org/2000/svg"><g fill="#FFF" fill-rule="evenodd"><path d="M11.5 23C5.149 23 0 17.851 0 11.5S5.149 0 11.5 0 23 5.149 23 11.5 17.851 23 11.5 23Zm0-1C17.299 22 22 17.299 22 11.5S17.299 1 11.5 1 1 5.701 1 11.5 5.701 22 11.5 22Z"/><path d="M11.5 20a8.5 8.5 0 1 1 0-17 8.5 8.5 0 0 1 0 17ZM7 6.96v1.225h1.407a.3.3 0 0 1 .3.3v6.023a.3.3 0 0 1-.3.3H7v1.434h2.355v1.97h1.267v-1.97h.868v1.97h1.323v-1.97c1.178-.087 1.953-.221 2.325-.404 1.46-.718 1.46-1.624 1.46-2.49 0-1.29-.577-2.042-1.73-2.258.745-.245 1.117-.931 1.117-2.057 0-.785-.559-1.568-1.586-1.93-.298-.105-.826-.153-1.586-.143V5H11.49v1.96h-.868V5H9.355v1.96H7Zm3.79 5.073c1.569-.068 2.539.01 2.908.235.346.21.575.547.544 1.077-.031.53-.217.97-.706 1.208-.38.184-1.295.263-2.747.236v-2.756Zm0-3.89c1.847-.176 2.77.265 2.77 1.323 0 1.06-.923 1.5-2.77 1.323V8.144Z"/></g></svg>