<svg xmlns="http://www.w3.org/2000/svg" viewBox="0 0 28.4 28.8"><path fill="#FFF" d="M14.2 0C22 0 28.4 6.4 28.4 14.4v.3c0 2-.8 3.8-2.3 4.5a4 4 0 0 1-4.2.2c-1.4-.8-2.2-2.4-2.2-4.4v-2.7l-.3.5-3.3 5.4c-1.1 1.9-2.2 2-2.9 1.8-.7-.2-1.5-.9-1.5-3.1v-4.5l-6.1 9.8c2.2 2.4 5.3 3.9 8.7 3.9 2.9 0 5.8-1.2 7.9-3.2h.1c.5-.5 1.2-.4 1.7.1.5.6.4 1.4-.1 1.9a14.2 14.2 0 0 1-9.7 3.9C6.4 28.8 0 22.3 0 14.4S6.4 0 14.2 0Zm0 2.5C7.8 2.5 2.6 7.8 2.6 14.3c0 2 .5 3.9 1.4 5.6l6.7-10.8c.8-1.2 1.6-1.3 2.2-1.1.8.2 1.3 1 1.3 2.4v6l3-4.9c.5-.8 1.8-2.9 3.5-2.4 1 .3 1.6 1.4 1.6 2.9v3.2c0 1 .3 1.8.9 2.1.4.3 1 .2 1.5-.1.8-.5 1.2-1.5 1.1-2.8v-.3A11.8 11.8 0 0 0 14.2 2.5Z"/></svg>