<svg xmlns="http://www.w3.org/2000/svg" class="connect__qq-icon" viewBox="0 0 19 21"><g fill="#FFF"><path d="M4.3 12 4 13a37.2 37.2 0 0 0 0 .8v1l.1.3.4.4c.2.2.4.2.7.3A5 5 0 0 0 7 16h.3l.4-.3A.8.8 0 0 0 8 15a58.7 58.7 0 0 0 0-2.2h-.4L7.5 15a.5.5 0 0 1 0 .2.4.4 0 0 1-.2 0 1 1 0 0 1-.3.2 2.2 2.2 0 0 1-.4 0 4.6 4.6 0 0 1-1-.1 1.9 1.9 0 0 1-.5-.2.8.8 0 0 1-.4-.4 1.2 1.2 0 0 1 0-.4v-.2a25.7 25.7 0 0 1 .2-2V12h-.5zm4.2-8c-.3 0-.5.5-.5 1s.2 1 .5 1 .5-.5.5-1-.2-1-.5-1zm.1 1.2-.2-.4.2-.4c.2 0 .3.2.3.4 0 .3-.1.4-.3.4zm2.8-.6a.4.4 0 0 1 0-.1h.1a.5.5 0 0 1 .1.2V5h.4l-.1-.7a.7.7 0 0 0-.2-.2.3.3 0 0 0-.2-.1.3.3 0 0 0-.2.1.8.8 0 0 0-.2.4 1.8 1.8 0 0 0-.1.5h.3a1 1 0 0 1 0-.4z"/><path d="M17.6 10.9a6.4 6.4 0 0 0-.5-.7 1.7 1.7 0 0 0 .2-.6 3.3 3.3 0 0 0 .1-.7 2.8 2.8 0 0 0-.2-1.2 3.1 3.1 0 0 0-.7-.9l-.3-.3-.1-1.1a7.5 7.5 0 0 0-2.7-4.1C12 .3 10.4 0 9.5 0a8 8 0 0 0-3.9 1.3 7 7 0 0 0-2.7 4V7l-.4.2a1 1 0 0 0-.2.2 1 1 0 0 0-.2.4V8a1 1 0 0 0-.2.2 1.4 1.4 0 0 0 0 .2 1.1 1.1 0 0 0-.1.6 4.2 4.2 0 0 0 .3 1 7.3 7.3 0 0 0-.7.8A8 8 0 0 0 0 15c.2 1.5.3 1.5.8 1.2C1.4 16 2 15 2 15s.7 1.8 1.8 2.8a8.2 8.2 0 0 0 11.4 0c1.1-1 1.8-2.8 1.8-2.8s.6 1 1.2 1.3c.4.3.6.3.8-1.2a8 8 0 0 0-1.4-4.1zM11.4 3c.7 0 1.3.9 1.3 2 0 1-.6 1.9-1.3 1.9-.7 0-1.3-.9-1.3-2 0-1 .6-1.9 1.3-1.9zM7.8 3C8.5 3 9 4 9 5s-.6 1.9-1.3 1.9c-.7 0-1.3-.9-1.3-2C6.5 4 7 3 7.8 3zm-1 4.6c1-.4 2.5-.5 3-.5s2 .1 3 .5 1.6.7 1.6 1-.2.4-.7.7c-.6.2-.8.1-.8.1l.4-.6S11.8 10 10 10h-.5c-1.7 0-3.2-1.2-3.2-1.2l.4.6s-.2.1-.8-.2c-.5-.2-.7-.4-.7-.7s.6-.5 1.6-1zm-4.4.9a.4.4 0 0 1 0-.1l.1-.2.1-.4v-.2a.7.7 0 0 1 .2-.1v.3l.7 1c.4.5 1.1 1 2 1.5 1 .4 2.3.7 4 .7h.2c1.5 0 2.7-.3 3.6-.7a6.5 6.5 0 0 0 1.7-1 4.9 4.9 0 0 0 1.3-1.5l.1-.3.3.4c.2.3.2.6.2 1v.6a1.4 1.4 0 0 1-.2.4l-.7.8a8.6 8.6 0 0 1-2 1.3c-.7.4-1.5.7-2.3.8a9.3 9.3 0 0 1-1.6.1c-1 0-2.1-.1-3.1-.3a12.9 12.9 0 0 1-2.6-1 5 5 0 0 1-1.7-1.4 3.8 3.8 0 0 1-.4-.7 3 3 0 0 1-.1-.5.8.8 0 0 1 0-.1.8.8 0 0 1 0-.2 1 1 0 0 1 0-.2zm12 8.9c-1.4 1.8-4 2.1-4.9 2.2-.8 0-3.5-.4-5-2.2a6.4 6.4 0 0 1-1-5.4 6 6 0 0 1 .2-.4l.7.4a13 13 0 0 0 5.9 1.3l1.6-.1c1.4-.2 2.7-.8 3.7-1.5l.1.3c.2.7.5 3-1.2 5.3z"/><path d="M3.7 17.6a5 5 0 0 1-.5-.6 6 6 0 0 0-.7.5c-.3.3-.4.7-.2.7 0 0-1.2 1.3 1 2.2 2 1 4.4.7 5.5-.1A6.5 6.5 0 0 1 9 20a10.6 10.6 0 0 1-1.2-.2 8.7 8.7 0 0 1-4-2.3zm7.5 2.3-1.2.2.2.1c1.1.9 3.4 1.1 5.6.2 2-1 .9-2.2.9-2.2.2 0 0-.4-.2-.7a4.1 4.1 0 0 0-.7-.5 8.5 8.5 0 0 1-4.6 3z"/></g></svg>