<svg width="23" height="23" xmlns="http://www.w3.org/2000/svg"><g fill="none" fill-rule="evenodd"><path d="M23 5.117c-.81.358-1.68.601-2.593.71a4.526 4.526 0 0 0 1.985-2.497 9.036 9.036 0 0 1-2.866 1.095 4.514 4.514 0 0 0-7.691 4.117A12.813 12.813 0 0 1 2.53 3.826a4.513 4.513 0 0 0 1.397 6.026 4.482 4.482 0 0 1-2.044-.565v.057a4.516 4.516 0 0 0 3.62 4.425 4.498 4.498 0 0 1-2.038.079 4.518 4.518 0 0 0 4.216 3.134 9.056 9.056 0 0 1-5.606 1.932c-.363 0-.724-.021-1.076-.063a12.767 12.767 0 0 0 6.918 2.028c8.302 0 12.843-6.878 12.843-12.843 0-.195-.005-.39-.014-.583A9.153 9.153 0 0 0 23 5.117Z" fill="#FFF" fill-rule="nonzero"/></g></svg>