<svg width="23" height="23" xmlns="http://www.w3.org/2000/svg"><path d="M22.023 4.524c-.624-1.11-1.301-1.314-2.68-1.392C17.966 3.04 14.503 3 11.503 3c-3.006 0-6.47.039-7.846.13-1.376.08-2.054.283-2.684 1.394C.331 5.632 0 7.54 0 10.902V10.913c0 3.347.33 5.27.973 6.367.63 1.11 1.307 1.311 2.683 1.405 1.377.08 4.841.128 7.847.128 3 0 6.463-.048 7.841-.127 1.379-.093 2.056-.295 2.68-1.404.648-1.097.976-3.02.976-6.367v-.012c0-3.362-.328-5.27-.977-6.38ZM8.625 15.219V6.594l7.188 4.312-7.188 4.313Z" fill="#FFF" fill-rule="nonzero"/></svg>